<?xml version="1.0" encoding="UTF-8" standalone="no"?>
<!-- Created with Inkscape (http://www.inkscape.org/) -->

<svg
   xmlns:dc="http://purl.org/dc/elements/1.1/"
   xmlns:cc="http://creativecommons.org/ns#"
   xmlns:rdf="http://www.w3.org/1999/02/22-rdf-syntax-ns#"
   xmlns:svg="http://www.w3.org/2000/svg"
   xmlns="http://www.w3.org/2000/svg"
   xmlns:sodipodi="http://sodipodi.sourceforge.net/DTD/sodipodi-0.dtd"
   xmlns:inkscape="http://www.inkscape.org/namespaces/inkscape"
   id="svg2"
   version="1.1"
   inkscape:version="0.91 r13725"
   xml:space="preserve"
   width="560"
   height="421.25"
   viewBox="0 0 560 421.25"
   sodipodi:docname="precision_recall_1.svg"><metadata
     id="metadata8"><rdf:RDF><cc:Work
         rdf:about=""><dc:format>image/svg+xml</dc:format><dc:type
           rdf:resource="http://purl.org/dc/dcmitype/StillImage" /><dc:title></dc:title></cc:Work></rdf:RDF></metadata><defs
     id="defs6"><clipPath
       clipPathUnits="userSpaceOnUse"
       id="clipPath18"><path
         d="m 0,9.16797 4480,0 0,3360.83003 -4480,0 L 0,9.16797 Z"
         id="path20"
         inkscape:connector-curvature="0" /></clipPath><clipPath
       clipPathUnits="userSpaceOnUse"
       id="clipPath272"><path
         d="m 582.5,378.332 3472.5,0 0,2740 -3472.5,0 0,-2740 z"
         id="path274"
         inkscape:connector-curvature="0" /></clipPath><clipPath
       clipPathUnits="userSpaceOnUse"
       id="clipPath344"><path
         d="m 0,9.16797 4480,0 0,3360.83003 -4480,0 L 0,9.16797 Z"
         id="path346"
         inkscape:connector-curvature="0" /></clipPath></defs><sodipodi:namedview
     pagecolor="#ffffff"
     bordercolor="#666666"
     borderopacity="1"
     objecttolerance="10"
     gridtolerance="10"
     guidetolerance="10"
     inkscape:pageopacity="0"
     inkscape:pageshadow="2"
     inkscape:window-width="1877"
     inkscape:window-height="1056"
     id="namedview4"
     showgrid="false"
     inkscape:zoom="2.033049"
     inkscape:cx="280"
     inkscape:cy="210.625"
     inkscape:window-x="43"
     inkscape:window-y="24"
     inkscape:window-maximized="1"
     inkscape:current-layer="g10" /><g
     id="g10"
     inkscape:groupmode="layer"
     inkscape:label="ink_ext_XXXXXX"
     transform="matrix(1.25,0,0,-1.25,0,421.25)"><g
       id="g12"
       transform="scale(0.1,0.1)"><g
         id="g14"><g
           id="g16"
           clip-path="url(#clipPath18)"><path
             d="m 0,9 4480,0 0,3361 L 0,3370 0,9 Z"
             style="fill:#ffffff;fill-opacity:1;fill-rule:nonzero;stroke:none"
             id="path22"
             inkscape:connector-curvature="0" /><path
             d="m 582.5,379.168 3471.67,0 0,2739.16 -3471.67,0 0,-2739.16 z"
             style="fill:#ffffff;fill-opacity:1;fill-rule:evenodd;stroke:none"
             id="path24"
             inkscape:connector-curvature="0" /><path
             d="m 582.5,379.168 0,2739.162 3471.67,0 0,-2739.162 -3471.67,0"
             style="fill:none;stroke:#ffffff;stroke-width:5;stroke-linecap:butt;stroke-linejoin:round;stroke-miterlimit:10;stroke-dasharray:none;stroke-opacity:1"
             id="path26"
             inkscape:connector-curvature="0" /><path
             d="m 582.5,379.168 3471.67,0"
             style="fill:none;stroke:#000000;stroke-width:5;stroke-linecap:butt;stroke-linejoin:round;stroke-miterlimit:10;stroke-dasharray:none;stroke-opacity:1"
             id="path28"
             inkscape:connector-curvature="0" /><path
             d="m 582.5,3118.33 3471.67,0"
             style="fill:none;stroke:#000000;stroke-width:5;stroke-linecap:butt;stroke-linejoin:round;stroke-miterlimit:10;stroke-dasharray:none;stroke-opacity:1"
             id="path30"
             inkscape:connector-curvature="0" /><path
             d="m 582.5,379.168 0,2739.162"
             style="fill:none;stroke:#000000;stroke-width:5;stroke-linecap:butt;stroke-linejoin:round;stroke-miterlimit:10;stroke-dasharray:none;stroke-opacity:1"
             id="path32"
             inkscape:connector-curvature="0" /><path
             d="m 4054.17,379.168 0,2739.162"
             style="fill:none;stroke:#000000;stroke-width:5;stroke-linecap:butt;stroke-linejoin:round;stroke-miterlimit:10;stroke-dasharray:none;stroke-opacity:1"
             id="path34"
             inkscape:connector-curvature="0" /><path
             d="m 582.5,379.168 3471.67,0"
             style="fill:none;stroke:#000000;stroke-width:5;stroke-linecap:butt;stroke-linejoin:round;stroke-miterlimit:10;stroke-dasharray:none;stroke-opacity:1"
             id="path36"
             inkscape:connector-curvature="0" /><path
             d="m 582.5,379.168 0,2739.162"
             style="fill:none;stroke:#000000;stroke-width:5;stroke-linecap:butt;stroke-linejoin:round;stroke-miterlimit:10;stroke-dasharray:none;stroke-opacity:1"
             id="path38"
             inkscape:connector-curvature="0" /><path
             d="m 582.5,379.168 0,35"
             style="fill:none;stroke:#000000;stroke-width:5;stroke-linecap:butt;stroke-linejoin:round;stroke-miterlimit:10;stroke-dasharray:none;stroke-opacity:1"
             id="path40"
             inkscape:connector-curvature="0" /><path
             d="m 582.5,3118.33 0,-34.16"
             style="fill:none;stroke:#000000;stroke-width:5;stroke-linecap:butt;stroke-linejoin:round;stroke-miterlimit:10;stroke-dasharray:none;stroke-opacity:1"
             id="path42"
             inkscape:connector-curvature="0" /><g
             id="g44"
             transform="scale(10,10)"><text
               transform="matrix(1,0,0,-1,55.5,25.8332)"
               style="font-variant:normal;font-weight:normal;font-size:10px;font-family:Helvetica;-inkscape-font-specification:Helvetica;writing-mode:lr-tb;fill:#000000;fill-opacity:1;fill-rule:nonzero;stroke:none"
               id="text46"><tspan
                 x="0"
                 y="0"
                 id="tspan48">0</tspan></text>
</g><path
             d="m 929.168,379.168 0,35"
             style="fill:none;stroke:#000000;stroke-width:5;stroke-linecap:butt;stroke-linejoin:round;stroke-miterlimit:10;stroke-dasharray:none;stroke-opacity:1"
             id="path50"
             inkscape:connector-curvature="0" /><path
             d="m 929.168,3118.33 0,-34.16"
             style="fill:none;stroke:#000000;stroke-width:5;stroke-linecap:butt;stroke-linejoin:round;stroke-miterlimit:10;stroke-dasharray:none;stroke-opacity:1"
             id="path52"
             inkscape:connector-curvature="0" /><g
             id="g54"
             transform="scale(10,10)"><text
               transform="matrix(1,0,0,-1,86,25.8332)"
               style="font-variant:normal;font-weight:normal;font-size:10px;font-family:Helvetica;-inkscape-font-specification:Helvetica;writing-mode:lr-tb;fill:#000000;fill-opacity:1;fill-rule:nonzero;stroke:none"
               id="text56"><tspan
                 x="0 5.5599999 8.3400002"
                 y="0"
                 sodipodi:role="line"
                 id="tspan58">0.1</tspan></text>
</g><path
             d="m 1276.67,379.168 0,35"
             style="fill:none;stroke:#000000;stroke-width:5;stroke-linecap:butt;stroke-linejoin:round;stroke-miterlimit:10;stroke-dasharray:none;stroke-opacity:1"
             id="path60"
             inkscape:connector-curvature="0" /><path
             d="m 1276.67,3118.33 0,-34.16"
             style="fill:none;stroke:#000000;stroke-width:5;stroke-linecap:butt;stroke-linejoin:round;stroke-miterlimit:10;stroke-dasharray:none;stroke-opacity:1"
             id="path62"
             inkscape:connector-curvature="0" /><g
             id="g64"
             transform="scale(10,10)"><text
               transform="matrix(1,0,0,-1,120.75,25.8332)"
               style="font-variant:normal;font-weight:normal;font-size:10px;font-family:Helvetica;-inkscape-font-specification:Helvetica;writing-mode:lr-tb;fill:#000000;fill-opacity:1;fill-rule:nonzero;stroke:none"
               id="text66"><tspan
                 x="0 5.5599999 8.3400002"
                 y="0"
                 sodipodi:role="line"
                 id="tspan68">0.2</tspan></text>
</g><path
             d="m 1623.33,379.168 0,35"
             style="fill:none;stroke:#000000;stroke-width:5;stroke-linecap:butt;stroke-linejoin:round;stroke-miterlimit:10;stroke-dasharray:none;stroke-opacity:1"
             id="path70"
             inkscape:connector-curvature="0" /><path
             d="m 1623.33,3118.33 0,-34.16"
             style="fill:none;stroke:#000000;stroke-width:5;stroke-linecap:butt;stroke-linejoin:round;stroke-miterlimit:10;stroke-dasharray:none;stroke-opacity:1"
             id="path72"
             inkscape:connector-curvature="0" /><g
             id="g74"
             transform="scale(10,10)"><text
               transform="matrix(1,0,0,-1,155.417,25.8332)"
               style="font-variant:normal;font-weight:normal;font-size:10px;font-family:Helvetica;-inkscape-font-specification:Helvetica;writing-mode:lr-tb;fill:#000000;fill-opacity:1;fill-rule:nonzero;stroke:none"
               id="text76"><tspan
                 x="0 5.5599999 8.3400002"
                 y="0"
                 sodipodi:role="line"
                 id="tspan78">0.3</tspan></text>
</g><path
             d="m 1970.83,379.168 0,35"
             style="fill:none;stroke:#000000;stroke-width:5;stroke-linecap:butt;stroke-linejoin:round;stroke-miterlimit:10;stroke-dasharray:none;stroke-opacity:1"
             id="path80"
             inkscape:connector-curvature="0" /><path
             d="m 1970.83,3118.33 0,-34.16"
             style="fill:none;stroke:#000000;stroke-width:5;stroke-linecap:butt;stroke-linejoin:round;stroke-miterlimit:10;stroke-dasharray:none;stroke-opacity:1"
             id="path82"
             inkscape:connector-curvature="0" /><g
             id="g84"
             transform="scale(10,10)"><text
               transform="matrix(1,0,0,-1,190.167,25.8332)"
               style="font-variant:normal;font-weight:normal;font-size:10px;font-family:Helvetica;-inkscape-font-specification:Helvetica;writing-mode:lr-tb;fill:#000000;fill-opacity:1;fill-rule:nonzero;stroke:none"
               id="text86"><tspan
                 x="0 5.5599999 8.3400002"
                 y="0"
                 sodipodi:role="line"
                 id="tspan88">0.4</tspan></text>
</g><path
             d="m 2318.33,379.168 0,35"
             style="fill:none;stroke:#000000;stroke-width:5;stroke-linecap:butt;stroke-linejoin:round;stroke-miterlimit:10;stroke-dasharray:none;stroke-opacity:1"
             id="path90"
             inkscape:connector-curvature="0" /><path
             d="m 2318.33,3118.33 0,-34.16"
             style="fill:none;stroke:#000000;stroke-width:5;stroke-linecap:butt;stroke-linejoin:round;stroke-miterlimit:10;stroke-dasharray:none;stroke-opacity:1"
             id="path92"
             inkscape:connector-curvature="0" /><g
             id="g94"
             transform="scale(10,10)"><text
               transform="matrix(1,0,0,-1,224.917,25.8332)"
               style="font-variant:normal;font-weight:normal;font-size:10px;font-family:Helvetica;-inkscape-font-specification:Helvetica;writing-mode:lr-tb;fill:#000000;fill-opacity:1;fill-rule:nonzero;stroke:none"
               id="text96"><tspan
                 x="0 5.5599999 8.3400002"
                 y="0"
                 sodipodi:role="line"
                 id="tspan98">0.5</tspan></text>
</g><path
             d="m 2665,379.168 0,35"
             style="fill:none;stroke:#000000;stroke-width:5;stroke-linecap:butt;stroke-linejoin:round;stroke-miterlimit:10;stroke-dasharray:none;stroke-opacity:1"
             id="path100"
             inkscape:connector-curvature="0" /><path
             d="m 2665,3118.33 0,-34.16"
             style="fill:none;stroke:#000000;stroke-width:5;stroke-linecap:butt;stroke-linejoin:round;stroke-miterlimit:10;stroke-dasharray:none;stroke-opacity:1"
             id="path102"
             inkscape:connector-curvature="0" /><g
             id="g104"
             transform="scale(10,10)"><text
               transform="matrix(1,0,0,-1,259.583,25.8332)"
               style="font-variant:normal;font-weight:normal;font-size:10px;font-family:Helvetica;-inkscape-font-specification:Helvetica;writing-mode:lr-tb;fill:#000000;fill-opacity:1;fill-rule:nonzero;stroke:none"
               id="text106"><tspan
                 x="0 5.5599999 8.3400002"
                 y="0"
                 sodipodi:role="line"
                 id="tspan108">0.6</tspan></text>
</g><path
             d="m 3012.5,379.168 0,35"
             style="fill:none;stroke:#000000;stroke-width:5;stroke-linecap:butt;stroke-linejoin:round;stroke-miterlimit:10;stroke-dasharray:none;stroke-opacity:1"
             id="path110"
             inkscape:connector-curvature="0" /><path
             d="m 3012.5,3118.33 0,-34.16"
             style="fill:none;stroke:#000000;stroke-width:5;stroke-linecap:butt;stroke-linejoin:round;stroke-miterlimit:10;stroke-dasharray:none;stroke-opacity:1"
             id="path112"
             inkscape:connector-curvature="0" /><g
             id="g114"
             transform="scale(10,10)"><text
               transform="matrix(1,0,0,-1,294.333,25.8332)"
               style="font-variant:normal;font-weight:normal;font-size:10px;font-family:Helvetica;-inkscape-font-specification:Helvetica;writing-mode:lr-tb;fill:#000000;fill-opacity:1;fill-rule:nonzero;stroke:none"
               id="text116"><tspan
                 x="0 5.5599999 8.3400002"
                 y="0"
                 sodipodi:role="line"
                 id="tspan118">0.7</tspan></text>
</g><path
             d="m 3359.17,379.168 0,35"
             style="fill:none;stroke:#000000;stroke-width:5;stroke-linecap:butt;stroke-linejoin:round;stroke-miterlimit:10;stroke-dasharray:none;stroke-opacity:1"
             id="path120"
             inkscape:connector-curvature="0" /><path
             d="m 3359.17,3118.33 0,-34.16"
             style="fill:none;stroke:#000000;stroke-width:5;stroke-linecap:butt;stroke-linejoin:round;stroke-miterlimit:10;stroke-dasharray:none;stroke-opacity:1"
             id="path122"
             inkscape:connector-curvature="0" /><g
             id="g124"
             transform="scale(10,10)"><text
               transform="matrix(1,0,0,-1,329,25.8332)"
               style="font-variant:normal;font-weight:normal;font-size:10px;font-family:Helvetica;-inkscape-font-specification:Helvetica;writing-mode:lr-tb;fill:#000000;fill-opacity:1;fill-rule:nonzero;stroke:none"
               id="text126"><tspan
                 x="0 5.5599999 8.3400002"
                 y="0"
                 sodipodi:role="line"
                 id="tspan128">0.8</tspan></text>
</g><path
             d="m 3706.67,379.168 0,35"
             style="fill:none;stroke:#000000;stroke-width:5;stroke-linecap:butt;stroke-linejoin:round;stroke-miterlimit:10;stroke-dasharray:none;stroke-opacity:1"
             id="path130"
             inkscape:connector-curvature="0" /><path
             d="m 3706.67,3118.33 0,-34.16"
             style="fill:none;stroke:#000000;stroke-width:5;stroke-linecap:butt;stroke-linejoin:round;stroke-miterlimit:10;stroke-dasharray:none;stroke-opacity:1"
             id="path132"
             inkscape:connector-curvature="0" /><g
             id="g134"
             transform="scale(10,10)"><text
               transform="matrix(1,0,0,-1,363.75,25.8332)"
               style="font-variant:normal;font-weight:normal;font-size:10px;font-family:Helvetica;-inkscape-font-specification:Helvetica;writing-mode:lr-tb;fill:#000000;fill-opacity:1;fill-rule:nonzero;stroke:none"
               id="text136"><tspan
                 x="0 5.5599999 8.3400002"
                 y="0"
                 sodipodi:role="line"
                 id="tspan138">0.9</tspan></text>
</g><path
             d="m 4054.17,379.168 0,35"
             style="fill:none;stroke:#000000;stroke-width:5;stroke-linecap:butt;stroke-linejoin:round;stroke-miterlimit:10;stroke-dasharray:none;stroke-opacity:1"
             id="path140"
             inkscape:connector-curvature="0" /><path
             d="m 4054.17,3118.33 0,-34.16"
             style="fill:none;stroke:#000000;stroke-width:5;stroke-linecap:butt;stroke-linejoin:round;stroke-miterlimit:10;stroke-dasharray:none;stroke-opacity:1"
             id="path142"
             inkscape:connector-curvature="0" /><g
             id="g144"
             transform="scale(10,10)"><text
               transform="matrix(1,0,0,-1,402.667,25.8332)"
               style="font-variant:normal;font-weight:normal;font-size:10px;font-family:Helvetica;-inkscape-font-specification:Helvetica;writing-mode:lr-tb;fill:#000000;fill-opacity:1;fill-rule:nonzero;stroke:none"
               id="text146"><tspan
                 x="0"
                 y="0"
                 id="tspan148">1</tspan></text>
</g><path
             d="m 582.5,379.168 34.168,0"
             style="fill:none;stroke:#000000;stroke-width:5;stroke-linecap:butt;stroke-linejoin:round;stroke-miterlimit:10;stroke-dasharray:none;stroke-opacity:1"
             id="path150"
             inkscape:connector-curvature="0" /><path
             d="m 4054.17,379.168 -35,0"
             style="fill:none;stroke:#000000;stroke-width:5;stroke-linecap:butt;stroke-linejoin:round;stroke-miterlimit:10;stroke-dasharray:none;stroke-opacity:1"
             id="path152"
             inkscape:connector-curvature="0" /><g
             id="g154"
             transform="scale(10,10)"><text
               transform="matrix(1,0,0,-1,41.5,34.25)"
               style="font-variant:normal;font-weight:normal;font-size:10px;font-family:Helvetica;-inkscape-font-specification:Helvetica;writing-mode:lr-tb;fill:#000000;fill-opacity:1;fill-rule:nonzero;stroke:none"
               id="text156"><tspan
                 x="0 5.5599999 8.3400002"
                 y="0"
                 sodipodi:role="line"
                 id="tspan158">0.5</tspan></text>
</g><path
             d="m 582.5,653.332 34.168,0"
             style="fill:none;stroke:#000000;stroke-width:5;stroke-linecap:butt;stroke-linejoin:round;stroke-miterlimit:10;stroke-dasharray:none;stroke-opacity:1"
             id="path160"
             inkscape:connector-curvature="0" /><path
             d="m 4054.17,653.332 -35,0"
             style="fill:none;stroke:#000000;stroke-width:5;stroke-linecap:butt;stroke-linejoin:round;stroke-miterlimit:10;stroke-dasharray:none;stroke-opacity:1"
             id="path162"
             inkscape:connector-curvature="0" /><g
             id="g164"
             transform="scale(10,10)"><text
               transform="matrix(1,0,0,-1,35.9168,61.6668)"
               style="font-variant:normal;font-weight:normal;font-size:10px;font-family:Helvetica;-inkscape-font-specification:Helvetica;writing-mode:lr-tb;fill:#000000;fill-opacity:1;fill-rule:nonzero;stroke:none"
               id="text166"><tspan
                 x="0 5.5599999 8.3400002 13.9"
                 y="0"
                 sodipodi:role="line"
                 id="tspan168">0.55</tspan></text>
</g><path
             d="m 582.5,927.5 34.168,0"
             style="fill:none;stroke:#000000;stroke-width:5;stroke-linecap:butt;stroke-linejoin:round;stroke-miterlimit:10;stroke-dasharray:none;stroke-opacity:1"
             id="path170"
             inkscape:connector-curvature="0" /><path
             d="m 4054.17,927.5 -35,0"
             style="fill:none;stroke:#000000;stroke-width:5;stroke-linecap:butt;stroke-linejoin:round;stroke-miterlimit:10;stroke-dasharray:none;stroke-opacity:1"
             id="path172"
             inkscape:connector-curvature="0" /><g
             id="g174"
             transform="scale(10,10)"><text
               transform="matrix(1,0,0,-1,41.5,89.0832)"
               style="font-variant:normal;font-weight:normal;font-size:10px;font-family:Helvetica;-inkscape-font-specification:Helvetica;writing-mode:lr-tb;fill:#000000;fill-opacity:1;fill-rule:nonzero;stroke:none"
               id="text176"><tspan
                 x="0 5.5599999 8.3400002"
                 y="0"
                 sodipodi:role="line"
                 id="tspan178">0.6</tspan></text>
</g><path
             d="m 582.5,1201.67 34.168,0"
             style="fill:none;stroke:#000000;stroke-width:5;stroke-linecap:butt;stroke-linejoin:round;stroke-miterlimit:10;stroke-dasharray:none;stroke-opacity:1"
             id="path180"
             inkscape:connector-curvature="0" /><path
             d="m 4054.17,1201.67 -35,0"
             style="fill:none;stroke:#000000;stroke-width:5;stroke-linecap:butt;stroke-linejoin:round;stroke-miterlimit:10;stroke-dasharray:none;stroke-opacity:1"
             id="path182"
             inkscape:connector-curvature="0" /><g
             id="g184"
             transform="scale(10,10)"><text
               transform="matrix(1,0,0,-1,35.9168,116.5)"
               style="font-variant:normal;font-weight:normal;font-size:10px;font-family:Helvetica;-inkscape-font-specification:Helvetica;writing-mode:lr-tb;fill:#000000;fill-opacity:1;fill-rule:nonzero;stroke:none"
               id="text186"><tspan
                 x="0 5.5599999 8.3400002 13.9"
                 y="0"
                 sodipodi:role="line"
                 id="tspan188">0.65</tspan></text>
</g><path
             d="m 582.5,1475 34.168,0"
             style="fill:none;stroke:#000000;stroke-width:5;stroke-linecap:butt;stroke-linejoin:round;stroke-miterlimit:10;stroke-dasharray:none;stroke-opacity:1"
             id="path190"
             inkscape:connector-curvature="0" /><path
             d="m 4054.17,1475 -35,0"
             style="fill:none;stroke:#000000;stroke-width:5;stroke-linecap:butt;stroke-linejoin:round;stroke-miterlimit:10;stroke-dasharray:none;stroke-opacity:1"
             id="path192"
             inkscape:connector-curvature="0" /><g
             id="g194"
             transform="scale(10,10)"><text
               transform="matrix(1,0,0,-1,41.5,143.833)"
               style="font-variant:normal;font-weight:normal;font-size:10px;font-family:Helvetica;-inkscape-font-specification:Helvetica;writing-mode:lr-tb;fill:#000000;fill-opacity:1;fill-rule:nonzero;stroke:none"
               id="text196"><tspan
                 x="0 5.5599999 8.3400002"
                 y="0"
                 sodipodi:role="line"
                 id="tspan198">0.7</tspan></text>
</g><path
             d="m 582.5,1749.17 34.168,0"
             style="fill:none;stroke:#000000;stroke-width:5;stroke-linecap:butt;stroke-linejoin:round;stroke-miterlimit:10;stroke-dasharray:none;stroke-opacity:1"
             id="path200"
             inkscape:connector-curvature="0" /><path
             d="m 4054.17,1749.17 -35,0"
             style="fill:none;stroke:#000000;stroke-width:5;stroke-linecap:butt;stroke-linejoin:round;stroke-miterlimit:10;stroke-dasharray:none;stroke-opacity:1"
             id="path202"
             inkscape:connector-curvature="0" /><g
             id="g204"
             transform="scale(10,10)"><text
               transform="matrix(1,0,0,-1,35.9168,171.25)"
               style="font-variant:normal;font-weight:normal;font-size:10px;font-family:Helvetica;-inkscape-font-specification:Helvetica;writing-mode:lr-tb;fill:#000000;fill-opacity:1;fill-rule:nonzero;stroke:none"
               id="text206"><tspan
                 x="0 5.5599999 8.3400002 13.9"
                 y="0"
                 sodipodi:role="line"
                 id="tspan208">0.75</tspan></text>
</g><path
             d="m 582.5,2023.33 34.168,0"
             style="fill:none;stroke:#000000;stroke-width:5;stroke-linecap:butt;stroke-linejoin:round;stroke-miterlimit:10;stroke-dasharray:none;stroke-opacity:1"
             id="path210"
             inkscape:connector-curvature="0" /><path
             d="m 4054.17,2023.33 -35,0"
             style="fill:none;stroke:#000000;stroke-width:5;stroke-linecap:butt;stroke-linejoin:round;stroke-miterlimit:10;stroke-dasharray:none;stroke-opacity:1"
             id="path212"
             inkscape:connector-curvature="0" /><g
             id="g214"
             transform="scale(10,10)"><text
               transform="matrix(1,0,0,-1,41.5,198.667)"
               style="font-variant:normal;font-weight:normal;font-size:10px;font-family:Helvetica;-inkscape-font-specification:Helvetica;writing-mode:lr-tb;fill:#000000;fill-opacity:1;fill-rule:nonzero;stroke:none"
               id="text216"><tspan
                 x="0 5.5599999 8.3400002"
                 y="0"
                 sodipodi:role="line"
                 id="tspan218">0.8</tspan></text>
</g><path
             d="m 582.5,2296.67 34.168,0"
             style="fill:none;stroke:#000000;stroke-width:5;stroke-linecap:butt;stroke-linejoin:round;stroke-miterlimit:10;stroke-dasharray:none;stroke-opacity:1"
             id="path220"
             inkscape:connector-curvature="0" /><path
             d="m 4054.17,2296.67 -35,0"
             style="fill:none;stroke:#000000;stroke-width:5;stroke-linecap:butt;stroke-linejoin:round;stroke-miterlimit:10;stroke-dasharray:none;stroke-opacity:1"
             id="path222"
             inkscape:connector-curvature="0" /><g
             id="g224"
             transform="scale(10,10)"><text
               transform="matrix(1,0,0,-1,35.9168,226)"
               style="font-variant:normal;font-weight:normal;font-size:10px;font-family:Helvetica;-inkscape-font-specification:Helvetica;writing-mode:lr-tb;fill:#000000;fill-opacity:1;fill-rule:nonzero;stroke:none"
               id="text226"><tspan
                 x="0 5.5599999 8.3400002 13.9"
                 y="0"
                 sodipodi:role="line"
                 id="tspan228">0.85</tspan></text>
</g><path
             d="m 582.5,2570.83 34.168,0"
             style="fill:none;stroke:#000000;stroke-width:5;stroke-linecap:butt;stroke-linejoin:round;stroke-miterlimit:10;stroke-dasharray:none;stroke-opacity:1"
             id="path230"
             inkscape:connector-curvature="0" /><path
             d="m 4054.17,2570.83 -35,0"
             style="fill:none;stroke:#000000;stroke-width:5;stroke-linecap:butt;stroke-linejoin:round;stroke-miterlimit:10;stroke-dasharray:none;stroke-opacity:1"
             id="path232"
             inkscape:connector-curvature="0" /><g
             id="g234"
             transform="scale(10,10)"><text
               transform="matrix(1,0,0,-1,41.5,253.417)"
               style="font-variant:normal;font-weight:normal;font-size:10px;font-family:Helvetica;-inkscape-font-specification:Helvetica;writing-mode:lr-tb;fill:#000000;fill-opacity:1;fill-rule:nonzero;stroke:none"
               id="text236"><tspan
                 x="0 5.5599999 8.3400002"
                 y="0"
                 sodipodi:role="line"
                 id="tspan238">0.9</tspan></text>
</g><path
             d="m 582.5,2845 34.168,0"
             style="fill:none;stroke:#000000;stroke-width:5;stroke-linecap:butt;stroke-linejoin:round;stroke-miterlimit:10;stroke-dasharray:none;stroke-opacity:1"
             id="path240"
             inkscape:connector-curvature="0" /><path
             d="m 4054.17,2845 -35,0"
             style="fill:none;stroke:#000000;stroke-width:5;stroke-linecap:butt;stroke-linejoin:round;stroke-miterlimit:10;stroke-dasharray:none;stroke-opacity:1"
             id="path242"
             inkscape:connector-curvature="0" /><g
             id="g244"
             transform="scale(10,10)"><text
               transform="matrix(1,0,0,-1,35.9168,280.833)"
               style="font-variant:normal;font-weight:normal;font-size:10px;font-family:Helvetica;-inkscape-font-specification:Helvetica;writing-mode:lr-tb;fill:#000000;fill-opacity:1;fill-rule:nonzero;stroke:none"
               id="text246"><tspan
                 x="0 5.5599999 8.3400002 13.9"
                 y="0"
                 sodipodi:role="line"
                 id="tspan248">0.95</tspan></text>
</g><path
             d="m 582.5,3118.33 34.168,0"
             style="fill:none;stroke:#000000;stroke-width:5;stroke-linecap:butt;stroke-linejoin:round;stroke-miterlimit:10;stroke-dasharray:none;stroke-opacity:1"
             id="path250"
             inkscape:connector-curvature="0" /><path
             d="m 4054.17,3118.33 -35,0"
             style="fill:none;stroke:#000000;stroke-width:5;stroke-linecap:butt;stroke-linejoin:round;stroke-miterlimit:10;stroke-dasharray:none;stroke-opacity:1"
             id="path252"
             inkscape:connector-curvature="0" /><g
             id="g254"
             transform="scale(10,10)"><text
               transform="matrix(1,0,0,-1,49.8332,308.167)"
               style="font-variant:normal;font-weight:normal;font-size:10px;font-family:Helvetica;-inkscape-font-specification:Helvetica;writing-mode:lr-tb;fill:#000000;fill-opacity:1;fill-rule:nonzero;stroke:none"
               id="text256"><tspan
                 x="0"
                 y="0"
                 id="tspan258">1</tspan></text>
</g><path
             d="m 582.5,379.168 3471.67,0"
             style="fill:none;stroke:#000000;stroke-width:5;stroke-linecap:butt;stroke-linejoin:round;stroke-miterlimit:10;stroke-dasharray:none;stroke-opacity:1"
             id="path260"
             inkscape:connector-curvature="0" /><path
             d="m 582.5,3118.33 3471.67,0"
             style="fill:none;stroke:#000000;stroke-width:5;stroke-linecap:butt;stroke-linejoin:round;stroke-miterlimit:10;stroke-dasharray:none;stroke-opacity:1"
             id="path262"
             inkscape:connector-curvature="0" /><path
             d="m 582.5,379.168 0,2739.162"
             style="fill:none;stroke:#000000;stroke-width:5;stroke-linecap:butt;stroke-linejoin:round;stroke-miterlimit:10;stroke-dasharray:none;stroke-opacity:1"
             id="path264"
             inkscape:connector-curvature="0" /><path
             d="m 4054.17,379.168 0,2739.162"
             style="fill:none;stroke:#000000;stroke-width:5;stroke-linecap:butt;stroke-linejoin:round;stroke-miterlimit:10;stroke-dasharray:none;stroke-opacity:1"
             id="path266"
             inkscape:connector-curvature="0" /></g></g><g
         id="g268"><g
           id="g270"
           clip-path="url(#clipPath272)"><path
             d="m 874.168,3118.33 -290.836,0"
             style="fill:none;stroke:#c82d2b;stroke-width:25;stroke-linecap:butt;stroke-linejoin:round;stroke-miterlimit:10;stroke-dasharray:128, 48;stroke-dashoffset:0;stroke-opacity:1"
             id="path276"
             inkscape:connector-curvature="0" /><path
             d="m 1165,3118.33 -290.832,0"
             style="fill:none;stroke:#c82d2b;stroke-width:25;stroke-linecap:butt;stroke-linejoin:round;stroke-miterlimit:10;stroke-dasharray:128, 48;stroke-dashoffset:0;stroke-opacity:1"
             id="path278"
             inkscape:connector-curvature="0" /><path
             d="m 1455,3118.33 -290,0"
             style="fill:none;stroke:#c82d2b;stroke-width:25;stroke-linecap:butt;stroke-linejoin:round;stroke-miterlimit:10;stroke-dasharray:128, 48;stroke-dashoffset:0;stroke-opacity:1"
             id="path280"
             inkscape:connector-curvature="0" /><path
             d="m 1745.83,3118.33 -290.83,0"
             style="fill:none;stroke:#c82d2b;stroke-width:25;stroke-linecap:butt;stroke-linejoin:round;stroke-miterlimit:10;stroke-dasharray:128, 48;stroke-dashoffset:0;stroke-opacity:1"
             id="path282"
             inkscape:connector-curvature="0" /><path
             d="m 2036.67,3118.33 -290.84,0"
             style="fill:none;stroke:#c82d2b;stroke-width:25;stroke-linecap:butt;stroke-linejoin:round;stroke-miterlimit:10;stroke-dasharray:128, 48;stroke-dashoffset:0;stroke-opacity:1"
             id="path284"
             inkscape:connector-curvature="0" /><path
             d="m 2327.5,3118.33 -290.83,0"
             style="fill:none;stroke:#c82d2b;stroke-width:25;stroke-linecap:butt;stroke-linejoin:round;stroke-miterlimit:10;stroke-dasharray:128, 48;stroke-dashoffset:0;stroke-opacity:1"
             id="path286"
             inkscape:connector-curvature="0" /><path
             d="m 2618.33,3115.83 -4.16,0 -0.84,2.5 -285.83,0"
             style="fill:none;stroke:#c82d2b;stroke-width:25;stroke-linecap:butt;stroke-linejoin:round;stroke-miterlimit:10;stroke-dasharray:128, 48;stroke-dashoffset:0;stroke-opacity:1"
             id="path288"
             inkscape:connector-curvature="0" /><path
             d="m 2890.83,2988.33 -2.5,0 0,1.67 -0.83,2.5 -0.83,2.5 -1.67,0 -0.83,1.67 -0.84,2.5 -0.83,2.5 -0.83,2.5 0,1.66 -0.84,0 -0.83,2.5 -0.83,0 -0.84,2.5 -0.83,-0.83 -0.83,2.5 -5,0 -0.84,2.5 -0.83,1.67 0,2.5 -1.67,0 0,2.5 -0.83,1.66 -10.83,0 -0.84,2.5 -0.83,1.67 0,2.5 -1.67,0 0,2.5 -3.33,0 -0.83,2.5 -0.84,-0.83 -2.5,0 -0.83,2.5 -3.33,0 -0.84,2.5 -0.83,0 0,2.5 -1.67,-0.84 0,2.5 -2.5,0 -0.83,2.5 0,2.5 -0.83,2.5 -0.84,0 -0.83,1.67 -9.17,0 0,2.5 -0.83,2.5 -0.83,0 -0.84,1.67 -5,0 -0.83,2.5 0,2.5 -7.5,0 0,2.5 -0.83,1.66 -0.84,2.5 -4.16,0 0,2.5 -0.84,2.5 -0.83,0 -0.83,2.5 -0.84,1.67 -8.33,0 -0.83,2.5 -0.84,2.5 -4.16,0 0,2.5 -4.17,0 -0.83,2.5 -3.34,0 -0.83,1.67 -5.83,0 -0.84,2.5 -0.83,0 -0.83,2.5 -2.5,0 -0.84,2.5 -6.66,0 -0.84,2.5 -4.16,0 0,2.5 -0.84,2.5 -1.66,0 -0.84,2.5 -7.5,0 -0.83,2.5 -27.5,0 -0.83,-0.84 -3.34,0 0,2.5 -73.33,0 -0.83,2.5 -15.84,0"
             style="fill:none;stroke:#c82d2b;stroke-width:25;stroke-linecap:butt;stroke-linejoin:round;stroke-miterlimit:10;stroke-dasharray:128, 48;stroke-dashoffset:0;stroke-opacity:1"
             id="path290"
             inkscape:connector-curvature="0" /><path
             d="m 3130.83,2573.33 -0.83,0 -0.83,1.67 -0.84,1.67 -1.66,0 -0.84,1.66 0,1.67 -0.83,2.5 -0.83,1.67 -0.84,1.66 -0.83,0 -0.83,1.67 -1.67,0 -0.83,1.67 -0.84,0 -0.83,1.66 -0.83,1.67 -0.84,1.67 -0.83,2.5 -0.83,-0.84 -0.84,2.5 -0.83,1.67 -0.83,1.67 0,1.66 -0.84,1.67 -0.83,2.5 -1.67,-0.83 0,2.5 -0.83,1.66 -0.83,1.67 -0.84,1.67 -0.83,2.5 -0.83,1.66 -0.84,1.67 -0.83,1.67 -0.83,2.5 -0.84,-0.84 -0.83,2.5 -0.83,-0.83 -0.84,2.5 -0.83,1.67 -0.83,1.66 -0.84,2.5 -0.83,1.67 -0.83,1.67 0,1.66 -0.84,2.5 -1.66,-0.83 -0.84,0 -0.83,1.67 -0.83,2.5 -0.84,1.66 0,1.67 -0.83,2.5 -0.83,1.67 -0.84,1.66 -2.5,0 -0.83,1.67 0,1.67 -0.83,2.5 -1.67,-0.84 0,2.5 -1.67,-0.83 -0.83,2.5 -0.83,-0.83 -0.84,2.5 -0.83,1.66 -0.83,1.67 0,2.5 -0.84,1.67 -0.83,1.66 -0.83,2.5 -0.84,1.67 -0.83,1.67 -0.83,0 -0.84,1.66 -0.83,2.5 -0.83,1.67 -0.84,1.67 -0.83,0 -0.83,1.66 -0.84,2.5 -0.83,-0.83 -0.83,2.5 -0.84,1.67 -0.83,1.66 0,2.5 -0.83,1.67 -1.67,0 0,1.67 -0.83,2.5 -0.84,1.66 -0.83,1.67 -0.83,2.5 -0.84,-0.83 -2.5,0 -0.83,1.66 0,2.5 -0.83,1.67 -0.84,1.67 -2.5,0 -0.83,1.66 0,2.5 -1.67,0 0,1.67 -0.83,1.67 -1.67,0 0,1.66 -0.83,2.5 -1.67,0 0,1.67 -0.83,1.67 -1.67,0 0,2.5 -0.83,1.66 -0.83,1.67 -0.84,2.5 -0.83,0 -0.83,-0.83 -1.67,0 -0.83,2.5 0,1.66 -0.84,1.67 -0.83,2.5 -0.83,0 -1.67,-0.83 -0.83,0 -0.84,2.5 -0.83,1.66 0,1.67 -0.83,2.5 -0.84,1.67 -0.83,0 -0.83,1.66 -0.84,2.5 -0.83,1.67 -0.83,2.5 -0.84,1.67 -0.83,1.66 0,2.5 -0.83,1.67 -0.84,2.5 -0.83,1.67 -0.83,2.5 -0.84,1.66 0,1.67 -1.66,0 -0.84,2.5 0,1.67 -0.83,2.5 -0.83,-0.84 -0.84,2.5 -0.83,1.67 -0.83,2.5 -0.84,1.67 -0.83,0 -0.83,1.66 -1.67,0 -0.83,2.5 -0.84,1.67 -0.83,1.67 -0.83,0 -0.84,2.5 -0.83,1.66 -0.83,2.5 -0.84,1.67 0,2.5 -0.83,1.67 -0.83,1.66 -0.84,2.5 -0.83,1.67 -0.83,0 -0.84,2.5 -0.83,1.67 0,2.5 -1.67,0 -0.83,1.66 0,2.5 -1.67,-0.83 -1.66,0 -0.84,2.5 -0.83,1.67 -0.83,2.5 0,1.66 -0.84,2.5 -0.83,1.67 -0.83,0 -0.84,1.67 -1.66,0 -0.84,2.5 -0.83,1.66 -0.83,2.5 -0.84,0 -0.83,-0.83 -0.83,2.5 -0.84,1.67 -0.83,0 -0.83,2.5 -0.84,1.66 -0.83,2.5 -0.83,0 -0.84,1.67 -0.83,2.5 0,1.67 -1.67,0 0,2.5 -0.83,1.66 -0.83,2.5 -0.84,0 -0.83,1.67 -0.83,2.5 -0.84,0 -0.83,1.67 -0.83,2.5 -0.84,0 -0.83,-0.84 -2.5,0 0,2.5 -0.83,1.67 -0.84,2.5 -0.83,1.67 -0.83,2.5 -0.84,2.5 -0.83,-0.84 -0.83,0 -0.84,2.5 -1.66,0 -0.84,1.67 -1.66,0 -0.84,2.5 -0.83,0 -0.83,1.67 -0.84,0 -0.83,2.5 -0.83,-0.84 -1.67,0 0,2.5 -0.83,2.5 -0.84,1.67 -0.83,2.5 -0.83,1.67 -0.84,0 -0.83,2.5 -0.83,0 -0.84,1.66 -0.83,0 -0.83,2.5 0,1.67 -0.84,2.5 -0.83,2.5 -0.83,1.67 -0.84,2.5 -0.83,1.66 -0.83,0 -0.84,2.5 0,2.5 -0.83,1.67 -0.83,0 -0.84,2.5 -0.83,0 -0.83,1.67 -0.84,0 -0.83,2.5 -3.33,0 0,1.66 -0.84,2.5 -0.83,2.5 -0.83,-0.83 -0.84,2.5 -0.83,2.5 -0.83,0 -0.84,1.67 -0.83,2.5 0,2.5 -0.83,1.66 -2.5,0 0,2.5 -1.67,0 0,1.67 -0.83,2.5 -0.84,2.5 -0.83,0 -0.83,1.67 -0.84,2.5 -0.83,2.5 0,1.66 -0.83,2.5 -0.84,0"
             style="fill:none;stroke:#c82d2b;stroke-width:25;stroke-linecap:butt;stroke-linejoin:round;stroke-miterlimit:10;stroke-dasharray:128, 48;stroke-dashoffset:0;stroke-opacity:1"
             id="path292"
             inkscape:connector-curvature="0" /><path
             d="m 3391.67,2142.5 -0.84,1.67 -0.83,1.66 -0.83,0.84 -0.84,1.66 -0.83,1.67 -0.83,1.67 -0.84,1.66 -1.66,0.84 -0.84,1.66 -0.83,1.67 -0.83,1.67 -0.84,1.66 -0.83,1.67 -0.83,0.83 -1.67,0 -0.83,1.67 -0.84,1.67 -0.83,1.66 -0.83,-0.83 -0.84,1.67 -0.83,1.66 -1.67,1.67 -0.83,0.83 -0.83,1.67 -0.84,1.67 -0.83,1.66 -0.83,1.67 -0.84,1.67 -0.83,0.83 -0.83,1.67 -0.84,1.66 -0.83,1.67 -1.67,1.67 -0.83,1.66 -0.83,1.67 -0.84,0.83 -0.83,1.67 -0.83,1.67 -0.84,1.66 -0.83,0 -0.83,0.84 -1.67,1.66 -0.83,1.67 -0.84,1.67 -0.83,1.66 -0.83,1.67 -0.84,1.67 -0.83,0.83 -0.83,1.67 -0.84,1.66 -0.83,1.67 -0.83,1.67 -1.67,0 -0.83,0.83 -0.84,1.67 -0.83,1.66 -0.83,1.67 -0.84,1.67 -0.83,1.66 -0.83,1.67 -0.84,1.67 -0.83,0.83 -0.83,1.67 -0.84,1.66 -1.66,1.67 -0.84,1.67 -0.83,1.66 -0.83,1.67 -0.84,1.67 -0.83,-0.84 -0.83,1.67 -0.84,1.67 -0.83,1.66 -0.83,1.67 -0.84,1.67 -0.83,1.66 -1.67,0.84 -0.83,1.66 -0.83,1.67 -0.84,1.67 -0.83,1.66 -0.83,1.67 -0.84,0 -0.83,1.67 -0.83,0.83 -0.84,1.67 -0.83,1.66 -0.83,1.67 -0.84,1.67 -1.66,0 -0.84,1.66 -0.83,1.67 -0.83,-0.83 -0.84,1.66 -0.83,1.67 -0.83,1.67 -0.84,1.66 -0.83,1.67 -1.67,-0.83 -0.83,1.66 -0.83,1.67 -0.84,1.67 -0.83,1.66 -0.83,1.67 -0.84,1.67 -0.83,0 -0.83,1.66 -0.84,1.67 -1.66,-0.83 -0.84,1.66 -0.83,1.67 -0.83,1.67 -0.84,1.66 -0.83,1.67 -0.83,1.67 -0.84,1.66 -0.83,1.67 -0.83,1.67 -0.84,1.66 -0.83,1.67 -0.83,1.67 -0.84,1.66 -0.83,0.84 -0.83,1.66 -0.84,1.67 -0.83,1.67 -0.83,1.66 -0.84,1.67 -0.83,1.67 -1.67,0 -0.83,1.66 -0.83,1.67 -0.84,1.67 -0.83,1.66 -0.83,1.67 -0.84,1.67 -0.83,1.66 -0.83,1.67 -0.84,1.67 -0.83,1.66 -0.83,-0.83 -0.84,1.67 -0.83,1.66 -0.83,1.67 -0.84,1.67 -0.83,1.66 -0.83,1.67 -0.84,1.67 -0.83,1.66 -1.67,0 -0.83,1.67 -0.83,1.67 -0.84,1.66 -0.83,1.67 -0.83,1.67 -0.84,1.66 -0.83,1.67 -0.83,1.67 -0.84,1.66 -0.83,1.67 -0.83,0 -0.84,1.67 -0.83,1.66 -0.83,1.67 -0.84,1.67 -0.83,1.66 -0.83,1.67 -0.84,1.67 -0.83,1.66 -0.83,1.67 -0.84,-0.83 -0.83,1.66 -0.83,1.67 -0.84,1.67 -1.66,0 -0.84,1.66 -0.83,1.67 -0.83,1.67 -0.84,1.66 -0.83,1.67 -0.83,1.67 -0.84,1.66 -0.83,1.67 -0.83,1.67 -0.84,1.66 -0.83,1.67 -0.83,1.67 -0.84,0 -0.83,1.66 -0.83,1.67 -0.84,1.67 -0.83,1.66 -0.83,1.67 -0.84,1.67 -0.83,1.66 -0.83,2.5 -0.84,1.67 -0.83,1.67 -0.83,1.66 -0.84,1.67 -0.83,1.67 -0.83,1.66 -0.84,1.67 -0.83,1.67 -0.83,1.66 -0.84,1.67 -0.83,1.67 -0.83,1.66 0,1.67 -1.67,0 -0.83,1.67 -0.84,1.66 -0.83,1.67 -0.83,1.67 -0.84,1.66 -0.83,2.5 -0.83,1.67 -0.84,1.67 -0.83,1.66 0,1.67 -1.67,0 -0.83,-0.83 -0.83,1.66 -0.84,1.67 -0.83,2.5 -0.83,1.67 -0.84,-0.84 -0.83,1.67 -0.83,0 -0.84,1.67 -0.83,1.66 -1.67,0 -0.83,1.67 -0.83,1.67 -0.84,1.66 -0.83,2.5 0,1.67 -0.83,1.67 -0.84,1.66 -0.83,1.67 -0.83,1.67 -0.84,1.66 -0.83,1.67 -1.67,0 0,1.67 -0.83,1.66 -1.67,0 -0.83,1.67 -0.83,1.67 -0.84,1.66 -0.83,0 -0.83,1.67 -0.84,1.67 -0.83,2.5 -0.83,-0.84 -0.84,1.67 -0.83,2.5 -0.83,1.67 -0.84,1.66 -0.83,1.67 -0.83,1.67 -1.67,0 -0.83,1.66 -0.84,1.67 -0.83,1.67 -0.83,1.66 -0.84,1.67 -0.83,1.67 -0.83,2.5 -0.84,1.66 -0.83,1.67 -0.83,1.67 -0.84,1.66 -0.83,1.67 0,2.5 -0.83,1.67 -0.84,1.66 -0.83,1.67 -0.83,1.67 -0.84,1.66 -0.83,2.5 -0.83,1.67 -0.84,0 -0.83,1.67 -0.83,1.66 -0.84,1.67 -0.83,0 -0.83,1.67 -0.84,1.66 -0.83,1.67 -0.83,2.5 -0.84,1.67 -0.83,1.66 -0.83,1.67 -0.84,0 -0.83,1.67 -0.83,0 -0.84,1.66"
             style="fill:none;stroke:#c82d2b;stroke-width:25;stroke-linecap:butt;stroke-linejoin:round;stroke-miterlimit:10;stroke-dasharray:128, 48;stroke-dashoffset:0;stroke-opacity:1"
             id="path294"
             inkscape:connector-curvature="0" /><path
             d="m 3701.67,1768.33 -1.67,0.84 -0.83,1.66 -0.84,0.84 -1.66,1.66 -0.84,1.67 -0.83,0.83 -1.67,1.67 -0.83,0.83 -0.83,1.67 -1.67,0.83 -0.83,1.67 -1.67,0.83 -0.83,1.67 -0.84,0.83 -1.66,1.67 -0.84,0.83 -0.83,1.67 -1.67,0.83 -0.83,1.67 -0.83,0.83 -1.67,1.67 -0.83,0.83 -0.84,1.67 -1.66,0.83 -0.84,1.67 -0.83,0.83 -1.67,1.67 -0.83,0.83 -0.83,1.67 -1.67,1.67 -0.83,0.83 -0.84,1.67 -1.66,0.83 -0.84,1.67 -0.83,0.83 -1.67,1.67 -0.83,0.83 -0.83,1.67 -0.84,0.83 -1.66,1.67 -0.84,0.83 -0.83,1.67 -1.67,1.66 -0.83,0.84 -0.83,1.66 -1.67,0.84 -0.83,1.66 -0.84,0.84 -1.66,1.66 -0.84,0.84 -0.83,1.66 -1.67,-0.83 -0.83,1.67 -0.83,1.66 -1.67,0.84 -0.83,1.66 -0.84,0.84 -1.66,1.66 -0.84,0.84 -0.83,1.66 -0.83,1.67 -1.67,0.83 -0.83,1.67 -0.84,0.83 -1.66,1.67 -0.84,0.83 -0.83,1.67 -1.67,0.83 -0.83,1.67 -0.83,1.67 -0.84,0.83 -1.66,1.67 -0.84,-0.84 -0.83,1.67 -1.67,0.83 -0.83,1.67 -0.83,1.67 -1.67,0.83 -0.83,1.67 -0.84,0.83 -0.83,1.67 -1.67,0.83 -0.83,1.67 -0.83,0 -1.67,0.83 -0.83,1.67 -0.84,0.83 -1.66,1.67 -0.84,1.66 -0.83,0.84 -0.83,1.66 -1.67,0.84 -0.83,1.66 -0.84,0.84 -0.83,1.66 -1.67,1.67 -0.83,0.83 -0.83,1.67 -1.67,0.83 -0.83,0 -0.84,1.67 -1.66,0.83 -0.84,1.67 -0.83,0.83 -1.67,0 -0.83,1.67 -0.83,0.83 -0.84,1.67 -1.66,0.83 -0.84,1.67 -0.83,1.67 -0.83,0.83 -1.67,1.67 -0.83,0.83 -0.84,1.67 -1.66,0 -0.84,0.83 -0.83,1.67 -0.83,0.83 -1.67,1.67 -0.83,0 -0.84,0.83 -0.83,1.67 -1.67,0.83 -0.83,1.67 -0.83,0 -1.67,0.83 -0.83,1.67 -0.84,0.83 -0.83,1.67 -1.67,1.66 -0.83,0.84 -0.83,1.66 -0.84,1.67 -1.66,0.83 -0.84,1.67 -0.83,1.67 -0.83,0.83 -0.84,1.67 -1.66,0.83 -0.84,0 -0.83,1.67 -1.67,0.83 -0.83,1.67 -0.83,1.66 -0.84,0.84 -1.66,1.66 -0.84,0.84 -0.83,0 -0.83,1.66 -1.67,0.84 -0.83,1.66 -0.84,1.67 -0.83,0.83 -1.67,1.67 -0.83,1.67 -0.83,-0.84 -0.84,1.67 -1.66,0.83 -0.84,1.67 -0.83,1.67 -0.83,0.83 -0.84,1.67 -1.66,1.66 -0.84,0.84 -0.83,1.66 -0.83,1.67 -1.67,0.83 -0.83,1.67 -0.84,1.67 -0.83,0.83 -1.67,0 -0.83,1.67 -0.83,0.83 -0.84,1.67 -1.66,-0.84 -0.84,1.67 -0.83,1.67 -0.83,1.66 -0.84,0.84 -1.66,1.66 -0.84,1.67 -0.83,0.83 -0.83,1.67 -0.84,1.67 -1.66,0.83 -0.84,1.67 -0.83,1.66 -0.83,0.84 -0.84,1.66 -1.66,1.67 -0.84,0.83 -0.83,1.67 -0.83,1.67 -0.84,0.83 -1.66,0 -0.84,1.67 -0.83,-0.84 -1.67,1.67 -0.83,1.67 -0.83,0.83 -0.84,1.67 -0.83,1.66 -0.83,0.84 -1.67,1.66 -0.83,1.67 -0.84,1.67 -0.83,0.83 -0.83,1.67 -1.67,1.66 -0.83,0.84 -0.84,1.66 -0.83,1.67 -0.83,1.67 -0.84,0.83 -1.66,1.67 -0.84,1.66 -0.83,0.84 -0.83,1.66 -1.67,0 -0.83,0.84 -0.84,1.66 -0.83,1.67 -0.83,1.67 -0.84,0.83 -1.66,1.67 -0.84,1.66 -0.83,0.84 -0.83,1.66 -0.84,1.67 -0.83,1.67 -1.67,-0.84 -0.83,1.67 -0.83,1.67 -0.84,0.83 -1.66,0 -0.84,1.67 -0.83,0.83 -0.83,1.67 -0.84,1.66 -0.83,1.67 -1.67,0.83 -0.83,1.67 -0.83,1.67 -0.84,0 -0.83,0.83 -1.67,1.67 -0.83,1.66 -0.83,1.67 -0.84,0.83 -0.83,1.67 -0.83,0 -1.67,0.83 -0.83,1.67 -0.84,1.67 -0.83,1.66 -0.83,0.84 -0.84,1.66 -0.83,1.67 -1.67,1.67 -0.83,0.83 -0.83,1.67 -0.84,1.66 -0.83,1.67 -0.83,0.83 -0.84,1.67 -1.66,1.67 -0.84,1.66 -0.83,1.67 -0.83,0.83 -0.84,0 -0.83,1.67 -1.67,0.83 -0.83,1.67 -0.83,1.67 -0.84,1.66 -0.83,1.67 -0.83,0.83 -0.84,1.67 -1.66,1.67 -0.84,1.66 -0.83,0.84 -0.83,1.66 -0.84,1.67 -0.83,1.67 -0.83,1.66 -0.84,0.84 -0.83,1.66 -1.67,1.67 -0.83,1.67 -0.83,1.66 -0.84,0.84 -0.83,1.66 -0.83,1.67 -0.84,1.67 -0.83,1.66 -1.67,0.84 -0.83,1.66 -0.83,1.67"
             style="fill:none;stroke:#c82d2b;stroke-width:25;stroke-linecap:butt;stroke-linejoin:round;stroke-miterlimit:10;stroke-dasharray:128, 48;stroke-dashoffset:0;stroke-opacity:1"
             id="path296"
             inkscape:connector-curvature="0" /><path
             d="m 4054.17,1455 -1.67,1.67 -1.67,0.83 -1.66,0.83 -0.84,0.84 -1.66,1.66 -1.67,0.84 -0.83,0.83 -1.67,1.67 -1.67,0.83 -0.83,0.83 -1.67,1.67 -1.66,0.83 -0.84,0.84 -1.66,0.83 -0.84,1.67 -1.66,0.83 -1.67,0.83 -0.83,1.67 -1.67,0.83 -1.67,0.84 -0.83,0.83 -1.67,1.67 -1.66,0.83 -0.84,0.83 -1.66,1.67 -1.67,0.83 -0.83,0.84 -1.67,1.66 -1.67,0.84 -0.83,0.83 -1.67,0.83 -0.83,1.67 -1.67,0.83 -1.66,0.84 -0.84,1.66 -1.66,0.84 -1.67,0.83 -0.83,1.67 -1.67,0.83 -0.83,0.83 -1.67,1.67 -1.67,0.83 -0.83,0.84 -1.67,0.83 -1.66,1.67 -0.84,0.83 -1.66,0.83 -0.84,1.67 -1.66,0.83 -1.67,0.84 -0.83,1.66 -1.67,0.84 -0.83,0.83 -1.67,1.67 -1.67,0.83 -0.83,0.83 -1.67,1.67 -0.83,0.83 -1.67,0.84 -1.66,1.66 -0.84,0.84 -1.66,0.83 -0.84,1.67 -1.66,0.83 -1.67,0.83 -0.83,1.67 -1.67,0.83 -0.83,0.84 -1.67,1.66 -1.67,0.84 -0.83,0.83 -1.67,1.67 -0.83,0.83 -1.67,0.83 -1.66,1.67 -0.84,0.83 -1.66,0.84 -0.84,1.66 -1.66,0.84 -0.84,0.83 -1.66,1.67 -1.67,0.83 -0.83,0.83 -1.67,1.67 -0.83,0.83 -1.67,0.84 -0.83,1.66 -1.67,0.84 -0.83,0.83 -1.67,1.67 -1.67,0.83 -0.83,0.83 -1.67,1.67 -0.83,0.83 -1.67,1.67 -0.83,0.83 -1.67,0.84 -0.83,1.66 -1.67,0.84 -1.66,0.83 -0.84,1.67 -1.66,0.83 -0.84,0.83 -1.66,1.67 -0.84,0.83 -1.66,0.84 -0.84,1.66 -1.66,0.84 -0.84,1.66 -1.66,0.84 -1.67,0.83 -0.83,1.67 -1.67,0.83 -0.83,0.83 -1.67,1.67 -0.83,0.83 -1.67,0.84 -0.83,1.66 -1.67,0.84 -0.83,1.66 -1.67,0.84 -0.83,0.83 -1.67,1.67 -0.83,0.83 -1.67,0.83 -0.83,1.67 -1.67,0.83 -0.83,1.67 -1.67,0.83 -1.67,0.84 -0.83,1.66 -1.67,0.84 -0.83,1.66 -1.67,0.84 -0.83,0.83 -1.67,1.67 -0.83,0.83 -1.67,0.83 -0.83,1.67 -1.67,0.83 -0.83,1.67 -1.67,0.83 -0.83,0.84 -1.67,1.66 -0.83,0.84 -1.67,1.66 -0.83,0.84 -1.67,0.83 -0.83,1.67 -1.67,0.83 -0.83,1.67 -1.67,0.83 -0.83,0.83 -1.67,1.67 -0.83,0.83 -0.83,1.67 -1.67,0.83 -0.83,0.84 -1.67,1.66 -0.83,0.84 -1.67,1.66 -0.83,-0.83 -1.67,0.83 -0.83,1.67 -1.67,0.83 -0.83,1.67 -1.67,0.83 -0.83,0.84 -1.67,1.66 -0.83,0.84 -1.67,0 -0.83,0.83 -1.67,1.67 -0.83,0.83 -1.67,0.83 -0.83,1.67 -1.67,0.83 -0.83,1.67 -1.67,0.83 -0.83,1.67 -0.84,0.83 -1.66,0.84 -0.84,1.66 -1.66,0.84 -0.84,1.66 -1.66,0.84 -0.84,1.66 -1.66,0.84 -0.84,-0.84 -1.66,1.67 -0.84,0.83 -1.66,1.67 -0.84,0.83 -0.83,1.67 -1.67,0.83 -0.83,0.84 -1.67,1.66 -0.83,0.84 -1.67,1.66 -0.83,0.84 -0.83,1.66 -1.67,0.84 -0.83,1.66 -1.67,0.84 -0.83,0.83 -1.67,1.67 -0.83,0.83 -1.67,1.67 -0.83,0.83 -0.84,1.67 -1.66,0.83 -0.84,1.67 -1.66,0.83 -0.84,0.83 -0.83,1.67 -1.67,0.83 -0.83,1.67 -1.67,-0.83 -0.83,1.66 -1.67,0.84 -0.83,1.66 -1.67,0.84 -0.83,1.66 -0.83,0.84 -1.67,0.83 -0.83,1.67 -1.67,0.83 -0.83,1.67 -0.84,0.83 -1.66,1.67 -0.84,0.83 -1.66,1.67 -0.84,0.83 -0.83,1.67 -1.67,0.83 -0.83,1.67 -1.67,0.83 -0.83,0.83 -0.83,1.67 -1.67,0.83 -0.83,1.67 -1.67,0.83 -0.83,0 -1.67,0.84 -0.83,1.66 -0.84,-0.83 -1.66,1.67 -0.84,0.83 -1.66,1.67 -0.84,0.83 -0.83,1.67 -1.67,0.83 -0.83,1.67 -1.67,0.83 -0.83,1.67 -0.83,0.83 -1.67,1.67 -0.83,0.83 -0.84,1.67 -1.66,0.83 -0.84,1.67 -1.66,0.83 -0.84,1.67 -0.83,0.83 -1.67,0.83 -0.83,1.67 -0.83,0.83 -1.67,1.67 -0.83,0.83 -1.67,1.67 -0.83,0.83 -0.84,0 -1.66,0.84 -0.84,1.66 -0.83,0.84 -1.67,1.66 -0.83,0.84 -1.67,1.66 -0.83,0.84 -0.83,1.66"
             style="fill:none;stroke:#c82d2b;stroke-width:25;stroke-linecap:butt;stroke-linejoin:round;stroke-miterlimit:10;stroke-dasharray:128, 48;stroke-dashoffset:0;stroke-opacity:1"
             id="path298"
             inkscape:connector-curvature="0" /><path
             d="m 874.168,3118.33 -290.836,0"
             style="fill:none;stroke:#c82d2b;stroke-width:25;stroke-linecap:butt;stroke-linejoin:round;stroke-miterlimit:10;stroke-dasharray:none;stroke-opacity:1"
             id="path300"
             inkscape:connector-curvature="0" /><path
             d="m 1165,3118.33 -290.832,0"
             style="fill:none;stroke:#c82d2b;stroke-width:25;stroke-linecap:butt;stroke-linejoin:round;stroke-miterlimit:10;stroke-dasharray:none;stroke-opacity:1"
             id="path302"
             inkscape:connector-curvature="0" /><path
             d="m 1455,3118.33 -290,0"
             style="fill:none;stroke:#c82d2b;stroke-width:25;stroke-linecap:butt;stroke-linejoin:round;stroke-miterlimit:10;stroke-dasharray:none;stroke-opacity:1"
             id="path304"
             inkscape:connector-curvature="0" /><path
             d="m 1745.83,3118.33 -290.83,0"
             style="fill:none;stroke:#c82d2b;stroke-width:25;stroke-linecap:butt;stroke-linejoin:round;stroke-miterlimit:10;stroke-dasharray:none;stroke-opacity:1"
             id="path306"
             inkscape:connector-curvature="0" /><path
             d="m 2036.67,3118.33 -290.84,0"
             style="fill:none;stroke:#c82d2b;stroke-width:25;stroke-linecap:butt;stroke-linejoin:round;stroke-miterlimit:10;stroke-dasharray:none;stroke-opacity:1"
             id="path308"
             inkscape:connector-curvature="0" /><path
             d="m 2327.5,3118.33 -290.83,0"
             style="fill:none;stroke:#c82d2b;stroke-width:25;stroke-linecap:butt;stroke-linejoin:round;stroke-miterlimit:10;stroke-dasharray:none;stroke-opacity:1"
             id="path310"
             inkscape:connector-curvature="0" /><path
             d="m 2618.33,3118.33 -290.83,0"
             style="fill:none;stroke:#c82d2b;stroke-width:25;stroke-linecap:butt;stroke-linejoin:round;stroke-miterlimit:10;stroke-dasharray:none;stroke-opacity:1"
             id="path312"
             inkscape:connector-curvature="0" /><path
             d="m 2909.17,3118.33 -290.84,0"
             style="fill:none;stroke:#c82d2b;stroke-width:25;stroke-linecap:butt;stroke-linejoin:round;stroke-miterlimit:10;stroke-dasharray:none;stroke-opacity:1"
             id="path314"
             inkscape:connector-curvature="0" /><path
             d="m 3200,3118.33 -290.83,0"
             style="fill:none;stroke:#c82d2b;stroke-width:25;stroke-linecap:butt;stroke-linejoin:round;stroke-miterlimit:10;stroke-dasharray:none;stroke-opacity:1"
             id="path316"
             inkscape:connector-curvature="0" /><path
             d="m 3490.83,3118.33 -290.83,0"
             style="fill:none;stroke:#c82d2b;stroke-width:25;stroke-linecap:butt;stroke-linejoin:round;stroke-miterlimit:10;stroke-dasharray:none;stroke-opacity:1"
             id="path318"
             inkscape:connector-curvature="0" /><path
             d="m 3764.17,2759.17 -0.84,1.66 -1.66,1.67 -0.84,1.67 -0.83,0.83 -0.83,1.67 -0.84,1.66 -0.83,1.67 -0.83,1.67 -1.67,1.66 -0.83,1.67 -0.84,0.83 -0.83,1.67 -0.83,1.67 -0.84,1.66 -0.83,1.67 -0.83,1.67 -1.67,1.66 -0.83,1.67 -0.84,1.67 -0.83,0.83 -0.83,1.67 -0.84,1.66 -0.83,1.67 -0.83,1.67 -1.67,1.66 -0.83,1.67 -0.84,1.67 -0.83,1.66 -0.83,1.67 -0.84,0.83 -0.83,1.67 -0.83,1.67 -0.84,1.66 -1.66,1.67 -0.84,1.67 -0.83,1.66 -0.83,1.67 -0.84,1.67 -0.83,1.66 -0.83,0.84 -0.84,1.66 -1.66,0 -0.84,1.67 -0.83,1.67 -0.83,1.66 -0.84,1.67 -0.83,1.67 -0.83,1.66 -0.84,1.67 -0.83,1.67 -1.67,1.66 -0.83,1.67 -0.83,0.83 -0.84,1.67 -0.83,1.67 -0.83,1.66 -0.84,1.67 -0.83,1.67 -0.83,1.66 -1.67,1.67 -0.83,1.67 -0.84,1.66 -0.83,1.67 -0.83,1.67 -0.84,1.66 -0.83,1.67 -0.83,1.67 -0.84,0.83 -0.83,1.67 -0.83,1.66 -1.67,1.67 -0.83,1.67 -0.84,1.66 -0.83,1.67 -0.83,1.67 -0.84,1.66 -0.83,1.67 -0.83,1.67 -0.84,1.66 -0.83,1.67 -0.83,1.67 -1.67,1.66 -0.83,1.67 -0.84,1.67 -0.83,0 -0.83,1.66 -0.84,1.67 -0.83,1.67 -0.83,1.66 -0.84,1.67 -0.83,1.67 -0.83,0.83 -1.67,1.67 -0.83,1.66 -0.84,0 -0.83,1.67 -0.83,1.67 -0.84,1.66 -1.66,0 -1.67,1.67 -0.83,0 -0.84,1.67 -0.83,1.66 -0.83,1.67 -0.84,1.67 -0.83,1.66 -0.83,1.67 -0.84,1.67 -0.83,1.66 -0.83,1.67 -0.84,1.67 -1.66,1.66 -0.84,1.67 -0.83,1.67 -0.83,1.66 -0.84,1.67 -0.83,1.67 -0.83,1.66 -0.84,1.67 -0.83,1.67 -0.83,1.66 -0.84,1.67 -0.83,1.67 -0.83,1.66 -0.84,1.67 -0.83,1.67 -0.83,1.66 -1.67,1.67 -0.83,1.67 -0.84,1.66 -0.83,1.67 -0.83,1.67 -0.84,1.66 -0.83,1.67 -0.83,1.67 -0.84,1.66 -0.83,1.67 -0.83,1.67 -0.84,1.66 -0.83,1.67 -0.83,1.67 -0.84,1.66 -0.83,2.5 -0.83,1.67 -0.84,1.67 -0.83,1.66 -1.67,1.67 -0.83,1.67 -0.83,1.66 -0.84,1.67 -0.83,1.67 -1.67,0 -0.83,1.66 -0.83,1.67 -0.84,1.67 -0.83,1.66 -0.83,1.67 -0.84,1.67 -2.5,0 -0.83,1.66 -0.83,1.67 -0.84,1.67 -0.83,1.66 -0.83,1.67 -0.84,1.67 -0.83,1.66 -0.83,2.5 -0.84,1.67 -0.83,1.67 -0.83,1.66 -0.84,1.67 -0.83,1.67 -0.83,1.66 -0.84,1.67 -0.83,1.67 -0.83,1.66 -0.84,1.67 -0.83,1.67 -0.83,1.66 -0.84,2.5 -0.83,1.67 -0.83,1.67 -0.84,1.66 -0.83,1.67 -1.67,1.67 -0.83,1.66 -0.83,1.67 -0.84,1.67 -0.83,1.66 -0.83,1.67 -0.84,2.5 -0.83,1.67 -0.83,1.66 -0.84,1.67 -0.83,0 -0.83,1.67 -0.84,1.66 -2.5,0 -0.83,1.67 -1.67,0 -0.83,1.67 -0.83,1.66 -0.84,0 -0.83,1.67 -0.83,2.5 -0.84,1.67 -0.83,1.66 -0.83,1.67 -0.84,1.67 -0.83,1.66 -0.83,1.67 -0.84,1.67 -0.83,2.5 -0.83,1.66 -6.67,0 -0.83,1.67 -0.84,1.67 -0.83,1.66 -0.83,1.67 -0.84,1.67 -3.33,0 -0.83,1.66 -6.67,0 -0.83,2.5 -0.84,1.67 -0.83,1.67 -2.5,0 -0.83,1.66 -2.5,0 -0.84,1.67 -16.66,0 -0.84,1.67 -21.66,0 -0.84,1.66 -5,0"
             style="fill:none;stroke:#c82d2b;stroke-width:25;stroke-linecap:butt;stroke-linejoin:round;stroke-miterlimit:10;stroke-dasharray:none;stroke-opacity:1"
             id="path320"
             inkscape:connector-curvature="0" /><path
             d="m 4054.17,2359.17 -1.67,1.66 -0.83,0.84 -1.67,1.66 -0.83,0.84 -0.84,1.66 -1.66,1.67 -0.84,0.83 -0.83,1.67 -1.67,0.83 -0.83,1.67 -0.83,0.83 -1.67,1.67 -0.83,1.67 -0.84,0.83 -1.66,1.67 -0.84,0.83 -0.83,1.67 -1.67,1.66 -0.83,0.84 -0.83,1.66 -1.67,0.84 -0.83,1.66 -0.84,1.67 -1.66,0.83 -0.84,1.67 -0.83,1.67 -1.67,0.83 -0.83,1.67 -0.83,0.83 -1.67,1.67 -0.83,1.66 -0.84,0.84 -1.66,1.66 -0.84,0.84 -0.83,1.66 -1.67,1.67 -0.83,0.83 -0.83,1.67 -1.67,1.67 -0.83,0.83 -0.84,1.67 -1.66,0.83 -0.84,1.67 -0.83,1.66 -1.67,0.84 -0.83,1.66 -0.83,1.67 -1.67,0.83 -0.83,1.67 -0.84,0.83 -0.83,1.67 -1.67,1.67 -0.83,0.83 -0.83,1.67 -1.67,1.66 -0.83,0.84 -0.84,1.66 -1.66,0.84 -0.84,1.66 -0.83,1.67 -1.67,0.83 -0.83,1.67 -0.83,1.67 -0.84,0.83 -1.66,1.67 -0.84,1.66 -0.83,0.84 -1.67,1.66 -0.83,1.67 -0.83,0.83 -1.67,1.67 -0.83,1.67 -0.84,0.83 -0.83,1.67 -1.67,0.83 -0.83,1.67 -0.83,1.66 -1.67,0.84 -0.83,1.66 -0.84,1.67 -0.83,0.83 -1.67,1.67 -0.83,1.67 -0.83,0.83 -1.67,1.67 -0.83,1.66 -0.84,0.84 -0.83,1.66 -1.67,1.67 -0.83,0.83 -0.83,1.67 -1.67,1.67 -0.83,0.83 -0.84,1.67 -0.83,1.66 -1.67,0.84 -0.83,1.66 -0.83,1.67 -0.84,0.83 -1.66,1.67 -0.84,1.67 -0.83,1.66 -1.67,0.84 -0.83,1.66 -0.83,1.67 -0.84,0.83 -1.66,1.67 -0.84,1.67 -0.83,0.83 -0.83,1.67 -1.67,1.66 -0.83,0.84 -0.84,1.66 -0.83,1.67 -1.67,0.83 -0.83,1.67 -0.83,1.67 -0.84,1.66 -1.66,0.84 -0.84,1.66 -0.83,1.67 -0.83,0.83 -1.67,1.67 -0.83,1.67 -0.84,0.83 -0.83,1.67 -1.67,1.66 -0.83,1.67 -0.83,0.83 -0.84,1.67 -1.66,1.67 -0.84,0.83 -0.83,1.67 -0.83,1.66 -1.67,1.67 -0.83,0.83 -0.84,1.67 -0.83,1.67 -1.67,0.83 -0.83,1.67 -0.83,1.66 -0.84,1.67 -1.66,0.83 -0.84,1.67 -0.83,1.67 -0.83,0.83 -1.67,1.67 -0.83,1.66 -0.84,1.67 -0.83,0.83 -0.83,1.67 -1.67,1.67 -0.83,1.66 -0.84,0.84 -0.83,1.66 -1.67,1.67 -0.83,0.83 -0.83,1.67 -0.84,1.67 -1.66,1.66 -0.84,0.84 -0.83,1.66 -0.83,1.67 -0.84,1.67 -1.66,0.83 -0.84,1.67 -0.83,1.66 -0.83,1.67 -1.67,0.83 -0.83,1.67 -0.84,1.67 -0.83,1.66 -0.83,0.84 -1.67,1.66 -0.83,1.67 -0.84,1.67 -0.83,0.83 -0.83,1.67 -1.67,1.66 -0.83,1.67 -0.84,0.83 -0.83,1.67 -1.67,1.67 -0.83,1.66 -0.83,0.84 -0.84,1.66 -0.83,1.67 -1.67,1.67 -0.83,1.66 -0.83,0.84 -0.84,1.66 -0.83,1.67 -1.67,1.67 -0.83,0.83 -0.83,1.67 -0.84,1.66 -0.83,1.67 -1.67,0.83 -0.83,1.67 -0.83,1.67 -0.84,1.66 -0.83,1.67 -0.83,0.83 -1.67,1.67 -0.83,0 -0.84,1.67 -0.83,1.66 -1.67,0.84 -0.83,1.66 -0.83,1.67 -0.84,1.67 -0.83,1.66 -0.83,0.84 -1.67,1.66 -0.83,1.67 -0.84,1.67 -0.83,0.83 -0.83,1.67 -1.67,1.66 -0.83,1.67 -0.84,1.67 -0.83,0.83 -0.83,1.67 -0.84,1.66 -1.66,1.67 -0.84,1.67 -0.83,1.66 -0.83,0.84 -0.84,1.66 -1.66,1.67 -0.84,1.67 -0.83,1.66 -0.83,0.84 -0.84,1.66 -0.83,1.67 -1.67,1.67 -0.83,1.66 -0.83,0.84 -0.84,1.66 -0.83,1.67 -0.83,1.67 -1.67,1.66 -0.83,1.67 -0.84,0.83 -0.83,1.67 -0.83,1.67 -0.84,1.66 -1.66,1.67 -0.84,1.67 -0.83,0.83 -0.83,1.67 -0.84,1.66 -0.83,1.67 -0.83,1.67 -1.67,1.66 -0.83,0.84 -0.84,1.66 -0.83,1.67 -0.83,1.67 -0.84,1.66 -1.66,1.67 -0.84,0.83 -0.83,1.67 -0.83,1.67 -0.84,1.66 -0.83,1.67 -0.83,1.67 -1.67,1.66 -0.83,0.84 -0.84,1.66 -0.83,1.67 -0.83,1.67 -0.84,1.66 -0.83,1.67 -1.67,1.67 -0.83,0.83 -0.83,1.67 -0.84,1.66 -0.83,1.67 -0.83,1.67"
             style="fill:none;stroke:#c82d2b;stroke-width:25;stroke-linecap:butt;stroke-linejoin:round;stroke-miterlimit:10;stroke-dasharray:none;stroke-opacity:1"
             id="path322"
             inkscape:connector-curvature="0" /><path
             d="m 4054.17,2320 -20.84,24.17 -20,23.33 -20,24.17 -19.16,25 -20,24.16 -19.17,25 -18.33,25 -19.17,25.84 -18.33,25 -18.34,26.66 -18.33,25.84 -17.5,26.66 -17.5,26.67 -17.5,26.67 -17.5,27.5 -17.5,27.5 -16.67,28.33 -16.66,28.33 -16.67,28.34 -16.67,29.16 -16.66,29.17 -15.84,30 -15.83,29.17 -15.83,30.83 -15.84,30 -15,30.83 -17.5,0 -18.33,-0.83 -17.5,-0.83 -17.5,0 -17.5,-0.84 -18.33,-0.83 -17.5,0 -17.5,-0.83 -17.5,-0.84 -18.34,0 -17.5,-0.83 -17.5,-0.83 -17.5,-0.84 -18.33,-0.83 -17.5,0 -17.5,-0.83 -17.5,-0.84 -18.33,-0.83 -17.5,-0.83 -17.5,0 -17.5,-0.84 -18.34,-0.83 -17.5,-0.83 -17.5,-0.84 -18.33,-0.83 -17.5,-0.83 -17.5,-0.84 -17.5,-0.83 -18.33,0 -17.5,-0.83 -17.5,-0.84 -17.5,-0.83 -18.34,-0.83 -17.5,-0.84 -17.5,-0.83 -17.5,-0.83 -18.33,-1.67 -17.5,-0.83 -17.5,-0.84 -17.5,-0.83 -18.33,-0.83 -17.5,-0.84 -17.5,-0.83 -17.5,-0.83 -18.34,-1.67 -17.5,-0.83 -17.5,-0.84 -17.5,-0.83 -18.33,-1.67 -17.5,-0.83 -17.5,-0.83 -17.5,-0.84 -18.33,-1.66 -17.5,-0.84 -17.5,-1.66 -17.5,-0.84 -18.34,-1.66 -17.5,-0.84 -17.5,-1.66 -17.5,-0.84 -18.33,-1.66 -17.5,-0.84 -17.5,-1.66 -17.5,-0.84 -18.33,-1.66 -17.5,-1.67 -17.5,-1.67 -17.5,-0.83 -18.34,-1.67 -17.5,-1.66 -17.5,-1.67 -17.5,-1.67 -18.33,-1.66 -17.5,-1.67 -8.33,54.17 -18.34,-0.84 -17.5,-0.83 -17.5,-1.67 -17.5,-0.83 -17.5,-1.67 -17.5,-0.83 -17.5,-1.67 -18.33,-1.66 -17.5,-0.84 -17.5,-1.66 -17.5,-1.67 -17.5,-0.83 -17.5,-1.67 -17.5,-1.67 -18.33,-1.66 -17.5,-1.67 -17.5,-1.67 -6.67,66.67 -17.5,-0.83 -17.5,-0.84 -17.5,-0.83 -17.5,-0.83 -18.33,-0.84 -17.5,-0.83 -17.5,-1.67 -17.5,-0.83 -17.5,-0.83 -17.5,-0.84 -17.5,-1.66 -17.5,-0.84 -17.5,-1.66 -17.5,-0.84 -17.5,-1.66 -17.5,-0.84 -17.5,-1.66 -17.5,-1.67 -17.5,-0.83 -5,89.16 -1030.002,0"
             style="fill:none;stroke:#00b050;stroke-width:25;stroke-linecap:butt;stroke-linejoin:round;stroke-miterlimit:10;stroke-dasharray:128, 48;stroke-dashoffset:0;stroke-opacity:1"
             id="path324"
             inkscape:connector-curvature="0" /><path
             d="m 4054.17,2953.33 -18.34,-0.83 -17.5,27.5 -18.33,-0.83 -17.5,-0.84 -18.33,-0.83 -17.5,27.5 -16.67,28.33 -18.33,-0.83 -17.5,0 -17.5,-0.83 -17.5,0 -18.34,-0.84 -17.5,-0.83 -16.66,29.17 -35,0 -15.84,29.16 -17.5,0 -15.83,30 -3123.332,0"
             style="fill:none;stroke:#00b050;stroke-width:25;stroke-linecap:butt;stroke-linejoin:round;stroke-miterlimit:10;stroke-dasharray:none;stroke-opacity:1"
             id="path326"
             inkscape:connector-curvature="0" /><path
             d="m 2182.5,3027.5 -5.83,0 -5,-0.83 -5.84,0 -5,-0.84 -10.83,0 -5.83,-0.83 -10.84,0 -5,-0.83 -5.83,0 -5,-0.84 -5.83,0 -2.5,19.17 -5,-0.83 -10.84,0 -5.83,-0.84 -2.5,19.17 -1.67,20 -5.83,-0.83 -26.67,0 -5.83,-0.84 -21.67,0 -5,-0.83 -26.66,0 -2.5,20 -48.34,0 -5.83,-0.83 -43.33,0 -5,-0.84 -43.34,0 -1.66,22.5 -1254.17,0"
             style="fill:none;stroke:#2540b4;stroke-width:25;stroke-linecap:butt;stroke-linejoin:round;stroke-miterlimit:10;stroke-dasharray:128, 48;stroke-dashoffset:0;stroke-opacity:1"
             id="path328"
             inkscape:connector-curvature="0" /><path
             d="m 3652.5,860 -7.5,5 -7.5,5.832 -8.33,5 -7.5,5.836 -7.5,5 -7.5,5.832 -7.5,5 -7.5,5.832 -8.34,-4.164 -7.5,5.832 -7.5,5.832 -6.66,5 -7.5,5.836 -7.5,5.832 -6.67,5.832 -7.5,5 -6.67,5.836 -7.5,5.832 -6.66,5.832 -7.5,5.836 -6.67,5.832 -7.5,5.832 -6.67,5.836 -6.66,5 -6.67,5.832 -8.33,-3.332 -6.67,5.832 -7.5,5.832 -6.67,5.838 -6.66,5.83 -6.67,5.83 -6.67,6.67 -6.66,5.83 -6.67,5.84 -5.83,5.83 -6.67,5.83 -6.67,6.67 -6.66,5.83 -6.67,5.84 -5.83,6.66 -6.67,5.84 -6.67,5.83 -5.83,6.67 -6.67,5.83 -5.83,6.67 -6.67,5.83 -5.83,6.67 -5.83,5.83 -6.67,6.67 -5.83,6.66 -6.67,5.84 -7.5,-3.34 -5.83,6.67 -5.84,5.83 -8.33,-3.33 -5.83,6.67 -5.84,5.83 -5.83,6.67 -5.83,6.66 -7.5,-3.33 -5.84,6.67 -5.83,6.66 -5.83,5.84 -5.84,6.66 -5.83,6.67 -5.83,6.67 -5.84,6.66 -5.83,7.5 -7.5,-4.16 -5.83,6.66 -5,6.67 -5.84,7.5 -5.83,6.67 -5,6.66 -5.83,6.67 -5.84,7.5 -6.66,-4.17 -5.84,7.5 -5,6.67 -5.83,6.67 -5,7.5 -5.83,6.66 -5,7.5 -7.5,-3.33 -5,6.67 -5.84,7.5 -5,6.66 -5,7.5 -5.83,7.5 -5,6.67 -5,7.5 -5,7.5 -5,7.5 -5.83,7.5 -5,7.5 -5,6.67 -5,7.5 -5,7.5 -5,7.5 -5,7.5 -5,8.33 -5,7.5 -5,7.5 -4.17,7.5 -5,7.5 -5,8.33 -7.5,-3.33 -4.17,7.5 -5,7.5 -5,8.33 -5,7.5 -4.16,8.34 -5,7.5 -5,8.33 -4.17,7.5 -5,8.33 -5,8.34 -4.17,7.5 -5,8.33 -4.16,8.33 -5,8.34 -6.67,-3.34 -4.17,8.34 -5,8.33 -4.16,8.33 -5,8.34 -4.17,8.33 -4.17,8.33 -5,8.34 -4.16,8.33 -4.17,9.17 -5,8.33 -4.17,8.33 -4.16,9.17 -4.17,8.33 -4.17,8.34 -5,9.16 -4.16,9.17 -4.17,8.33 -4.17,9.17 -4.16,8.33 -6.67,-2.5 -4.17,9.17 -4.16,8.33 -4.17,9.17 -6.67,-2.5 -4.16,9.17 -4.17,9.16 -4.17,9.17 -4.16,9.17 -4.17,9.16 -4.17,9.17 -4.16,9.17 -3.34,9.16 -4.16,10 -4.17,9.17 -6.67,-2.5 -4.16,9.17 -3.34,9.16 -4.16,10 -4.17,10 -4.17,9.17 -3.33,10 -4.17,10 -4.16,9.17 -3.34,10 -4.16,10 -4.17,10 -3.33,10 -4.17,10 -3.33,10 -4.17,10.83 -4.17,10 -3.33,10 -4.17,10.83 -3.33,10 -4.17,10.84 -3.33,10 -3.33,10.83 -4.17,10 -3.33,10.83 -4.17,10.84 -3.33,10.83 -3.34,10.83 -4.16,10.84 -3.34,10.83 -3.33,10.83 -4.17,10.84 -3.33,10.83 -3.33,10.83 -4.17,11.67 -3.33,10.83 -3.34,11.67 -3.33,10.83 -4.17,11.67 -3.33,10.83 -3.33,11.67 -3.34,11.67 -3.33,11.66 -3.33,11.67 -3.34,11.67 -6.66,-1.67 -3.34,11.67 -3.33,11.66 -3.33,11.67 -3.34,11.67 -3.33,12.5 -3.33,11.66 -5.84,-1.66 -3.33,12.5 -3.33,11.66 -3.34,12.5 -3.33,12.5 -3.33,12.5 -3.34,12.5 -3.33,12.5 -3.33,12.5 -2.5,12.5 -5.84,-1.66 -3.33,13.33 -3.33,12.5 -5.84,-1.67 -3.33,13.34 -3.33,12.5 -3.34,13.33 -2.5,13.33 -3.33,13.34 -3.33,13.33 -5.84,-1.67 -2.5,13.34 -3.33,13.33 -3.33,13.33 -3.34,14.17 -2.5,13.33 -5.83,-0.83 -3.33,13.33 -2.5,14.17 -3.34,14.17 -3.33,13.33 -5,-0.83 -3.33,14.16 -5.84,-0.83 -2.5,14.17 -5.83,-0.84 -3.33,14.17 -2.5,14.17 -3.34,15 -5,-1.67 -5.83,-0.83 -5.83,-0.84 -2.5,15 -3.34,15 -5.83,-1.66 -5,-0.84 -3.33,15 -5,-0.83 -3.34,15 -2.5,15.83 -5.83,-0.83 -5,-0.83 -3.33,15 -2.5,15.83 -5.84,-0.83 -5,-0.84 -3.33,15.84 -5,-0.84 -3.33,15.84 -2.5,15.83 -5.84,-0.83 -2.5,16.66 -2.5,15.84 -5.83,-0.84 -5,0 -5.83,-0.83 -5,0 -5.84,-0.83 -2.5,16.66 -5.83,-0.83 -5,0 -5.83,-0.83 -5,-0.84 -3.34,17.5 -5,-0.83 -5.83,0 -2.5,16.67 -5,-0.84 -10.83,0 -5.84,-0.83 -5.83,0 -5,-0.83 -5.83,0 -5,-0.84 -2.5,17.5 -5.84,0 -5,-0.83 -5.83,0 -2.5,17.5 -5,0"
             style="fill:none;stroke:#2540b4;stroke-width:25;stroke-linecap:butt;stroke-linejoin:round;stroke-miterlimit:10;stroke-dasharray:128, 48;stroke-dashoffset:0;stroke-opacity:1"
             id="path330"
             inkscape:connector-curvature="0" /><path
             d="m 4054.17,647.5 -10,4.168 -10,5 -10,4.164 -9.17,5 -10,5 -9.17,4.168 -9.16,5 -10,5 -9.17,5 -9.17,4.168 -9.16,5 -9.17,5 -9.17,5 -9.16,5 -9.17,4.164 -9.17,5 -8.33,5 -9.17,5 -9.16,5 -8.34,5 -9.16,-4.164 -9.17,5 -9.17,-3.336 -8.33,5 -9.17,5 -8.33,5 -8.33,5 -8.34,5 -9.16,5 -8.34,5 -8.33,5 -8.33,5 -8.34,5.836 -7.5,5 -8.33,5 -8.33,5 -8.34,5 -7.5,5.832 -8.33,5 -8.33,5 -7.5,5.832 -8.34,5 -7.5,5 -7.5,5.836 -8.33,5 -7.5,5.832"
             style="fill:none;stroke:#2540b4;stroke-width:25;stroke-linecap:butt;stroke-linejoin:round;stroke-miterlimit:10;stroke-dasharray:128, 48;stroke-dashoffset:0;stroke-opacity:1"
             id="path332"
             inkscape:connector-curvature="0" /><path
             d="m 2146.67,2808.33 -5.84,-0.83 -5,-1.67 -5.83,-0.83 -5.83,-0.83 -5,-0.84 -5.84,-1.66 -5.83,-0.84 -5,-0.83 -5.83,-1.67 -5,-0.83 -5.84,-0.83 -5.83,-1.67 -5,-0.83 -5.83,-0.84 -5.84,-1.66 -5,-0.84 -5.83,-0.83 -5.83,-1.67 -5,-0.83 -5.84,-1.67 -5,-0.83 -5.83,-1.67 -2.5,19.17 -5,-1.67 -5.83,-0.83 -5.84,-0.83 -5,-1.67 -5.83,-0.83 -5.83,-1.67 -5,-0.83 -5.84,-1.67 -5,-0.83 -2.5,19.16 -2.5,19.17 -1.66,20 -5.84,-0.83 -5.83,-0.84 -5,-1.66 -5.83,-0.84 -5,-0.83 -5.84,-0.83 -5.83,-1.67 -5,-0.83 -2.5,20 -5,-0.84 -5.83,-0.83 -5,-0.83 -5.84,-1.67 -5.83,-0.83 -5,-0.84 -5.83,-0.83 -5,-1.67 -5.84,-0.83 -5,-0.83 -5.83,-0.84 -5.83,-1.66 -5,-0.84 -5.84,-0.83 -5,-1.67 -5.83,-0.83 -5.83,-1.67 -5,-0.83 -5.84,-0.83 -5,-1.67 -5.83,-0.83 -5,-1.67 -5.83,-0.83 -5.84,-1.67 -5,-0.83 -5.83,-0.84 -5,-1.66 -5.83,-1.67 -5.84,-0.83 -5,-1.67 -5.83,-0.83 -5,-1.67 -5.83,-0.83 -5,-1.67 -5.84,-0.83 -5.83,-1.67 -5,-1.67 -5.83,-0.83 -5,-1.67 -5.84,-1.66 -5,-0.84 -5.83,-1.66 -5.83,-1.67 -5,-1.67 -5.84,-0.83 -5,-1.67 -5.83,-1.66 -5.83,-1.67 -5,-1.67 -5.84,-0.83 -1.66,25 -5,-1.67 -1.67,25.84 -5.83,-1.67 -5,-1.67 -5.84,-0.83 -5.83,-1.67 -5,-1.66 -5.83,-0.84 -5,-1.66 -5.84,-1.67 -5,-0.83 -5.83,-1.67 -5,-1.67 -5.83,-1.66 -5.84,-1.67 -5,-0.83 -5.83,-1.67 -5,-1.67 -1.67,27.5 -5.83,-0.83 -5,-1.67 -5.83,-1.66 -5,-1.67 -1.67,29.17 -5.83,-1.67 -5,-0.83 -5.84,-1.67 -5,-1.67 -5.83,-0.83 -5,-1.67 -5.83,-1.66 -5,-1.67 -5.84,-0.83 -5,-1.67 -5.83,-1.67 -5.83,-1.66 -5,-1.67 -5.84,-0.83 -5,-1.67 -5.83,-1.67 -5,-1.66 -5.83,-1.67 -5,-1.67 -5.84,-1.66 -0.83,32.5 -5.83,-1.67 -5.84,-1.67 -5,-1.66 -5.83,-0.84 -5,-1.66 -5.83,-1.67 -5,-1.67 -5.84,-1.66 -5,-1.67 -5.83,-1.67 -0.83,35 -5.84,-1.66 -5,-1.67 -5.83,-1.67 -5,-1.66 -5.83,-0.84 -5,-1.66 -5.84,-1.67 -5,-1.67 -5.83,-1.66 -5,-1.67 -5.83,-1.67 -5,-1.66 -5.84,-2.5 -5,-1.67 -5.83,-1.67 -5.83,-1.66 -5,-1.67 -5.84,-2.5 -5,-1.67 -5.83,-1.66 -5,-2.5 -5.83,-1.67 -5,-2.5 -5.84,-1.67 -5,-2.5 -5.83,-1.66 -5,-2.5 -5.83,-1.67 -0.84,43.33 -5,-2.5 -5.83,-1.66 -5,-1.67 -5.83,-2.5 -5,-1.67 -5.84,-2.5 -5,-1.66 -5.83,-2.5 -5.83,-2.5 -5,-1.67 -5.84,-2.5 -5,-2.5 -5.83,-2.5 -5,-2.5 -5.83,-2.5 -5,-2.5 -0.84,50.83 -5.83,-1.66 -5,-2.5 -5.83,-1.67 -5,-2.5 -5.84,-2.5 -5,-2.5 -5.83,-1.67 -5,-2.5 -5.83,-2.5 -5,-2.5 -5.84,-2.5 -5,-2.5 -5.83,-3.33 -5,-2.5 -5.83,-2.5 -5,-3.33 -5.84,-2.5 -5,-3.34 -5.83,-3.33 -5,-2.5 -5.83,-3.33 -5.002,-3.34 -5.836,-3.33 -5,-3.33 -5.832,-4.17 -5,-3.33 -5.832,-4.17 -5,-3.33 -0.836,70 0,71.66 -0.832,74.17 -5.832,-0.83 0,76.66 -371.668,0"
             style="fill:none;stroke:#2540b4;stroke-width:25;stroke-linecap:butt;stroke-linejoin:round;stroke-miterlimit:10;stroke-dasharray:none;stroke-opacity:1"
             id="path334"
             inkscape:connector-curvature="0" /><path
             d="m 3733.33,1774.17 -7.5,-2.5 -5.83,7.5 -6.67,6.66 -5.83,6.67 -6.67,7.5 -5.83,6.67 -6.67,7.5 -5.83,6.66 -6.67,-1.66 -6.66,6.66 -5.84,7.5 -6.66,-2.5 -6.67,-2.5 -6.67,7.5 -5.83,7.5 -6.67,-2.5 -5.83,7.5 -5.83,6.67 -6.67,-1.67 -6.67,6.67 -6.66,-1.67 -5.84,7.5 -5.83,6.67 -5.83,7.5 -5.84,7.5 -6.66,-2.5 -5.84,7.5 -5.83,7.5 -6.67,-1.67 -6.66,-2.5 -5.84,7.5 -6.66,-1.66 -6.67,-2.5 -6.67,-2.5 -6.66,-1.67 -5,7.5 -6.67,-2.5 -5.83,7.5 -6.67,-1.67 -6.67,-2.5 -6.66,-1.66 -6.67,-2.5 -6.67,-2.5 -6.66,-1.67 -6.67,-2.5 -6.67,-2.5 -5.83,8.33 -5,7.5 -6.67,-2.5 -5.83,8.34 -5,7.5 -5.83,7.5 -5,8.33 -6.67,-2.5 -6.67,-1.67 -5,7.5 -5.83,8.34 -6.67,-2.5 -5,7.5 -6.66,-1.67 -5,7.5 -5,8.33 -6.67,-1.66 -5,7.5 -5,8.33 -5.83,8.33 -5.84,-2.5 -5.83,8.34 -5,8.33 -5,8.33 -5,8.34 -5,8.33 -5,8.33 -6.67,-2.5 -5,8.34 -5.83,-1.67 -5,8.33 -6.67,-2.5 -5,9.17 -5.83,-2.5 -5,8.33 -5,9.17 -5,8.33 -5,8.34 -5,9.16 -4.17,8.34 -5,9.16 -5,8.34 -5,9.16 -5.83,-2.5 -6.67,-1.66 -4.16,9.16 -6.67,-2.5 -4.17,9.17 -5,9.17 -5.83,-2.5 -6.67,-1.67 -5,9.17 -4.16,9.16 -5,9.17 -4.17,8.33 -5,9.17 -5.83,-1.67 -4.17,9.17 -5,9.17 -4.17,9.16 -5,10 -4.16,9.17 -4.17,9.17 -6.67,-1.67 -5.83,-1.67 -4.17,9.17 -5,9.17 -5.83,-1.67 -4.17,10 -4.16,9.17 -6.67,-1.67 -4.17,10 -5.83,-1.67 -6.67,-1.66 -5.83,-1.67 -4.17,9.17 -4.16,10 -5.84,-1.67 -4.16,10 -6.67,-1.67 -4.17,9.17 -5.83,-1.67 -5.83,-1.66 -5.84,-1.67 -6.66,-1.67 -4.17,10 -4.17,10 -5.83,-1.66 -4.17,10 -4.16,10.83 -5.84,-1.67 -5.83,-1.66 -5.83,-1.67 -4.17,10 -4.17,10 -4.16,10.83 -4.17,10 -4.17,10.84 -3.33,10 -5.83,-1.67 -4.17,10.83 -5.83,-1.66 -5.84,-1.67 -6.66,-1.67 -5.84,-1.66 -5.83,-1.67 -5.83,-0.83 -5.84,-1.67 -5.83,-1.67 -5.83,-1.66 -5.84,-1.67 -5.83,-1.67 -5.83,-1.66 -6.67,-1.67 -5.83,-1.67 -5.84,-1.66 -3.33,10.83 -4.17,10.83 -5.83,-1.66 -3.33,10.83 -4.17,11.67 -3.33,10.83 -4.17,11.67 -3.33,10.83 -5.84,-1.67 -4.16,11.67 -3.34,10.83 -5.83,-0.83 -4.17,10.83 -5.83,-0.83 -3.33,10.83 -5.84,-0.83 -5.83,-1.67 -5.83,-1.66 -3.34,11.66 -4.16,11.67 -3.34,11.67 -5.83,-1.67 -3.33,12.5 -5.84,-1.67 -3.33,11.67 -5.83,-0.83 -3.34,11.66 -5.83,-1.66 -5.83,-0.84 -5.84,-1.66 -5.83,-0.84 -5.83,-1.66 -5.84,-1.67 -5.83,-0.83 -5.83,-1.67 -5,-1.67 -4.17,12.5 -3.33,12.5 -5.84,-1.66 -5,-0.84 -5.83,-1.66 -5.83,-1.67 -5.84,-0.83 -5.83,-1.67 -5.83,-1.67 -3.34,13.34 -5.83,-1.67 -5,-1.67 -5.83,-0.83 -5.84,-1.67 -5.83,-1.66 -3.33,13.33 -3.34,12.5 -3.33,13.33 -5.83,-1.66 -5,-0.84 -5.84,-1.66 -5.83,-1.67 -5.83,-0.83 -5.84,-1.67 -5.83,-0.83 -5,-1.67 -3.33,13.33 -5.84,-1.66 -5.83,-0.84 -5.83,-1.66 -5.84,-1.67 -2.5,14.17 -3.33,13.33 -5.83,-1.67 -3.34,14.17 -2.5,13.33 -5.83,-0.83 -3.33,13.33 -2.5,14.17 -3.34,14.17 -5.83,-1.67 -5,-0.83 -5.83,-0.84 -5.84,-1.66 -3.33,14.16 -5,-0.83 -5.83,-0.83 -3.34,14.16 -5,-0.83 -5.83,-1.67 -5.83,-0.83 -5,-0.83 -5.84,-1.67 -5.83,-0.83 -5.83,-1.67 -5,-0.83 -5.84,-0.84 -5.83,-1.66 -5,-0.84 -5.83,-0.83 -5.84,-1.67 -5.83,-0.83 -5,-1.67 -5.83,-0.83 -5.84,-1.67 -5,-0.83 -5.83,-1.67 -5.83,-0.83 -2.5,15 -5.84,-0.83 -5.83,-1.67 -5,-0.83 -5.83,-1.67 -5.84,-0.83 -5.83,-0.84 -2.5,15 -5,-0.83 -5.83,-1.67 -2.5,15.84 -3.34,15.83 -2.5,16.67 -5,-1.67 -5.83,-0.83 -5.83,-0.84 -5,-1.66 -5.84,-0.84 -2.5,16.67 -5.83,-1.67 -5.83,-0.83 -5,-0.83 -5.84,-0.84 -2.5,16.67 -5.83,-1.67 -5,-0.83 -5.83,-0.83 -5.84,-0.84 -5,-1.66 -2.5,17.5 -5.83,-1.67 -5.83,-0.83 -5,-0.84"
             style="fill:none;stroke:#2540b4;stroke-width:25;stroke-linecap:butt;stroke-linejoin:round;stroke-miterlimit:10;stroke-dasharray:none;stroke-opacity:1"
             id="path336"
             inkscape:connector-curvature="0" /><path
             d="m 4054.17,1547.5 -8.34,5.83 -7.5,6.67 -6.66,5.83 -7.5,-2.5 -7.5,5.84 -7.5,6.66 -7.5,5.84 -7.5,5.83 -7.5,6.67 -7.5,-2.5 -6.67,6.66 -7.5,-2.5 -7.5,5.84 -7.5,-2.5 -6.67,6.66 -7.5,5.84 -6.66,6.66 -7.5,6.67 -6.67,5.83 -7.5,6.67 -6.67,6.67 -6.66,5.83 -7.5,6.67 -6.67,6.66 -6.67,6.67 -6.66,5.83 -6.67,6.67 -7.5,6.67 -6.67,6.66 -6.66,6.67 -6.67,6.67 -6.67,6.66 -6.66,6.67 -6.67,6.67 -6.67,-2.5 -6.66,6.66 -6.67,6.67 -6.67,-2.5 -7.5,-1.67 -6.66,6.67 -6.67,-2.5 -6.67,6.67 -5.83,6.66 -6.67,7.5 -6.66,6.67 -5.84,6.67"
             style="fill:none;stroke:#2540b4;stroke-width:25;stroke-linecap:butt;stroke-linejoin:round;stroke-miterlimit:10;stroke-dasharray:none;stroke-opacity:1"
             id="path338"
             inkscape:connector-curvature="0" /></g></g><g
         id="g340"><g
           id="g342"
           clip-path="url(#clipPath344)"><g
             id="g348"
             transform="scale(10,10)"><text
               transform="matrix(1,0,0,-1,219.833,13.9168)"
               style="font-variant:normal;font-weight:normal;font-size:10px;font-family:Helvetica;-inkscape-font-specification:Helvetica;writing-mode:lr-tb;fill:#000000;fill-opacity:1;fill-rule:nonzero;stroke:none"
               id="text350"><tspan
                 x="0 3.3299999 8.8900003 13.89 19.450001 21.67"
                 y="0"
                 sodipodi:role="line"
                 id="tspan352">recall</tspan></text>
<text
               transform="matrix(0,1,1,0,29.0832,154.833)"
               style="font-variant:normal;font-weight:normal;font-size:10px;font-family:Helvetica;-inkscape-font-specification:Helvetica;writing-mode:lr-tb;fill:#000000;fill-opacity:1;fill-rule:nonzero;stroke:none"
               id="text354"><tspan
                 x="0 5.5599999 8.8900003 14.45 19.450001 21.67 26.67 28.889999 34.450001"
                 y="0"
                 sodipodi:role="line"
                 id="tspan356">precision</tspan></text>
</g></g></g></g><g
       transform="translate(7.6496176,-3.878316)"
       id="g4648"><text
         transform="scale(1,-1)"
         sodipodi:linespacing="125%"
         id="text4504"
         y="-134.18269"
         x="101.91589"
         style="font-style:normal;font-weight:normal;font-size:11px;line-height:125%;font-family:sans-serif;letter-spacing:0px;word-spacing:0px;fill:#000000;fill-opacity:1;stroke:none;stroke-width:1px;stroke-linecap:butt;stroke-linejoin:miter;stroke-opacity:1"
         xml:space="preserve"><tspan
           y="-134.18269"
           x="101.91589"
           id="tspan4506"
           sodipodi:role="line" /><tspan
           id="tspan4508"
           y="-120.43269"
           x="101.91589"
           sodipodi:role="line" /><tspan
           id="tspan4510"
           y="-106.68269"
           x="101.91589"
           sodipodi:role="line">Nordland</tspan></text>
<text
         transform="scale(1,-1)"
         sodipodi:linespacing="125%"
         id="text4512"
         y="-120.80377"
         x="101.91589"
         style="font-style:normal;font-weight:normal;font-size:11px;line-height:125%;font-family:sans-serif;letter-spacing:0px;word-spacing:0px;fill:#000000;fill-opacity:1;stroke:none;stroke-width:1px;stroke-linecap:butt;stroke-linejoin:miter;stroke-opacity:1"
         xml:space="preserve"><tspan
           y="-120.80377"
           x="101.91589"
           id="tspan4514"
           sodipodi:role="line">Garden Points </tspan></text>
<text
         transform="scale(1,-1)"
         sodipodi:linespacing="125%"
         id="text4516"
         y="-106.63786"
         x="101.52239"
         style="font-style:normal;font-weight:normal;font-size:11px;line-height:125%;font-family:sans-serif;letter-spacing:0px;word-spacing:0px;fill:#000000;fill-opacity:1;stroke:none;stroke-width:1px;stroke-linecap:butt;stroke-linejoin:miter;stroke-opacity:1"
         xml:space="preserve"><tspan
           y="-106.63786"
           x="101.52239"
           id="tspan4518"
           sodipodi:role="line" /><tspan
           id="tspan4520"
           y="-92.887863"
           x="101.52239"
           sodipodi:role="line">UofA day evening</tspan></text>
<path
         inkscape:connector-curvature="0"
         id="path4524"
         d="m 69.649085,126.50949 29.118827,0"
         style="fill:none;fill-rule:evenodd;stroke:#00b050;stroke-width:1.60000002;stroke-linecap:butt;stroke-linejoin:miter;stroke-miterlimit:4;stroke-dasharray:none;stroke-opacity:1" /><path
         inkscape:connector-curvature="0"
         id="path4524-3"
         d="m 69.649085,122.37777 29.118822,0"
         style="fill:none;fill-rule:evenodd;stroke:#00b050;stroke-width:1.60000002;stroke-linecap:butt;stroke-linejoin:miter;stroke-miterlimit:4;stroke-dasharray:4.8, 1.6;stroke-dashoffset:0;stroke-opacity:1" /><path
         inkscape:connector-curvature="0"
         id="path4524-6"
         d="m 68.86209,112.2452 29.118826,0"
         style="fill:none;fill-rule:evenodd;stroke:#c82d2b;stroke-width:1.60000002;stroke-linecap:butt;stroke-linejoin:miter;stroke-miterlimit:4;stroke-dasharray:none;stroke-opacity:1" /><path
         inkscape:connector-curvature="0"
         id="path4524-3-7"
         d="m 68.86209,108.11348 29.118826,0"
         style="fill:none;fill-rule:evenodd;stroke:#c82d2b;stroke-width:1.60000002;stroke-linecap:butt;stroke-linejoin:miter;stroke-miterlimit:4;stroke-dasharray:4.8, 1.6;stroke-dashoffset:0;stroke-opacity:1" /><path
         inkscape:connector-curvature="0"
         id="path4524-6-5"
         d="m 68.86209,98.472784 29.118826,0"
         style="fill:none;fill-rule:evenodd;stroke:#2540b4;stroke-width:1.60000002;stroke-linecap:butt;stroke-linejoin:miter;stroke-miterlimit:4;stroke-dasharray:none;stroke-opacity:1" /><path
         inkscape:connector-curvature="0"
         id="path4524-3-7-3"
         d="m 68.86209,94.341064 29.118826,0"
         style="fill:none;fill-rule:evenodd;stroke:#2540b4;stroke-width:1.60000002;stroke-linecap:butt;stroke-linejoin:miter;stroke-miterlimit:4;stroke-dasharray:4.8, 1.6;stroke-dashoffset:0;stroke-opacity:1" /><text
         transform="scale(1,-1)"
         sodipodi:linespacing="125%"
         id="text4577"
         y="-80.273521"
         x="96.800423"
         style="font-style:normal;font-weight:normal;font-size:11px;line-height:125%;font-family:sans-serif;letter-spacing:0px;word-spacing:0px;fill:#000000;fill-opacity:1;stroke:none;stroke-width:1px;stroke-linecap:butt;stroke-linejoin:miter;stroke-opacity:1"
         xml:space="preserve"><tspan
           y="-80.273521"
           x="96.800423"
           id="tspan4579"
           sodipodi:role="line"> SeqSLAM</tspan></text>
<text
         transform="scale(1,-1)"
         sodipodi:linespacing="125%"
         id="text4577-5"
         y="-68.188408"
         x="100.60344"
         style="font-style:normal;font-weight:normal;font-size:11px;line-height:125%;font-family:sans-serif;letter-spacing:0px;word-spacing:0px;fill:#000000;fill-opacity:1;stroke:none;stroke-width:1px;stroke-linecap:butt;stroke-linejoin:miter;stroke-opacity:1"
         xml:space="preserve"><tspan
           y="-68.188408"
           x="100.60344"
           id="tspan4579-6"
           sodipodi:role="line">Our Algorithm</tspan></text>
<path
         inkscape:connector-curvature="0"
         id="path4524-6-5-2"
         d="m 67.681597,70.829578 29.118826,0"
         style="fill:none;fill-rule:evenodd;stroke:#02030a;stroke-width:1.60000002;stroke-linecap:butt;stroke-linejoin:miter;stroke-miterlimit:4;stroke-dasharray:none;stroke-opacity:1" /><path
         inkscape:connector-curvature="0"
         id="path4524-3-7-3-9"
         d="m 68.075094,83.421503 29.118826,0"
         style="fill:none;fill-rule:evenodd;stroke:#02030a;stroke-width:1.60000002;stroke-linecap:butt;stroke-linejoin:miter;stroke-miterlimit:4;stroke-dasharray:4.8, 1.6;stroke-dashoffset:0;stroke-opacity:1" /></g></g></svg>