<?xml version="1.0" encoding="UTF-8" standalone="no"?>
<svg
   xmlns:dc="http://purl.org/dc/elements/1.1/"
   xmlns:cc="http://creativecommons.org/ns#"
   xmlns:rdf="http://www.w3.org/1999/02/22-rdf-syntax-ns#"
   xmlns:svg="http://www.w3.org/2000/svg"
   xmlns="http://www.w3.org/2000/svg"
   viewBox="0 0 560 421.25"
   height="421.25"
   width="560"
   xml:space="preserve"
   version="1.1"
   id="svg2"><metadata
     id="metadata8"><rdf:RDF><cc:Work
         rdf:about=""><dc:format>image/svg+xml</dc:format><dc:type
           rdf:resource="http://purl.org/dc/dcmitype/StillImage" /><dc:title></dc:title></cc:Work></rdf:RDF></metadata><defs
     id="defs6"><clipPath
       id="clipPath18"
       clipPathUnits="userSpaceOnUse"><path
         id="path20"
         d="m 0,9.16797 4480,0 0,3360.83003 -4480,0 L 0,9.16797 Z" /></clipPath><clipPath
       id="clipPath272"
       clipPathUnits="userSpaceOnUse"><path
         id="path274"
         d="m 582.5,378.332 3472.5,0 0,2740 -3472.5,0 0,-2740 z" /></clipPath><clipPath
       id="clipPath344"
       clipPathUnits="userSpaceOnUse"><path
         id="path346"
         d="m 0,9.16797 4480,0 0,3360.83003 -4480,0 L 0,9.16797 Z" /></clipPath></defs><g
     transform="matrix(1.25,0,0,-1.25,0,421.25)"
     id="g10"><g
       transform="scale(0.1,0.1)"
       id="g12"><g
         id="g14"><g
           clip-path="url(#clipPath18)"
           id="g16"><path
             id="path22"
             style="fill:#ffffff;fill-opacity:1;fill-rule:nonzero;stroke:none"
             d="m 0,9 4480,0 0,3361 L 0,3370 0,9 Z" /><path
             id="path24"
             style="fill:#ffffff;fill-opacity:1;fill-rule:evenodd;stroke:none"
             d="m 582.5,379.168 3471.67,0 0,2739.16 -3471.67,0 0,-2739.16 z" /><path
             id="path26"
             style="fill:none;stroke:#ffffff;stroke-width:5;stroke-linecap:butt;stroke-linejoin:round;stroke-miterlimit:10;stroke-dasharray:none;stroke-opacity:1"
             d="m 582.5,379.168 0,2739.162 3471.67,0 0,-2739.162 -3471.67,0" /><path
             id="path28"
             style="fill:none;stroke:#000000;stroke-width:5;stroke-linecap:butt;stroke-linejoin:round;stroke-miterlimit:10;stroke-dasharray:none;stroke-opacity:1"
             d="m 582.5,379.168 3471.67,0" /><path
             id="path30"
             style="fill:none;stroke:#000000;stroke-width:5;stroke-linecap:butt;stroke-linejoin:round;stroke-miterlimit:10;stroke-dasharray:none;stroke-opacity:1"
             d="m 582.5,3118.33 3471.67,0" /><path
             id="path32"
             style="fill:none;stroke:#000000;stroke-width:5;stroke-linecap:butt;stroke-linejoin:round;stroke-miterlimit:10;stroke-dasharray:none;stroke-opacity:1"
             d="m 582.5,379.168 0,2739.162" /><path
             id="path34"
             style="fill:none;stroke:#000000;stroke-width:5;stroke-linecap:butt;stroke-linejoin:round;stroke-miterlimit:10;stroke-dasharray:none;stroke-opacity:1"
             d="m 4054.17,379.168 0,2739.162" /><path
             id="path36"
             style="fill:none;stroke:#000000;stroke-width:5;stroke-linecap:butt;stroke-linejoin:round;stroke-miterlimit:10;stroke-dasharray:none;stroke-opacity:1"
             d="m 582.5,379.168 3471.67,0" /><path
             id="path38"
             style="fill:none;stroke:#000000;stroke-width:5;stroke-linecap:butt;stroke-linejoin:round;stroke-miterlimit:10;stroke-dasharray:none;stroke-opacity:1"
             d="m 582.5,379.168 0,2739.162" /><path
             id="path40"
             style="fill:none;stroke:#000000;stroke-width:5;stroke-linecap:butt;stroke-linejoin:round;stroke-miterlimit:10;stroke-dasharray:none;stroke-opacity:1"
             d="m 582.5,379.168 0,35" /><path
             id="path42"
             style="fill:none;stroke:#000000;stroke-width:5;stroke-linecap:butt;stroke-linejoin:round;stroke-miterlimit:10;stroke-dasharray:none;stroke-opacity:1"
             d="m 582.5,3118.33 0,-34.16" /><g
             transform="scale(10,10)"
             id="g44"><text
               id="text46"
               style="font-variant:normal;font-weight:normal;font-size:10px;font-family:Helvetica;-inkscape-font-specification:Helvetica;writing-mode:lr-tb;fill:#000000;fill-opacity:1;fill-rule:nonzero;stroke:none"
               transform="matrix(1,0,0,-1,55.5,25.8332)"><tspan
                 id="tspan48"
                 y="0"
                 x="0">0</tspan></text>
</g><path
             id="path50"
             style="fill:none;stroke:#000000;stroke-width:5;stroke-linecap:butt;stroke-linejoin:round;stroke-miterlimit:10;stroke-dasharray:none;stroke-opacity:1"
             d="m 929.168,379.168 0,35" /><path
             id="path52"
             style="fill:none;stroke:#000000;stroke-width:5;stroke-linecap:butt;stroke-linejoin:round;stroke-miterlimit:10;stroke-dasharray:none;stroke-opacity:1"
             d="m 929.168,3118.33 0,-34.16" /><g
             transform="scale(10,10)"
             id="g54"><text
               id="text56"
               style="font-variant:normal;font-weight:normal;font-size:10px;font-family:Helvetica;-inkscape-font-specification:Helvetica;writing-mode:lr-tb;fill:#000000;fill-opacity:1;fill-rule:nonzero;stroke:none"
               transform="matrix(1,0,0,-1,86,25.8332)"><tspan
                 id="tspan58"
                 y="0"
                 x="0 5.5599999 8.3400002">0.1</tspan></text>
</g><path
             id="path60"
             style="fill:none;stroke:#000000;stroke-width:5;stroke-linecap:butt;stroke-linejoin:round;stroke-miterlimit:10;stroke-dasharray:none;stroke-opacity:1"
             d="m 1276.67,379.168 0,35" /><path
             id="path62"
             style="fill:none;stroke:#000000;stroke-width:5;stroke-linecap:butt;stroke-linejoin:round;stroke-miterlimit:10;stroke-dasharray:none;stroke-opacity:1"
             d="m 1276.67,3118.33 0,-34.16" /><g
             transform="scale(10,10)"
             id="g64"><text
               id="text66"
               style="font-variant:normal;font-weight:normal;font-size:10px;font-family:Helvetica;-inkscape-font-specification:Helvetica;writing-mode:lr-tb;fill:#000000;fill-opacity:1;fill-rule:nonzero;stroke:none"
               transform="matrix(1,0,0,-1,120.75,25.8332)"><tspan
                 id="tspan68"
                 y="0"
                 x="0 5.5599999 8.3400002">0.2</tspan></text>
</g><path
             id="path70"
             style="fill:none;stroke:#000000;stroke-width:5;stroke-linecap:butt;stroke-linejoin:round;stroke-miterlimit:10;stroke-dasharray:none;stroke-opacity:1"
             d="m 1623.33,379.168 0,35" /><path
             id="path72"
             style="fill:none;stroke:#000000;stroke-width:5;stroke-linecap:butt;stroke-linejoin:round;stroke-miterlimit:10;stroke-dasharray:none;stroke-opacity:1"
             d="m 1623.33,3118.33 0,-34.16" /><g
             transform="scale(10,10)"
             id="g74"><text
               id="text76"
               style="font-variant:normal;font-weight:normal;font-size:10px;font-family:Helvetica;-inkscape-font-specification:Helvetica;writing-mode:lr-tb;fill:#000000;fill-opacity:1;fill-rule:nonzero;stroke:none"
               transform="matrix(1,0,0,-1,155.417,25.8332)"><tspan
                 id="tspan78"
                 y="0"
                 x="0 5.5599999 8.3400002">0.3</tspan></text>
</g><path
             id="path80"
             style="fill:none;stroke:#000000;stroke-width:5;stroke-linecap:butt;stroke-linejoin:round;stroke-miterlimit:10;stroke-dasharray:none;stroke-opacity:1"
             d="m 1970.83,379.168 0,35" /><path
             id="path82"
             style="fill:none;stroke:#000000;stroke-width:5;stroke-linecap:butt;stroke-linejoin:round;stroke-miterlimit:10;stroke-dasharray:none;stroke-opacity:1"
             d="m 1970.83,3118.33 0,-34.16" /><g
             transform="scale(10,10)"
             id="g84"><text
               id="text86"
               style="font-variant:normal;font-weight:normal;font-size:10px;font-family:Helvetica;-inkscape-font-specification:Helvetica;writing-mode:lr-tb;fill:#000000;fill-opacity:1;fill-rule:nonzero;stroke:none"
               transform="matrix(1,0,0,-1,190.167,25.8332)"><tspan
                 id="tspan88"
                 y="0"
                 x="0 5.5599999 8.3400002">0.4</tspan></text>
</g><path
             id="path90"
             style="fill:none;stroke:#000000;stroke-width:5;stroke-linecap:butt;stroke-linejoin:round;stroke-miterlimit:10;stroke-dasharray:none;stroke-opacity:1"
             d="m 2318.33,379.168 0,35" /><path
             id="path92"
             style="fill:none;stroke:#000000;stroke-width:5;stroke-linecap:butt;stroke-linejoin:round;stroke-miterlimit:10;stroke-dasharray:none;stroke-opacity:1"
             d="m 2318.33,3118.33 0,-34.16" /><g
             transform="scale(10,10)"
             id="g94"><text
               id="text96"
               style="font-variant:normal;font-weight:normal;font-size:10px;font-family:Helvetica;-inkscape-font-specification:Helvetica;writing-mode:lr-tb;fill:#000000;fill-opacity:1;fill-rule:nonzero;stroke:none"
               transform="matrix(1,0,0,-1,224.917,25.8332)"><tspan
                 id="tspan98"
                 y="0"
                 x="0 5.5599999 8.3400002">0.5</tspan></text>
</g><path
             id="path100"
             style="fill:none;stroke:#000000;stroke-width:5;stroke-linecap:butt;stroke-linejoin:round;stroke-miterlimit:10;stroke-dasharray:none;stroke-opacity:1"
             d="m 2665,379.168 0,35" /><path
             id="path102"
             style="fill:none;stroke:#000000;stroke-width:5;stroke-linecap:butt;stroke-linejoin:round;stroke-miterlimit:10;stroke-dasharray:none;stroke-opacity:1"
             d="m 2665,3118.33 0,-34.16" /><g
             transform="scale(10,10)"
             id="g104"><text
               id="text106"
               style="font-variant:normal;font-weight:normal;font-size:10px;font-family:Helvetica;-inkscape-font-specification:Helvetica;writing-mode:lr-tb;fill:#000000;fill-opacity:1;fill-rule:nonzero;stroke:none"
               transform="matrix(1,0,0,-1,259.583,25.8332)"><tspan
                 id="tspan108"
                 y="0"
                 x="0 5.5599999 8.3400002">0.6</tspan></text>
</g><path
             id="path110"
             style="fill:none;stroke:#000000;stroke-width:5;stroke-linecap:butt;stroke-linejoin:round;stroke-miterlimit:10;stroke-dasharray:none;stroke-opacity:1"
             d="m 3012.5,379.168 0,35" /><path
             id="path112"
             style="fill:none;stroke:#000000;stroke-width:5;stroke-linecap:butt;stroke-linejoin:round;stroke-miterlimit:10;stroke-dasharray:none;stroke-opacity:1"
             d="m 3012.5,3118.33 0,-34.16" /><g
             transform="scale(10,10)"
             id="g114"><text
               id="text116"
               style="font-variant:normal;font-weight:normal;font-size:10px;font-family:Helvetica;-inkscape-font-specification:Helvetica;writing-mode:lr-tb;fill:#000000;fill-opacity:1;fill-rule:nonzero;stroke:none"
               transform="matrix(1,0,0,-1,294.333,25.8332)"><tspan
                 id="tspan118"
                 y="0"
                 x="0 5.5599999 8.3400002">0.7</tspan></text>
</g><path
             id="path120"
             style="fill:none;stroke:#000000;stroke-width:5;stroke-linecap:butt;stroke-linejoin:round;stroke-miterlimit:10;stroke-dasharray:none;stroke-opacity:1"
             d="m 3359.17,379.168 0,35" /><path
             id="path122"
             style="fill:none;stroke:#000000;stroke-width:5;stroke-linecap:butt;stroke-linejoin:round;stroke-miterlimit:10;stroke-dasharray:none;stroke-opacity:1"
             d="m 3359.17,3118.33 0,-34.16" /><g
             transform="scale(10,10)"
             id="g124"><text
               id="text126"
               style="font-variant:normal;font-weight:normal;font-size:10px;font-family:Helvetica;-inkscape-font-specification:Helvetica;writing-mode:lr-tb;fill:#000000;fill-opacity:1;fill-rule:nonzero;stroke:none"
               transform="matrix(1,0,0,-1,329,25.8332)"><tspan
                 id="tspan128"
                 y="0"
                 x="0 5.5599999 8.3400002">0.8</tspan></text>
</g><path
             id="path130"
             style="fill:none;stroke:#000000;stroke-width:5;stroke-linecap:butt;stroke-linejoin:round;stroke-miterlimit:10;stroke-dasharray:none;stroke-opacity:1"
             d="m 3706.67,379.168 0,35" /><path
             id="path132"
             style="fill:none;stroke:#000000;stroke-width:5;stroke-linecap:butt;stroke-linejoin:round;stroke-miterlimit:10;stroke-dasharray:none;stroke-opacity:1"
             d="m 3706.67,3118.33 0,-34.16" /><g
             transform="scale(10,10)"
             id="g134"><text
               id="text136"
               style="font-variant:normal;font-weight:normal;font-size:10px;font-family:Helvetica;-inkscape-font-specification:Helvetica;writing-mode:lr-tb;fill:#000000;fill-opacity:1;fill-rule:nonzero;stroke:none"
               transform="matrix(1,0,0,-1,363.75,25.8332)"><tspan
                 id="tspan138"
                 y="0"
                 x="0 5.5599999 8.3400002">0.9</tspan></text>
</g><path
             id="path140"
             style="fill:none;stroke:#000000;stroke-width:5;stroke-linecap:butt;stroke-linejoin:round;stroke-miterlimit:10;stroke-dasharray:none;stroke-opacity:1"
             d="m 4054.17,379.168 0,35" /><path
             id="path142"
             style="fill:none;stroke:#000000;stroke-width:5;stroke-linecap:butt;stroke-linejoin:round;stroke-miterlimit:10;stroke-dasharray:none;stroke-opacity:1"
             d="m 4054.17,3118.33 0,-34.16" /><g
             transform="scale(10,10)"
             id="g144"><text
               id="text146"
               style="font-variant:normal;font-weight:normal;font-size:10px;font-family:Helvetica;-inkscape-font-specification:Helvetica;writing-mode:lr-tb;fill:#000000;fill-opacity:1;fill-rule:nonzero;stroke:none"
               transform="matrix(1,0,0,-1,402.667,25.8332)"><tspan
                 id="tspan148"
                 y="0"
                 x="0">1</tspan></text>
</g><path
             id="path150"
             style="fill:none;stroke:#000000;stroke-width:5;stroke-linecap:butt;stroke-linejoin:round;stroke-miterlimit:10;stroke-dasharray:none;stroke-opacity:1"
             d="m 582.5,379.168 34.168,0" /><path
             id="path152"
             style="fill:none;stroke:#000000;stroke-width:5;stroke-linecap:butt;stroke-linejoin:round;stroke-miterlimit:10;stroke-dasharray:none;stroke-opacity:1"
             d="m 4054.17,379.168 -35,0" /><g
             transform="scale(10,10)"
             id="g154"><text
               id="text156"
               style="font-variant:normal;font-weight:normal;font-size:10px;font-family:Helvetica;-inkscape-font-specification:Helvetica;writing-mode:lr-tb;fill:#000000;fill-opacity:1;fill-rule:nonzero;stroke:none"
               transform="matrix(1,0,0,-1,41.5,34.25)"><tspan
                 id="tspan158"
                 y="0"
                 x="0 5.5599999 8.3400002">0.5</tspan></text>
</g><path
             id="path160"
             style="fill:none;stroke:#000000;stroke-width:5;stroke-linecap:butt;stroke-linejoin:round;stroke-miterlimit:10;stroke-dasharray:none;stroke-opacity:1"
             d="m 582.5,653.332 34.168,0" /><path
             id="path162"
             style="fill:none;stroke:#000000;stroke-width:5;stroke-linecap:butt;stroke-linejoin:round;stroke-miterlimit:10;stroke-dasharray:none;stroke-opacity:1"
             d="m 4054.17,653.332 -35,0" /><g
             transform="scale(10,10)"
             id="g164"><text
               id="text166"
               style="font-variant:normal;font-weight:normal;font-size:10px;font-family:Helvetica;-inkscape-font-specification:Helvetica;writing-mode:lr-tb;fill:#000000;fill-opacity:1;fill-rule:nonzero;stroke:none"
               transform="matrix(1,0,0,-1,35.9168,61.6668)"><tspan
                 id="tspan168"
                 y="0"
                 x="0 5.5599999 8.3400002 13.9">0.55</tspan></text>
</g><path
             id="path170"
             style="fill:none;stroke:#000000;stroke-width:5;stroke-linecap:butt;stroke-linejoin:round;stroke-miterlimit:10;stroke-dasharray:none;stroke-opacity:1"
             d="m 582.5,927.5 34.168,0" /><path
             id="path172"
             style="fill:none;stroke:#000000;stroke-width:5;stroke-linecap:butt;stroke-linejoin:round;stroke-miterlimit:10;stroke-dasharray:none;stroke-opacity:1"
             d="m 4054.17,927.5 -35,0" /><g
             transform="scale(10,10)"
             id="g174"><text
               id="text176"
               style="font-variant:normal;font-weight:normal;font-size:10px;font-family:Helvetica;-inkscape-font-specification:Helvetica;writing-mode:lr-tb;fill:#000000;fill-opacity:1;fill-rule:nonzero;stroke:none"
               transform="matrix(1,0,0,-1,41.5,89.0832)"><tspan
                 id="tspan178"
                 y="0"
                 x="0 5.5599999 8.3400002">0.6</tspan></text>
</g><path
             id="path180"
             style="fill:none;stroke:#000000;stroke-width:5;stroke-linecap:butt;stroke-linejoin:round;stroke-miterlimit:10;stroke-dasharray:none;stroke-opacity:1"
             d="m 582.5,1201.67 34.168,0" /><path
             id="path182"
             style="fill:none;stroke:#000000;stroke-width:5;stroke-linecap:butt;stroke-linejoin:round;stroke-miterlimit:10;stroke-dasharray:none;stroke-opacity:1"
             d="m 4054.17,1201.67 -35,0" /><g
             transform="scale(10,10)"
             id="g184"><text
               id="text186"
               style="font-variant:normal;font-weight:normal;font-size:10px;font-family:Helvetica;-inkscape-font-specification:Helvetica;writing-mode:lr-tb;fill:#000000;fill-opacity:1;fill-rule:nonzero;stroke:none"
               transform="matrix(1,0,0,-1,35.9168,116.5)"><tspan
                 id="tspan188"
                 y="0"
                 x="0 5.5599999 8.3400002 13.9">0.65</tspan></text>
</g><path
             id="path190"
             style="fill:none;stroke:#000000;stroke-width:5;stroke-linecap:butt;stroke-linejoin:round;stroke-miterlimit:10;stroke-dasharray:none;stroke-opacity:1"
             d="m 582.5,1475 34.168,0" /><path
             id="path192"
             style="fill:none;stroke:#000000;stroke-width:5;stroke-linecap:butt;stroke-linejoin:round;stroke-miterlimit:10;stroke-dasharray:none;stroke-opacity:1"
             d="m 4054.17,1475 -35,0" /><g
             transform="scale(10,10)"
             id="g194"><text
               id="text196"
               style="font-variant:normal;font-weight:normal;font-size:10px;font-family:Helvetica;-inkscape-font-specification:Helvetica;writing-mode:lr-tb;fill:#000000;fill-opacity:1;fill-rule:nonzero;stroke:none"
               transform="matrix(1,0,0,-1,41.5,143.833)"><tspan
                 id="tspan198"
                 y="0"
                 x="0 5.5599999 8.3400002">0.7</tspan></text>
</g><path
             id="path200"
             style="fill:none;stroke:#000000;stroke-width:5;stroke-linecap:butt;stroke-linejoin:round;stroke-miterlimit:10;stroke-dasharray:none;stroke-opacity:1"
             d="m 582.5,1749.17 34.168,0" /><path
             id="path202"
             style="fill:none;stroke:#000000;stroke-width:5;stroke-linecap:butt;stroke-linejoin:round;stroke-miterlimit:10;stroke-dasharray:none;stroke-opacity:1"
             d="m 4054.17,1749.17 -35,0" /><g
             transform="scale(10,10)"
             id="g204"><text
               id="text206"
               style="font-variant:normal;font-weight:normal;font-size:10px;font-family:Helvetica;-inkscape-font-specification:Helvetica;writing-mode:lr-tb;fill:#000000;fill-opacity:1;fill-rule:nonzero;stroke:none"
               transform="matrix(1,0,0,-1,35.9168,171.25)"><tspan
                 id="tspan208"
                 y="0"
                 x="0 5.5599999 8.3400002 13.9">0.75</tspan></text>
</g><path
             id="path210"
             style="fill:none;stroke:#000000;stroke-width:5;stroke-linecap:butt;stroke-linejoin:round;stroke-miterlimit:10;stroke-dasharray:none;stroke-opacity:1"
             d="m 582.5,2023.33 34.168,0" /><path
             id="path212"
             style="fill:none;stroke:#000000;stroke-width:5;stroke-linecap:butt;stroke-linejoin:round;stroke-miterlimit:10;stroke-dasharray:none;stroke-opacity:1"
             d="m 4054.17,2023.33 -35,0" /><g
             transform="scale(10,10)"
             id="g214"><text
               id="text216"
               style="font-variant:normal;font-weight:normal;font-size:10px;font-family:Helvetica;-inkscape-font-specification:Helvetica;writing-mode:lr-tb;fill:#000000;fill-opacity:1;fill-rule:nonzero;stroke:none"
               transform="matrix(1,0,0,-1,41.5,198.667)"><tspan
                 id="tspan218"
                 y="0"
                 x="0 5.5599999 8.3400002">0.8</tspan></text>
</g><path
             id="path220"
             style="fill:none;stroke:#000000;stroke-width:5;stroke-linecap:butt;stroke-linejoin:round;stroke-miterlimit:10;stroke-dasharray:none;stroke-opacity:1"
             d="m 582.5,2296.67 34.168,0" /><path
             id="path222"
             style="fill:none;stroke:#000000;stroke-width:5;stroke-linecap:butt;stroke-linejoin:round;stroke-miterlimit:10;stroke-dasharray:none;stroke-opacity:1"
             d="m 4054.17,2296.67 -35,0" /><g
             transform="scale(10,10)"
             id="g224"><text
               id="text226"
               style="font-variant:normal;font-weight:normal;font-size:10px;font-family:Helvetica;-inkscape-font-specification:Helvetica;writing-mode:lr-tb;fill:#000000;fill-opacity:1;fill-rule:nonzero;stroke:none"
               transform="matrix(1,0,0,-1,35.9168,226)"><tspan
                 id="tspan228"
                 y="0"
                 x="0 5.5599999 8.3400002 13.9">0.85</tspan></text>
</g><path
             id="path230"
             style="fill:none;stroke:#000000;stroke-width:5;stroke-linecap:butt;stroke-linejoin:round;stroke-miterlimit:10;stroke-dasharray:none;stroke-opacity:1"
             d="m 582.5,2570.83 34.168,0" /><path
             id="path232"
             style="fill:none;stroke:#000000;stroke-width:5;stroke-linecap:butt;stroke-linejoin:round;stroke-miterlimit:10;stroke-dasharray:none;stroke-opacity:1"
             d="m 4054.17,2570.83 -35,0" /><g
             transform="scale(10,10)"
             id="g234"><text
               id="text236"
               style="font-variant:normal;font-weight:normal;font-size:10px;font-family:Helvetica;-inkscape-font-specification:Helvetica;writing-mode:lr-tb;fill:#000000;fill-opacity:1;fill-rule:nonzero;stroke:none"
               transform="matrix(1,0,0,-1,41.5,253.417)"><tspan
                 id="tspan238"
                 y="0"
                 x="0 5.5599999 8.3400002">0.9</tspan></text>
</g><path
             id="path240"
             style="fill:none;stroke:#000000;stroke-width:5;stroke-linecap:butt;stroke-linejoin:round;stroke-miterlimit:10;stroke-dasharray:none;stroke-opacity:1"
             d="m 582.5,2845 34.168,0" /><path
             id="path242"
             style="fill:none;stroke:#000000;stroke-width:5;stroke-linecap:butt;stroke-linejoin:round;stroke-miterlimit:10;stroke-dasharray:none;stroke-opacity:1"
             d="m 4054.17,2845 -35,0" /><g
             transform="scale(10,10)"
             id="g244"><text
               id="text246"
               style="font-variant:normal;font-weight:normal;font-size:10px;font-family:Helvetica;-inkscape-font-specification:Helvetica;writing-mode:lr-tb;fill:#000000;fill-opacity:1;fill-rule:nonzero;stroke:none"
               transform="matrix(1,0,0,-1,35.9168,280.833)"><tspan
                 id="tspan248"
                 y="0"
                 x="0 5.5599999 8.3400002 13.9">0.95</tspan></text>
</g><path
             id="path250"
             style="fill:none;stroke:#000000;stroke-width:5;stroke-linecap:butt;stroke-linejoin:round;stroke-miterlimit:10;stroke-dasharray:none;stroke-opacity:1"
             d="m 582.5,3118.33 34.168,0" /><path
             id="path252"
             style="fill:none;stroke:#000000;stroke-width:5;stroke-linecap:butt;stroke-linejoin:round;stroke-miterlimit:10;stroke-dasharray:none;stroke-opacity:1"
             d="m 4054.17,3118.33 -35,0" /><g
             transform="scale(10,10)"
             id="g254"><text
               id="text256"
               style="font-variant:normal;font-weight:normal;font-size:10px;font-family:Helvetica;-inkscape-font-specification:Helvetica;writing-mode:lr-tb;fill:#000000;fill-opacity:1;fill-rule:nonzero;stroke:none"
               transform="matrix(1,0,0,-1,49.8332,308.167)"><tspan
                 id="tspan258"
                 y="0"
                 x="0">1</tspan></text>
</g><path
             id="path260"
             style="fill:none;stroke:#000000;stroke-width:5;stroke-linecap:butt;stroke-linejoin:round;stroke-miterlimit:10;stroke-dasharray:none;stroke-opacity:1"
             d="m 582.5,379.168 3471.67,0" /><path
             id="path262"
             style="fill:none;stroke:#000000;stroke-width:5;stroke-linecap:butt;stroke-linejoin:round;stroke-miterlimit:10;stroke-dasharray:none;stroke-opacity:1"
             d="m 582.5,3118.33 3471.67,0" /><path
             id="path264"
             style="fill:none;stroke:#000000;stroke-width:5;stroke-linecap:butt;stroke-linejoin:round;stroke-miterlimit:10;stroke-dasharray:none;stroke-opacity:1"
             d="m 582.5,379.168 0,2739.162" /><path
             id="path266"
             style="fill:none;stroke:#000000;stroke-width:5;stroke-linecap:butt;stroke-linejoin:round;stroke-miterlimit:10;stroke-dasharray:none;stroke-opacity:1"
             d="m 4054.17,379.168 0,2739.162" /></g></g><g
         id="g268"><g
           clip-path="url(#clipPath272)"
           id="g270"><path
             id="path276"
             style="fill:none;stroke:#c82d2b;stroke-width:25;stroke-linecap:butt;stroke-linejoin:round;stroke-miterlimit:10;stroke-dasharray:128, 48;stroke-dashoffset:0;stroke-opacity:1"
             d="m 874.168,3118.33 -290.836,0" /><path
             id="path278"
             style="fill:none;stroke:#c82d2b;stroke-width:25;stroke-linecap:butt;stroke-linejoin:round;stroke-miterlimit:10;stroke-dasharray:128, 48;stroke-dashoffset:0;stroke-opacity:1"
             d="m 1165,3118.33 -290.832,0" /><path
             id="path280"
             style="fill:none;stroke:#c82d2b;stroke-width:25;stroke-linecap:butt;stroke-linejoin:round;stroke-miterlimit:10;stroke-dasharray:128, 48;stroke-dashoffset:0;stroke-opacity:1"
             d="m 1455,3118.33 -290,0" /><path
             id="path282"
             style="fill:none;stroke:#c82d2b;stroke-width:25;stroke-linecap:butt;stroke-linejoin:round;stroke-miterlimit:10;stroke-dasharray:128, 48;stroke-dashoffset:0;stroke-opacity:1"
             d="m 1745.83,3118.33 -290.83,0" /><path
             id="path284"
             style="fill:none;stroke:#c82d2b;stroke-width:25;stroke-linecap:butt;stroke-linejoin:round;stroke-miterlimit:10;stroke-dasharray:128, 48;stroke-dashoffset:0;stroke-opacity:1"
             d="m 2036.67,3118.33 -290.84,0" /><path
             id="path286"
             style="fill:none;stroke:#c82d2b;stroke-width:25;stroke-linecap:butt;stroke-linejoin:round;stroke-miterlimit:10;stroke-dasharray:128, 48;stroke-dashoffset:0;stroke-opacity:1"
             d="m 2327.5,3118.33 -290.83,0" /><path
             id="path288"
             style="fill:none;stroke:#c82d2b;stroke-width:25;stroke-linecap:butt;stroke-linejoin:round;stroke-miterlimit:10;stroke-dasharray:128, 48;stroke-dashoffset:0;stroke-opacity:1"
             d="m 2618.33,3115.83 -4.16,0 -0.84,2.5 -285.83,0" /><path
             id="path290"
             style="fill:none;stroke:#c82d2b;stroke-width:25;stroke-linecap:butt;stroke-linejoin:round;stroke-miterlimit:10;stroke-dasharray:128, 48;stroke-dashoffset:0;stroke-opacity:1"
             d="m 2890.83,2988.33 -2.5,0 0,1.67 -0.83,2.5 -0.83,2.5 -1.67,0 -0.83,1.67 -0.84,2.5 -0.83,2.5 -0.83,2.5 0,1.66 -0.84,0 -0.83,2.5 -0.83,0 -0.84,2.5 -0.83,-0.83 -0.83,2.5 -5,0 -0.84,2.5 -0.83,1.67 0,2.5 -1.67,0 0,2.5 -0.83,1.66 -10.83,0 -0.84,2.5 -0.83,1.67 0,2.5 -1.67,0 0,2.5 -3.33,0 -0.83,2.5 -0.84,-0.83 -2.5,0 -0.83,2.5 -3.33,0 -0.84,2.5 -0.83,0 0,2.5 -1.67,-0.84 0,2.5 -2.5,0 -0.83,2.5 0,2.5 -0.83,2.5 -0.84,0 -0.83,1.67 -9.17,0 0,2.5 -0.83,2.5 -0.83,0 -0.84,1.67 -5,0 -0.83,2.5 0,2.5 -7.5,0 0,2.5 -0.83,1.66 -0.84,2.5 -4.16,0 0,2.5 -0.84,2.5 -0.83,0 -0.83,2.5 -0.84,1.67 -8.33,0 -0.83,2.5 -0.84,2.5 -4.16,0 0,2.5 -4.17,0 -0.83,2.5 -3.34,0 -0.83,1.67 -5.83,0 -0.84,2.5 -0.83,0 -0.83,2.5 -2.5,0 -0.84,2.5 -6.66,0 -0.84,2.5 -4.16,0 0,2.5 -0.84,2.5 -1.66,0 -0.84,2.5 -7.5,0 -0.83,2.5 -27.5,0 -0.83,-0.84 -3.34,0 0,2.5 -73.33,0 -0.83,2.5 -15.84,0" /><path
             id="path292"
             style="fill:none;stroke:#c82d2b;stroke-width:25;stroke-linecap:butt;stroke-linejoin:round;stroke-miterlimit:10;stroke-dasharray:128, 48;stroke-dashoffset:0;stroke-opacity:1"
             d="m 3130.83,2573.33 -0.83,0 -0.83,1.67 -0.84,1.67 -1.66,0 -0.84,1.66 0,1.67 -0.83,2.5 -0.83,1.67 -0.84,1.66 -0.83,0 -0.83,1.67 -1.67,0 -0.83,1.67 -0.84,0 -0.83,1.66 -0.83,1.67 -0.84,1.67 -0.83,2.5 -0.83,-0.84 -0.84,2.5 -0.83,1.67 -0.83,1.67 0,1.66 -0.84,1.67 -0.83,2.5 -1.67,-0.83 0,2.5 -0.83,1.66 -0.83,1.67 -0.84,1.67 -0.83,2.5 -0.83,1.66 -0.84,1.67 -0.83,1.67 -0.83,2.5 -0.84,-0.84 -0.83,2.5 -0.83,-0.83 -0.84,2.5 -0.83,1.67 -0.83,1.66 -0.84,2.5 -0.83,1.67 -0.83,1.67 0,1.66 -0.84,2.5 -1.66,-0.83 -0.84,0 -0.83,1.67 -0.83,2.5 -0.84,1.66 0,1.67 -0.83,2.5 -0.83,1.67 -0.84,1.66 -2.5,0 -0.83,1.67 0,1.67 -0.83,2.5 -1.67,-0.84 0,2.5 -1.67,-0.83 -0.83,2.5 -0.83,-0.83 -0.84,2.5 -0.83,1.66 -0.83,1.67 0,2.5 -0.84,1.67 -0.83,1.66 -0.83,2.5 -0.84,1.67 -0.83,1.67 -0.83,0 -0.84,1.66 -0.83,2.5 -0.83,1.67 -0.84,1.67 -0.83,0 -0.83,1.66 -0.84,2.5 -0.83,-0.83 -0.83,2.5 -0.84,1.67 -0.83,1.66 0,2.5 -0.83,1.67 -1.67,0 0,1.67 -0.83,2.5 -0.84,1.66 -0.83,1.67 -0.83,2.5 -0.84,-0.83 -2.5,0 -0.83,1.66 0,2.5 -0.83,1.67 -0.84,1.67 -2.5,0 -0.83,1.66 0,2.5 -1.67,0 0,1.67 -0.83,1.67 -1.67,0 0,1.66 -0.83,2.5 -1.67,0 0,1.67 -0.83,1.67 -1.67,0 0,2.5 -0.83,1.66 -0.83,1.67 -0.84,2.5 -0.83,0 -0.83,-0.83 -1.67,0 -0.83,2.5 0,1.66 -0.84,1.67 -0.83,2.5 -0.83,0 -1.67,-0.83 -0.83,0 -0.84,2.5 -0.83,1.66 0,1.67 -0.83,2.5 -0.84,1.67 -0.83,0 -0.83,1.66 -0.84,2.5 -0.83,1.67 -0.83,2.5 -0.84,1.67 -0.83,1.66 0,2.5 -0.83,1.67 -0.84,2.5 -0.83,1.67 -0.83,2.5 -0.84,1.66 0,1.67 -1.66,0 -0.84,2.5 0,1.67 -0.83,2.5 -0.83,-0.84 -0.84,2.5 -0.83,1.67 -0.83,2.5 -0.84,1.67 -0.83,0 -0.83,1.66 -1.67,0 -0.83,2.5 -0.84,1.67 -0.83,1.67 -0.83,0 -0.84,2.5 -0.83,1.66 -0.83,2.5 -0.84,1.67 0,2.5 -0.83,1.67 -0.83,1.66 -0.84,2.5 -0.83,1.67 -0.83,0 -0.84,2.5 -0.83,1.67 0,2.5 -1.67,0 -0.83,1.66 0,2.5 -1.67,-0.83 -1.66,0 -0.84,2.5 -0.83,1.67 -0.83,2.5 0,1.66 -0.84,2.5 -0.83,1.67 -0.83,0 -0.84,1.67 -1.66,0 -0.84,2.5 -0.83,1.66 -0.83,2.5 -0.84,0 -0.83,-0.83 -0.83,2.5 -0.84,1.67 -0.83,0 -0.83,2.5 -0.84,1.66 -0.83,2.5 -0.83,0 -0.84,1.67 -0.83,2.5 0,1.67 -1.67,0 0,2.5 -0.83,1.66 -0.83,2.5 -0.84,0 -0.83,1.67 -0.83,2.5 -0.84,0 -0.83,1.67 -0.83,2.5 -0.84,0 -0.83,-0.84 -2.5,0 0,2.5 -0.83,1.67 -0.84,2.5 -0.83,1.67 -0.83,2.5 -0.84,2.5 -0.83,-0.84 -0.83,0 -0.84,2.5 -1.66,0 -0.84,1.67 -1.66,0 -0.84,2.5 -0.83,0 -0.83,1.67 -0.84,0 -0.83,2.5 -0.83,-0.84 -1.67,0 0,2.5 -0.83,2.5 -0.84,1.67 -0.83,2.5 -0.83,1.67 -0.84,0 -0.83,2.5 -0.83,0 -0.84,1.66 -0.83,0 -0.83,2.5 0,1.67 -0.84,2.5 -0.83,2.5 -0.83,1.67 -0.84,2.5 -0.83,1.66 -0.83,0 -0.84,2.5 0,2.5 -0.83,1.67 -0.83,0 -0.84,2.5 -0.83,0 -0.83,1.67 -0.84,0 -0.83,2.5 -3.33,0 0,1.66 -0.84,2.5 -0.83,2.5 -0.83,-0.83 -0.84,2.5 -0.83,2.5 -0.83,0 -0.84,1.67 -0.83,2.5 0,2.5 -0.83,1.66 -2.5,0 0,2.5 -1.67,0 0,1.67 -0.83,2.5 -0.84,2.5 -0.83,0 -0.83,1.67 -0.84,2.5 -0.83,2.5 0,1.66 -0.83,2.5 -0.84,0" /><path
             id="path294"
             style="fill:none;stroke:#c82d2b;stroke-width:25;stroke-linecap:butt;stroke-linejoin:round;stroke-miterlimit:10;stroke-dasharray:128, 48;stroke-dashoffset:0;stroke-opacity:1"
             d="m 3391.67,2142.5 -0.84,1.67 -0.83,1.66 -0.83,0.84 -0.84,1.66 -0.83,1.67 -0.83,1.67 -0.84,1.66 -1.66,0.84 -0.84,1.66 -0.83,1.67 -0.83,1.67 -0.84,1.66 -0.83,1.67 -0.83,0.83 -1.67,0 -0.83,1.67 -0.84,1.67 -0.83,1.66 -0.83,-0.83 -0.84,1.67 -0.83,1.66 -1.67,1.67 -0.83,0.83 -0.83,1.67 -0.84,1.67 -0.83,1.66 -0.83,1.67 -0.84,1.67 -0.83,0.83 -0.83,1.67 -0.84,1.66 -0.83,1.67 -1.67,1.67 -0.83,1.66 -0.83,1.67 -0.84,0.83 -0.83,1.67 -0.83,1.67 -0.84,1.66 -0.83,0 -0.83,0.84 -1.67,1.66 -0.83,1.67 -0.84,1.67 -0.83,1.66 -0.83,1.67 -0.84,1.67 -0.83,0.83 -0.83,1.67 -0.84,1.66 -0.83,1.67 -0.83,1.67 -1.67,0 -0.83,0.83 -0.84,1.67 -0.83,1.66 -0.83,1.67 -0.84,1.67 -0.83,1.66 -0.83,1.67 -0.84,1.67 -0.83,0.83 -0.83,1.67 -0.84,1.66 -1.66,1.67 -0.84,1.67 -0.83,1.66 -0.83,1.67 -0.84,1.67 -0.83,-0.84 -0.83,1.67 -0.84,1.67 -0.83,1.66 -0.83,1.67 -0.84,1.67 -0.83,1.66 -1.67,0.84 -0.83,1.66 -0.83,1.67 -0.84,1.67 -0.83,1.66 -0.83,1.67 -0.84,0 -0.83,1.67 -0.83,0.83 -0.84,1.67 -0.83,1.66 -0.83,1.67 -0.84,1.67 -1.66,0 -0.84,1.66 -0.83,1.67 -0.83,-0.83 -0.84,1.66 -0.83,1.67 -0.83,1.67 -0.84,1.66 -0.83,1.67 -1.67,-0.83 -0.83,1.66 -0.83,1.67 -0.84,1.67 -0.83,1.66 -0.83,1.67 -0.84,1.67 -0.83,0 -0.83,1.66 -0.84,1.67 -1.66,-0.83 -0.84,1.66 -0.83,1.67 -0.83,1.67 -0.84,1.66 -0.83,1.67 -0.83,1.67 -0.84,1.66 -0.83,1.67 -0.83,1.67 -0.84,1.66 -0.83,1.67 -0.83,1.67 -0.84,1.66 -0.83,0.84 -0.83,1.66 -0.84,1.67 -0.83,1.67 -0.83,1.66 -0.84,1.67 -0.83,1.67 -1.67,0 -0.83,1.66 -0.83,1.67 -0.84,1.67 -0.83,1.66 -0.83,1.67 -0.84,1.67 -0.83,1.66 -0.83,1.67 -0.84,1.67 -0.83,1.66 -0.83,-0.83 -0.84,1.67 -0.83,1.66 -0.83,1.67 -0.84,1.67 -0.83,1.66 -0.83,1.67 -0.84,1.67 -0.83,1.66 -1.67,0 -0.83,1.67 -0.83,1.67 -0.84,1.66 -0.83,1.67 -0.83,1.67 -0.84,1.66 -0.83,1.67 -0.83,1.67 -0.84,1.66 -0.83,1.67 -0.83,0 -0.84,1.67 -0.83,1.66 -0.83,1.67 -0.84,1.67 -0.83,1.66 -0.83,1.67 -0.84,1.67 -0.83,1.66 -0.83,1.67 -0.84,-0.83 -0.83,1.66 -0.83,1.67 -0.84,1.67 -1.66,0 -0.84,1.66 -0.83,1.67 -0.83,1.67 -0.84,1.66 -0.83,1.67 -0.83,1.67 -0.84,1.66 -0.83,1.67 -0.83,1.67 -0.84,1.66 -0.83,1.67 -0.83,1.67 -0.84,0 -0.83,1.66 -0.83,1.67 -0.84,1.67 -0.83,1.66 -0.83,1.67 -0.84,1.67 -0.83,1.66 -0.83,2.5 -0.84,1.67 -0.83,1.67 -0.83,1.66 -0.84,1.67 -0.83,1.67 -0.83,1.66 -0.84,1.67 -0.83,1.67 -0.83,1.66 -0.84,1.67 -0.83,1.67 -0.83,1.66 0,1.67 -1.67,0 -0.83,1.67 -0.84,1.66 -0.83,1.67 -0.83,1.67 -0.84,1.66 -0.83,2.5 -0.83,1.67 -0.84,1.67 -0.83,1.66 0,1.67 -1.67,0 -0.83,-0.83 -0.83,1.66 -0.84,1.67 -0.83,2.5 -0.83,1.67 -0.84,-0.84 -0.83,1.67 -0.83,0 -0.84,1.67 -0.83,1.66 -1.67,0 -0.83,1.67 -0.83,1.67 -0.84,1.66 -0.83,2.5 0,1.67 -0.83,1.67 -0.84,1.66 -0.83,1.67 -0.83,1.67 -0.84,1.66 -0.83,1.67 -1.67,0 0,1.67 -0.83,1.66 -1.67,0 -0.83,1.67 -0.83,1.67 -0.84,1.66 -0.83,0 -0.83,1.67 -0.84,1.67 -0.83,2.5 -0.83,-0.84 -0.84,1.67 -0.83,2.5 -0.83,1.67 -0.84,1.66 -0.83,1.67 -0.83,1.67 -1.67,0 -0.83,1.66 -0.84,1.67 -0.83,1.67 -0.83,1.66 -0.84,1.67 -0.83,1.67 -0.83,2.5 -0.84,1.66 -0.83,1.67 -0.83,1.67 -0.84,1.66 -0.83,1.67 0,2.5 -0.83,1.67 -0.84,1.66 -0.83,1.67 -0.83,1.67 -0.84,1.66 -0.83,2.5 -0.83,1.67 -0.84,0 -0.83,1.67 -0.83,1.66 -0.84,1.67 -0.83,0 -0.83,1.67 -0.84,1.66 -0.83,1.67 -0.83,2.5 -0.84,1.67 -0.83,1.66 -0.83,1.67 -0.84,0 -0.83,1.67 -0.83,0 -0.84,1.66" /><path
             id="path296"
             style="fill:none;stroke:#c82d2b;stroke-width:25;stroke-linecap:butt;stroke-linejoin:round;stroke-miterlimit:10;stroke-dasharray:128, 48;stroke-dashoffset:0;stroke-opacity:1"
             d="m 3701.67,1768.33 -1.67,0.84 -0.83,1.66 -0.84,0.84 -1.66,1.66 -0.84,1.67 -0.83,0.83 -1.67,1.67 -0.83,0.83 -0.83,1.67 -1.67,0.83 -0.83,1.67 -1.67,0.83 -0.83,1.67 -0.84,0.83 -1.66,1.67 -0.84,0.83 -0.83,1.67 -1.67,0.83 -0.83,1.67 -0.83,0.83 -1.67,1.67 -0.83,0.83 -0.84,1.67 -1.66,0.83 -0.84,1.67 -0.83,0.83 -1.67,1.67 -0.83,0.83 -0.83,1.67 -1.67,1.67 -0.83,0.83 -0.84,1.67 -1.66,0.83 -0.84,1.67 -0.83,0.83 -1.67,1.67 -0.83,0.83 -0.83,1.67 -0.84,0.83 -1.66,1.67 -0.84,0.83 -0.83,1.67 -1.67,1.66 -0.83,0.84 -0.83,1.66 -1.67,0.84 -0.83,1.66 -0.84,0.84 -1.66,1.66 -0.84,0.84 -0.83,1.66 -1.67,-0.83 -0.83,1.67 -0.83,1.66 -1.67,0.84 -0.83,1.66 -0.84,0.84 -1.66,1.66 -0.84,0.84 -0.83,1.66 -0.83,1.67 -1.67,0.83 -0.83,1.67 -0.84,0.83 -1.66,1.67 -0.84,0.83 -0.83,1.67 -1.67,0.83 -0.83,1.67 -0.83,1.67 -0.84,0.83 -1.66,1.67 -0.84,-0.84 -0.83,1.67 -1.67,0.83 -0.83,1.67 -0.83,1.67 -1.67,0.83 -0.83,1.67 -0.84,0.83 -0.83,1.67 -1.67,0.83 -0.83,1.67 -0.83,0 -1.67,0.83 -0.83,1.67 -0.84,0.83 -1.66,1.67 -0.84,1.66 -0.83,0.84 -0.83,1.66 -1.67,0.84 -0.83,1.66 -0.84,0.84 -0.83,1.66 -1.67,1.67 -0.83,0.83 -0.83,1.67 -1.67,0.83 -0.83,0 -0.84,1.67 -1.66,0.83 -0.84,1.67 -0.83,0.83 -1.67,0 -0.83,1.67 -0.83,0.83 -0.84,1.67 -1.66,0.83 -0.84,1.67 -0.83,1.67 -0.83,0.83 -1.67,1.67 -0.83,0.83 -0.84,1.67 -1.66,0 -0.84,0.83 -0.83,1.67 -0.83,0.83 -1.67,1.67 -0.83,0 -0.84,0.83 -0.83,1.67 -1.67,0.83 -0.83,1.67 -0.83,0 -1.67,0.83 -0.83,1.67 -0.84,0.83 -0.83,1.67 -1.67,1.66 -0.83,0.84 -0.83,1.66 -0.84,1.67 -1.66,0.83 -0.84,1.67 -0.83,1.67 -0.83,0.83 -0.84,1.67 -1.66,0.83 -0.84,0 -0.83,1.67 -1.67,0.83 -0.83,1.67 -0.83,1.66 -0.84,0.84 -1.66,1.66 -0.84,0.84 -0.83,0 -0.83,1.66 -1.67,0.84 -0.83,1.66 -0.84,1.67 -0.83,0.83 -1.67,1.67 -0.83,1.67 -0.83,-0.84 -0.84,1.67 -1.66,0.83 -0.84,1.67 -0.83,1.67 -0.83,0.83 -0.84,1.67 -1.66,1.66 -0.84,0.84 -0.83,1.66 -0.83,1.67 -1.67,0.83 -0.83,1.67 -0.84,1.67 -0.83,0.83 -1.67,0 -0.83,1.67 -0.83,0.83 -0.84,1.67 -1.66,-0.84 -0.84,1.67 -0.83,1.67 -0.83,1.66 -0.84,0.84 -1.66,1.66 -0.84,1.67 -0.83,0.83 -0.83,1.67 -0.84,1.67 -1.66,0.83 -0.84,1.67 -0.83,1.66 -0.83,0.84 -0.84,1.66 -1.66,1.67 -0.84,0.83 -0.83,1.67 -0.83,1.67 -0.84,0.83 -1.66,0 -0.84,1.67 -0.83,-0.84 -1.67,1.67 -0.83,1.67 -0.83,0.83 -0.84,1.67 -0.83,1.66 -0.83,0.84 -1.67,1.66 -0.83,1.67 -0.84,1.67 -0.83,0.83 -0.83,1.67 -1.67,1.66 -0.83,0.84 -0.84,1.66 -0.83,1.67 -0.83,1.67 -0.84,0.83 -1.66,1.67 -0.84,1.66 -0.83,0.84 -0.83,1.66 -1.67,0 -0.83,0.84 -0.84,1.66 -0.83,1.67 -0.83,1.67 -0.84,0.83 -1.66,1.67 -0.84,1.66 -0.83,0.84 -0.83,1.66 -0.84,1.67 -0.83,1.67 -1.67,-0.84 -0.83,1.67 -0.83,1.67 -0.84,0.83 -1.66,0 -0.84,1.67 -0.83,0.83 -0.83,1.67 -0.84,1.66 -0.83,1.67 -1.67,0.83 -0.83,1.67 -0.83,1.67 -0.84,0 -0.83,0.83 -1.67,1.67 -0.83,1.66 -0.83,1.67 -0.84,0.83 -0.83,1.67 -0.83,0 -1.67,0.83 -0.83,1.67 -0.84,1.67 -0.83,1.66 -0.83,0.84 -0.84,1.66 -0.83,1.67 -1.67,1.67 -0.83,0.83 -0.83,1.67 -0.84,1.66 -0.83,1.67 -0.83,0.83 -0.84,1.67 -1.66,1.67 -0.84,1.66 -0.83,1.67 -0.83,0.83 -0.84,0 -0.83,1.67 -1.67,0.83 -0.83,1.67 -0.83,1.67 -0.84,1.66 -0.83,1.67 -0.83,0.83 -0.84,1.67 -1.66,1.67 -0.84,1.66 -0.83,0.84 -0.83,1.66 -0.84,1.67 -0.83,1.67 -0.83,1.66 -0.84,0.84 -0.83,1.66 -1.67,1.67 -0.83,1.67 -0.83,1.66 -0.84,0.84 -0.83,1.66 -0.83,1.67 -0.84,1.67 -0.83,1.66 -1.67,0.84 -0.83,1.66 -0.83,1.67" /><path
             id="path298"
             style="fill:none;stroke:#c82d2b;stroke-width:25;stroke-linecap:butt;stroke-linejoin:round;stroke-miterlimit:10;stroke-dasharray:128, 48;stroke-dashoffset:0;stroke-opacity:1"
             d="m 4054.17,1455 -1.67,1.67 -1.67,0.83 -1.66,0.83 -0.84,0.84 -1.66,1.66 -1.67,0.84 -0.83,0.83 -1.67,1.67 -1.67,0.83 -0.83,0.83 -1.67,1.67 -1.66,0.83 -0.84,0.84 -1.66,0.83 -0.84,1.67 -1.66,0.83 -1.67,0.83 -0.83,1.67 -1.67,0.83 -1.67,0.84 -0.83,0.83 -1.67,1.67 -1.66,0.83 -0.84,0.83 -1.66,1.67 -1.67,0.83 -0.83,0.84 -1.67,1.66 -1.67,0.84 -0.83,0.83 -1.67,0.83 -0.83,1.67 -1.67,0.83 -1.66,0.84 -0.84,1.66 -1.66,0.84 -1.67,0.83 -0.83,1.67 -1.67,0.83 -0.83,0.83 -1.67,1.67 -1.67,0.83 -0.83,0.84 -1.67,0.83 -1.66,1.67 -0.84,0.83 -1.66,0.83 -0.84,1.67 -1.66,0.83 -1.67,0.84 -0.83,1.66 -1.67,0.84 -0.83,0.83 -1.67,1.67 -1.67,0.83 -0.83,0.83 -1.67,1.67 -0.83,0.83 -1.67,0.84 -1.66,1.66 -0.84,0.84 -1.66,0.83 -0.84,1.67 -1.66,0.83 -1.67,0.83 -0.83,1.67 -1.67,0.83 -0.83,0.84 -1.67,1.66 -1.67,0.84 -0.83,0.83 -1.67,1.67 -0.83,0.83 -1.67,0.83 -1.66,1.67 -0.84,0.83 -1.66,0.84 -0.84,1.66 -1.66,0.84 -0.84,0.83 -1.66,1.67 -1.67,0.83 -0.83,0.83 -1.67,1.67 -0.83,0.83 -1.67,0.84 -0.83,1.66 -1.67,0.84 -0.83,0.83 -1.67,1.67 -1.67,0.83 -0.83,0.83 -1.67,1.67 -0.83,0.83 -1.67,1.67 -0.83,0.83 -1.67,0.84 -0.83,1.66 -1.67,0.84 -1.66,0.83 -0.84,1.67 -1.66,0.83 -0.84,0.83 -1.66,1.67 -0.84,0.83 -1.66,0.84 -0.84,1.66 -1.66,0.84 -0.84,1.66 -1.66,0.84 -1.67,0.83 -0.83,1.67 -1.67,0.83 -0.83,0.83 -1.67,1.67 -0.83,0.83 -1.67,0.84 -0.83,1.66 -1.67,0.84 -0.83,1.66 -1.67,0.84 -0.83,0.83 -1.67,1.67 -0.83,0.83 -1.67,0.83 -0.83,1.67 -1.67,0.83 -0.83,1.67 -1.67,0.83 -1.67,0.84 -0.83,1.66 -1.67,0.84 -0.83,1.66 -1.67,0.84 -0.83,0.83 -1.67,1.67 -0.83,0.83 -1.67,0.83 -0.83,1.67 -1.67,0.83 -0.83,1.67 -1.67,0.83 -0.83,0.84 -1.67,1.66 -0.83,0.84 -1.67,1.66 -0.83,0.84 -1.67,0.83 -0.83,1.67 -1.67,0.83 -0.83,1.67 -1.67,0.83 -0.83,0.83 -1.67,1.67 -0.83,0.83 -0.83,1.67 -1.67,0.83 -0.83,0.84 -1.67,1.66 -0.83,0.84 -1.67,1.66 -0.83,-0.83 -1.67,0.83 -0.83,1.67 -1.67,0.83 -0.83,1.67 -1.67,0.83 -0.83,0.84 -1.67,1.66 -0.83,0.84 -1.67,0 -0.83,0.83 -1.67,1.67 -0.83,0.83 -1.67,0.83 -0.83,1.67 -1.67,0.83 -0.83,1.67 -1.67,0.83 -0.83,1.67 -0.84,0.83 -1.66,0.84 -0.84,1.66 -1.66,0.84 -0.84,1.66 -1.66,0.84 -0.84,1.66 -1.66,0.84 -0.84,-0.84 -1.66,1.67 -0.84,0.83 -1.66,1.67 -0.84,0.83 -0.83,1.67 -1.67,0.83 -0.83,0.84 -1.67,1.66 -0.83,0.84 -1.67,1.66 -0.83,0.84 -0.83,1.66 -1.67,0.84 -0.83,1.66 -1.67,0.84 -0.83,0.83 -1.67,1.67 -0.83,0.83 -1.67,1.67 -0.83,0.83 -0.84,1.67 -1.66,0.83 -0.84,1.67 -1.66,0.83 -0.84,0.83 -0.83,1.67 -1.67,0.83 -0.83,1.67 -1.67,-0.83 -0.83,1.66 -1.67,0.84 -0.83,1.66 -1.67,0.84 -0.83,1.66 -0.83,0.84 -1.67,0.83 -0.83,1.67 -1.67,0.83 -0.83,1.67 -0.84,0.83 -1.66,1.67 -0.84,0.83 -1.66,1.67 -0.84,0.83 -0.83,1.67 -1.67,0.83 -0.83,1.67 -1.67,0.83 -0.83,0.83 -0.83,1.67 -1.67,0.83 -0.83,1.67 -1.67,0.83 -0.83,0 -1.67,0.84 -0.83,1.66 -0.84,-0.83 -1.66,1.67 -0.84,0.83 -1.66,1.67 -0.84,0.83 -0.83,1.67 -1.67,0.83 -0.83,1.67 -1.67,0.83 -0.83,1.67 -0.83,0.83 -1.67,1.67 -0.83,0.83 -0.84,1.67 -1.66,0.83 -0.84,1.67 -1.66,0.83 -0.84,1.67 -0.83,0.83 -1.67,0.83 -0.83,1.67 -0.83,0.83 -1.67,1.67 -0.83,0.83 -1.67,1.67 -0.83,0.83 -0.84,0 -1.66,0.84 -0.84,1.66 -0.83,0.84 -1.67,1.66 -0.83,0.84 -1.67,1.66 -0.83,0.84 -0.83,1.66" /><path
             id="path300"
             style="fill:none;stroke:#c82d2b;stroke-width:25;stroke-linecap:butt;stroke-linejoin:round;stroke-miterlimit:10;stroke-dasharray:none;stroke-opacity:1"
             d="m 874.168,3118.33 -290.836,0" /><path
             id="path302"
             style="fill:none;stroke:#c82d2b;stroke-width:25;stroke-linecap:butt;stroke-linejoin:round;stroke-miterlimit:10;stroke-dasharray:none;stroke-opacity:1"
             d="m 1165,3118.33 -290.832,0" /><path
             id="path304"
             style="fill:none;stroke:#c82d2b;stroke-width:25;stroke-linecap:butt;stroke-linejoin:round;stroke-miterlimit:10;stroke-dasharray:none;stroke-opacity:1"
             d="m 1455,3118.33 -290,0" /><path
             id="path306"
             style="fill:none;stroke:#c82d2b;stroke-width:25;stroke-linecap:butt;stroke-linejoin:round;stroke-miterlimit:10;stroke-dasharray:none;stroke-opacity:1"
             d="m 1745.83,3118.33 -290.83,0" /><path
             id="path308"
             style="fill:none;stroke:#c82d2b;stroke-width:25;stroke-linecap:butt;stroke-linejoin:round;stroke-miterlimit:10;stroke-dasharray:none;stroke-opacity:1"
             d="m 2036.67,3118.33 -290.84,0" /><path
             id="path310"
             style="fill:none;stroke:#c82d2b;stroke-width:25;stroke-linecap:butt;stroke-linejoin:round;stroke-miterlimit:10;stroke-dasharray:none;stroke-opacity:1"
             d="m 2327.5,3118.33 -290.83,0" /><path
             id="path312"
             style="fill:none;stroke:#c82d2b;stroke-width:25;stroke-linecap:butt;stroke-linejoin:round;stroke-miterlimit:10;stroke-dasharray:none;stroke-opacity:1"
             d="m 2618.33,3118.33 -290.83,0" /><path
             id="path314"
             style="fill:none;stroke:#c82d2b;stroke-width:25;stroke-linecap:butt;stroke-linejoin:round;stroke-miterlimit:10;stroke-dasharray:none;stroke-opacity:1"
             d="m 2909.17,3118.33 -290.84,0" /><path
             id="path316"
             style="fill:none;stroke:#c82d2b;stroke-width:25;stroke-linecap:butt;stroke-linejoin:round;stroke-miterlimit:10;stroke-dasharray:none;stroke-opacity:1"
             d="m 3200,3118.33 -290.83,0" /><path
             id="path318"
             style="fill:none;stroke:#c82d2b;stroke-width:25;stroke-linecap:butt;stroke-linejoin:round;stroke-miterlimit:10;stroke-dasharray:none;stroke-opacity:1"
             d="m 3490.83,3118.33 -290.83,0" /><path
             id="path320"
             style="fill:none;stroke:#c82d2b;stroke-width:25;stroke-linecap:butt;stroke-linejoin:round;stroke-miterlimit:10;stroke-dasharray:none;stroke-opacity:1"
             d="m 3764.17,2759.17 -0.84,1.66 -1.66,1.67 -0.84,1.67 -0.83,0.83 -0.83,1.67 -0.84,1.66 -0.83,1.67 -0.83,1.67 -1.67,1.66 -0.83,1.67 -0.84,0.83 -0.83,1.67 -0.83,1.67 -0.84,1.66 -0.83,1.67 -0.83,1.67 -1.67,1.66 -0.83,1.67 -0.84,1.67 -0.83,0.83 -0.83,1.67 -0.84,1.66 -0.83,1.67 -0.83,1.67 -1.67,1.66 -0.83,1.67 -0.84,1.67 -0.83,1.66 -0.83,1.67 -0.84,0.83 -0.83,1.67 -0.83,1.67 -0.84,1.66 -1.66,1.67 -0.84,1.67 -0.83,1.66 -0.83,1.67 -0.84,1.67 -0.83,1.66 -0.83,0.84 -0.84,1.66 -1.66,0 -0.84,1.67 -0.83,1.67 -0.83,1.66 -0.84,1.67 -0.83,1.67 -0.83,1.66 -0.84,1.67 -0.83,1.67 -1.67,1.66 -0.83,1.67 -0.83,0.83 -0.84,1.67 -0.83,1.67 -0.83,1.66 -0.84,1.67 -0.83,1.67 -0.83,1.66 -1.67,1.67 -0.83,1.67 -0.84,1.66 -0.83,1.67 -0.83,1.67 -0.84,1.66 -0.83,1.67 -0.83,1.67 -0.84,0.83 -0.83,1.67 -0.83,1.66 -1.67,1.67 -0.83,1.67 -0.84,1.66 -0.83,1.67 -0.83,1.67 -0.84,1.66 -0.83,1.67 -0.83,1.67 -0.84,1.66 -0.83,1.67 -0.83,1.67 -1.67,1.66 -0.83,1.67 -0.84,1.67 -0.83,0 -0.83,1.66 -0.84,1.67 -0.83,1.67 -0.83,1.66 -0.84,1.67 -0.83,1.67 -0.83,0.83 -1.67,1.67 -0.83,1.66 -0.84,0 -0.83,1.67 -0.83,1.67 -0.84,1.66 -1.66,0 -1.67,1.67 -0.83,0 -0.84,1.67 -0.83,1.66 -0.83,1.67 -0.84,1.67 -0.83,1.66 -0.83,1.67 -0.84,1.67 -0.83,1.66 -0.83,1.67 -0.84,1.67 -1.66,1.66 -0.84,1.67 -0.83,1.67 -0.83,1.66 -0.84,1.67 -0.83,1.67 -0.83,1.66 -0.84,1.67 -0.83,1.67 -0.83,1.66 -0.84,1.67 -0.83,1.67 -0.83,1.66 -0.84,1.67 -0.83,1.67 -0.83,1.66 -1.67,1.67 -0.83,1.67 -0.84,1.66 -0.83,1.67 -0.83,1.67 -0.84,1.66 -0.83,1.67 -0.83,1.67 -0.84,1.66 -0.83,1.67 -0.83,1.67 -0.84,1.66 -0.83,1.67 -0.83,1.67 -0.84,1.66 -0.83,2.5 -0.83,1.67 -0.84,1.67 -0.83,1.66 -1.67,1.67 -0.83,1.67 -0.83,1.66 -0.84,1.67 -0.83,1.67 -1.67,0 -0.83,1.66 -0.83,1.67 -0.84,1.67 -0.83,1.66 -0.83,1.67 -0.84,1.67 -2.5,0 -0.83,1.66 -0.83,1.67 -0.84,1.67 -0.83,1.66 -0.83,1.67 -0.84,1.67 -0.83,1.66 -0.83,2.5 -0.84,1.67 -0.83,1.67 -0.83,1.66 -0.84,1.67 -0.83,1.67 -0.83,1.66 -0.84,1.67 -0.83,1.67 -0.83,1.66 -0.84,1.67 -0.83,1.67 -0.83,1.66 -0.84,2.5 -0.83,1.67 -0.83,1.67 -0.84,1.66 -0.83,1.67 -1.67,1.67 -0.83,1.66 -0.83,1.67 -0.84,1.67 -0.83,1.66 -0.83,1.67 -0.84,2.5 -0.83,1.67 -0.83,1.66 -0.84,1.67 -0.83,0 -0.83,1.67 -0.84,1.66 -2.5,0 -0.83,1.67 -1.67,0 -0.83,1.67 -0.83,1.66 -0.84,0 -0.83,1.67 -0.83,2.5 -0.84,1.67 -0.83,1.66 -0.83,1.67 -0.84,1.67 -0.83,1.66 -0.83,1.67 -0.84,1.67 -0.83,2.5 -0.83,1.66 -6.67,0 -0.83,1.67 -0.84,1.67 -0.83,1.66 -0.83,1.67 -0.84,1.67 -3.33,0 -0.83,1.66 -6.67,0 -0.83,2.5 -0.84,1.67 -0.83,1.67 -2.5,0 -0.83,1.66 -2.5,0 -0.84,1.67 -16.66,0 -0.84,1.67 -21.66,0 -0.84,1.66 -5,0" /><path
             id="path322"
             style="fill:none;stroke:#c82d2b;stroke-width:25;stroke-linecap:butt;stroke-linejoin:round;stroke-miterlimit:10;stroke-dasharray:none;stroke-opacity:1"
             d="m 4054.17,2359.17 -1.67,1.66 -0.83,0.84 -1.67,1.66 -0.83,0.84 -0.84,1.66 -1.66,1.67 -0.84,0.83 -0.83,1.67 -1.67,0.83 -0.83,1.67 -0.83,0.83 -1.67,1.67 -0.83,1.67 -0.84,0.83 -1.66,1.67 -0.84,0.83 -0.83,1.67 -1.67,1.66 -0.83,0.84 -0.83,1.66 -1.67,0.84 -0.83,1.66 -0.84,1.67 -1.66,0.83 -0.84,1.67 -0.83,1.67 -1.67,0.83 -0.83,1.67 -0.83,0.83 -1.67,1.67 -0.83,1.66 -0.84,0.84 -1.66,1.66 -0.84,0.84 -0.83,1.66 -1.67,1.67 -0.83,0.83 -0.83,1.67 -1.67,1.67 -0.83,0.83 -0.84,1.67 -1.66,0.83 -0.84,1.67 -0.83,1.66 -1.67,0.84 -0.83,1.66 -0.83,1.67 -1.67,0.83 -0.83,1.67 -0.84,0.83 -0.83,1.67 -1.67,1.67 -0.83,0.83 -0.83,1.67 -1.67,1.66 -0.83,0.84 -0.84,1.66 -1.66,0.84 -0.84,1.66 -0.83,1.67 -1.67,0.83 -0.83,1.67 -0.83,1.67 -0.84,0.83 -1.66,1.67 -0.84,1.66 -0.83,0.84 -1.67,1.66 -0.83,1.67 -0.83,0.83 -1.67,1.67 -0.83,1.67 -0.84,0.83 -0.83,1.67 -1.67,0.83 -0.83,1.67 -0.83,1.66 -1.67,0.84 -0.83,1.66 -0.84,1.67 -0.83,0.83 -1.67,1.67 -0.83,1.67 -0.83,0.83 -1.67,1.67 -0.83,1.66 -0.84,0.84 -0.83,1.66 -1.67,1.67 -0.83,0.83 -0.83,1.67 -1.67,1.67 -0.83,0.83 -0.84,1.67 -0.83,1.66 -1.67,0.84 -0.83,1.66 -0.83,1.67 -0.84,0.83 -1.66,1.67 -0.84,1.67 -0.83,1.66 -1.67,0.84 -0.83,1.66 -0.83,1.67 -0.84,0.83 -1.66,1.67 -0.84,1.67 -0.83,0.83 -0.83,1.67 -1.67,1.66 -0.83,0.84 -0.84,1.66 -0.83,1.67 -1.67,0.83 -0.83,1.67 -0.83,1.67 -0.84,1.66 -1.66,0.84 -0.84,1.66 -0.83,1.67 -0.83,0.83 -1.67,1.67 -0.83,1.67 -0.84,0.83 -0.83,1.67 -1.67,1.66 -0.83,1.67 -0.83,0.83 -0.84,1.67 -1.66,1.67 -0.84,0.83 -0.83,1.67 -0.83,1.66 -1.67,1.67 -0.83,0.83 -0.84,1.67 -0.83,1.67 -1.67,0.83 -0.83,1.67 -0.83,1.66 -0.84,1.67 -1.66,0.83 -0.84,1.67 -0.83,1.67 -0.83,0.83 -1.67,1.67 -0.83,1.66 -0.84,1.67 -0.83,0.83 -0.83,1.67 -1.67,1.67 -0.83,1.66 -0.84,0.84 -0.83,1.66 -1.67,1.67 -0.83,0.83 -0.83,1.67 -0.84,1.67 -1.66,1.66 -0.84,0.84 -0.83,1.66 -0.83,1.67 -0.84,1.67 -1.66,0.83 -0.84,1.67 -0.83,1.66 -0.83,1.67 -1.67,0.83 -0.83,1.67 -0.84,1.67 -0.83,1.66 -0.83,0.84 -1.67,1.66 -0.83,1.67 -0.84,1.67 -0.83,0.83 -0.83,1.67 -1.67,1.66 -0.83,1.67 -0.84,0.83 -0.83,1.67 -1.67,1.67 -0.83,1.66 -0.83,0.84 -0.84,1.66 -0.83,1.67 -1.67,1.67 -0.83,1.66 -0.83,0.84 -0.84,1.66 -0.83,1.67 -1.67,1.67 -0.83,0.83 -0.83,1.67 -0.84,1.66 -0.83,1.67 -1.67,0.83 -0.83,1.67 -0.83,1.67 -0.84,1.66 -0.83,1.67 -0.83,0.83 -1.67,1.67 -0.83,0 -0.84,1.67 -0.83,1.66 -1.67,0.84 -0.83,1.66 -0.83,1.67 -0.84,1.67 -0.83,1.66 -0.83,0.84 -1.67,1.66 -0.83,1.67 -0.84,1.67 -0.83,0.83 -0.83,1.67 -1.67,1.66 -0.83,1.67 -0.84,1.67 -0.83,0.83 -0.83,1.67 -0.84,1.66 -1.66,1.67 -0.84,1.67 -0.83,1.66 -0.83,0.84 -0.84,1.66 -1.66,1.67 -0.84,1.67 -0.83,1.66 -0.83,0.84 -0.84,1.66 -0.83,1.67 -1.67,1.67 -0.83,1.66 -0.83,0.84 -0.84,1.66 -0.83,1.67 -0.83,1.67 -1.67,1.66 -0.83,1.67 -0.84,0.83 -0.83,1.67 -0.83,1.67 -0.84,1.66 -1.66,1.67 -0.84,1.67 -0.83,0.83 -0.83,1.67 -0.84,1.66 -0.83,1.67 -0.83,1.67 -1.67,1.66 -0.83,0.84 -0.84,1.66 -0.83,1.67 -0.83,1.67 -0.84,1.66 -1.66,1.67 -0.84,0.83 -0.83,1.67 -0.83,1.67 -0.84,1.66 -0.83,1.67 -0.83,1.67 -1.67,1.66 -0.83,0.84 -0.84,1.66 -0.83,1.67 -0.83,1.67 -0.84,1.66 -0.83,1.67 -1.67,1.67 -0.83,0.83 -0.83,1.67 -0.84,1.66 -0.83,1.67 -0.83,1.67" /><path
             id="path324"
             style="fill:none;stroke:#00b050;stroke-width:25;stroke-linecap:butt;stroke-linejoin:round;stroke-miterlimit:10;stroke-dasharray:128, 48;stroke-dashoffset:0;stroke-opacity:1"
             d="m 4054.17,2320 -20.84,24.17 -20,23.33 -20,24.17 -19.16,25 -20,24.16 -19.17,25 -18.33,25 -19.17,25.84 -18.33,25 -18.34,26.66 -18.33,25.84 -17.5,26.66 -17.5,26.67 -17.5,26.67 -17.5,27.5 -17.5,27.5 -16.67,28.33 -16.66,28.33 -16.67,28.34 -16.67,29.16 -16.66,29.17 -15.84,30 -15.83,29.17 -15.83,30.83 -15.84,30 -15,30.83 -17.5,0 -18.33,-0.83 -17.5,-0.83 -17.5,0 -17.5,-0.84 -18.33,-0.83 -17.5,0 -17.5,-0.83 -17.5,-0.84 -18.34,0 -17.5,-0.83 -17.5,-0.83 -17.5,-0.84 -18.33,-0.83 -17.5,0 -17.5,-0.83 -17.5,-0.84 -18.33,-0.83 -17.5,-0.83 -17.5,0 -17.5,-0.84 -18.34,-0.83 -17.5,-0.83 -17.5,-0.84 -18.33,-0.83 -17.5,-0.83 -17.5,-0.84 -17.5,-0.83 -18.33,0 -17.5,-0.83 -17.5,-0.84 -17.5,-0.83 -18.34,-0.83 -17.5,-0.84 -17.5,-0.83 -17.5,-0.83 -18.33,-1.67 -17.5,-0.83 -17.5,-0.84 -17.5,-0.83 -18.33,-0.83 -17.5,-0.84 -17.5,-0.83 -17.5,-0.83 -18.34,-1.67 -17.5,-0.83 -17.5,-0.84 -17.5,-0.83 -18.33,-1.67 -17.5,-0.83 -17.5,-0.83 -17.5,-0.84 -18.33,-1.66 -17.5,-0.84 -17.5,-1.66 -17.5,-0.84 -18.34,-1.66 -17.5,-0.84 -17.5,-1.66 -17.5,-0.84 -18.33,-1.66 -17.5,-0.84 -17.5,-1.66 -17.5,-0.84 -18.33,-1.66 -17.5,-1.67 -17.5,-1.67 -17.5,-0.83 -18.34,-1.67 -17.5,-1.66 -17.5,-1.67 -17.5,-1.67 -18.33,-1.66 -17.5,-1.67 -8.33,54.17 -18.34,-0.84 -17.5,-0.83 -17.5,-1.67 -17.5,-0.83 -17.5,-1.67 -17.5,-0.83 -17.5,-1.67 -18.33,-1.66 -17.5,-0.84 -17.5,-1.66 -17.5,-1.67 -17.5,-0.83 -17.5,-1.67 -17.5,-1.67 -18.33,-1.66 -17.5,-1.67 -17.5,-1.67 -6.67,66.67 -17.5,-0.83 -17.5,-0.84 -17.5,-0.83 -17.5,-0.83 -18.33,-0.84 -17.5,-0.83 -17.5,-1.67 -17.5,-0.83 -17.5,-0.83 -17.5,-0.84 -17.5,-1.66 -17.5,-0.84 -17.5,-1.66 -17.5,-0.84 -17.5,-1.66 -17.5,-0.84 -17.5,-1.66 -17.5,-1.67 -17.5,-0.83 -5,89.16 -1030.002,0" /><path
             id="path326"
             style="fill:none;stroke:#00b050;stroke-width:25;stroke-linecap:butt;stroke-linejoin:round;stroke-miterlimit:10;stroke-dasharray:none;stroke-opacity:1"
             d="m 4054.17,2953.33 -18.34,-0.83 -17.5,27.5 -18.33,-0.83 -17.5,-0.84 -18.33,-0.83 -17.5,27.5 -16.67,28.33 -18.33,-0.83 -17.5,0 -17.5,-0.83 -17.5,0 -18.34,-0.84 -17.5,-0.83 -16.66,29.17 -35,0 -15.84,29.16 -17.5,0 -15.83,30 -3123.332,0" /><path
             id="path328"
             style="fill:none;stroke:#2540b4;stroke-width:25;stroke-linecap:butt;stroke-linejoin:round;stroke-miterlimit:10;stroke-dasharray:128, 48;stroke-dashoffset:0;stroke-opacity:1"
             d="m 2182.5,3027.5 -5.83,0 -5,-0.83 -5.84,0 -5,-0.84 -10.83,0 -5.83,-0.83 -10.84,0 -5,-0.83 -5.83,0 -5,-0.84 -5.83,0 -2.5,19.17 -5,-0.83 -10.84,0 -5.83,-0.84 -2.5,19.17 -1.67,20 -5.83,-0.83 -26.67,0 -5.83,-0.84 -21.67,0 -5,-0.83 -26.66,0 -2.5,20 -48.34,0 -5.83,-0.83 -43.33,0 -5,-0.84 -43.34,0 -1.66,22.5 -1254.17,0" /><path
             id="path330"
             style="fill:none;stroke:#2540b4;stroke-width:25;stroke-linecap:butt;stroke-linejoin:round;stroke-miterlimit:10;stroke-dasharray:128, 48;stroke-dashoffset:0;stroke-opacity:1"
             d="m 3652.5,860 -7.5,5 -7.5,5.832 -8.33,5 -7.5,5.836 -7.5,5 -7.5,5.832 -7.5,5 -7.5,5.832 -8.34,-4.164 -7.5,5.832 -7.5,5.832 -6.66,5 -7.5,5.836 -7.5,5.832 -6.67,5.832 -7.5,5 -6.67,5.836 -7.5,5.832 -6.66,5.832 -7.5,5.836 -6.67,5.832 -7.5,5.832 -6.67,5.836 -6.66,5 -6.67,5.832 -8.33,-3.332 -6.67,5.832 -7.5,5.832 -6.67,5.838 -6.66,5.83 -6.67,5.83 -6.67,6.67 -6.66,5.83 -6.67,5.84 -5.83,5.83 -6.67,5.83 -6.67,6.67 -6.66,5.83 -6.67,5.84 -5.83,6.66 -6.67,5.84 -6.67,5.83 -5.83,6.67 -6.67,5.83 -5.83,6.67 -6.67,5.83 -5.83,6.67 -5.83,5.83 -6.67,6.67 -5.83,6.66 -6.67,5.84 -7.5,-3.34 -5.83,6.67 -5.84,5.83 -8.33,-3.33 -5.83,6.67 -5.84,5.83 -5.83,6.67 -5.83,6.66 -7.5,-3.33 -5.84,6.67 -5.83,6.66 -5.83,5.84 -5.84,6.66 -5.83,6.67 -5.83,6.67 -5.84,6.66 -5.83,7.5 -7.5,-4.16 -5.83,6.66 -5,6.67 -5.84,7.5 -5.83,6.67 -5,6.66 -5.83,6.67 -5.84,7.5 -6.66,-4.17 -5.84,7.5 -5,6.67 -5.83,6.67 -5,7.5 -5.83,6.66 -5,7.5 -7.5,-3.33 -5,6.67 -5.84,7.5 -5,6.66 -5,7.5 -5.83,7.5 -5,6.67 -5,7.5 -5,7.5 -5,7.5 -5.83,7.5 -5,7.5 -5,6.67 -5,7.5 -5,7.5 -5,7.5 -5,7.5 -5,8.33 -5,7.5 -5,7.5 -4.17,7.5 -5,7.5 -5,8.33 -7.5,-3.33 -4.17,7.5 -5,7.5 -5,8.33 -5,7.5 -4.16,8.34 -5,7.5 -5,8.33 -4.17,7.5 -5,8.33 -5,8.34 -4.17,7.5 -5,8.33 -4.16,8.33 -5,8.34 -6.67,-3.34 -4.17,8.34 -5,8.33 -4.16,8.33 -5,8.34 -4.17,8.33 -4.17,8.33 -5,8.34 -4.16,8.33 -4.17,9.17 -5,8.33 -4.17,8.33 -4.16,9.17 -4.17,8.33 -4.17,8.34 -5,9.16 -4.16,9.17 -4.17,8.33 -4.17,9.17 -4.16,8.33 -6.67,-2.5 -4.17,9.17 -4.16,8.33 -4.17,9.17 -6.67,-2.5 -4.16,9.17 -4.17,9.16 -4.17,9.17 -4.16,9.17 -4.17,9.16 -4.17,9.17 -4.16,9.17 -3.34,9.16 -4.16,10 -4.17,9.17 -6.67,-2.5 -4.16,9.17 -3.34,9.16 -4.16,10 -4.17,10 -4.17,9.17 -3.33,10 -4.17,10 -4.16,9.17 -3.34,10 -4.16,10 -4.17,10 -3.33,10 -4.17,10 -3.33,10 -4.17,10.83 -4.17,10 -3.33,10 -4.17,10.83 -3.33,10 -4.17,10.84 -3.33,10 -3.33,10.83 -4.17,10 -3.33,10.83 -4.17,10.84 -3.33,10.83 -3.34,10.83 -4.16,10.84 -3.34,10.83 -3.33,10.83 -4.17,10.84 -3.33,10.83 -3.33,10.83 -4.17,11.67 -3.33,10.83 -3.34,11.67 -3.33,10.83 -4.17,11.67 -3.33,10.83 -3.33,11.67 -3.34,11.67 -3.33,11.66 -3.33,11.67 -3.34,11.67 -6.66,-1.67 -3.34,11.67 -3.33,11.66 -3.33,11.67 -3.34,11.67 -3.33,12.5 -3.33,11.66 -5.84,-1.66 -3.33,12.5 -3.33,11.66 -3.34,12.5 -3.33,12.5 -3.33,12.5 -3.34,12.5 -3.33,12.5 -3.33,12.5 -2.5,12.5 -5.84,-1.66 -3.33,13.33 -3.33,12.5 -5.84,-1.67 -3.33,13.34 -3.33,12.5 -3.34,13.33 -2.5,13.33 -3.33,13.34 -3.33,13.33 -5.84,-1.67 -2.5,13.34 -3.33,13.33 -3.33,13.33 -3.34,14.17 -2.5,13.33 -5.83,-0.83 -3.33,13.33 -2.5,14.17 -3.34,14.17 -3.33,13.33 -5,-0.83 -3.33,14.16 -5.84,-0.83 -2.5,14.17 -5.83,-0.84 -3.33,14.17 -2.5,14.17 -3.34,15 -5,-1.67 -5.83,-0.83 -5.83,-0.84 -2.5,15 -3.34,15 -5.83,-1.66 -5,-0.84 -3.33,15 -5,-0.83 -3.34,15 -2.5,15.83 -5.83,-0.83 -5,-0.83 -3.33,15 -2.5,15.83 -5.84,-0.83 -5,-0.84 -3.33,15.84 -5,-0.84 -3.33,15.84 -2.5,15.83 -5.84,-0.83 -2.5,16.66 -2.5,15.84 -5.83,-0.84 -5,0 -5.83,-0.83 -5,0 -5.84,-0.83 -2.5,16.66 -5.83,-0.83 -5,0 -5.83,-0.83 -5,-0.84 -3.34,17.5 -5,-0.83 -5.83,0 -2.5,16.67 -5,-0.84 -10.83,0 -5.84,-0.83 -5.83,0 -5,-0.83 -5.83,0 -5,-0.84 -2.5,17.5 -5.84,0 -5,-0.83 -5.83,0 -2.5,17.5 -5,0" /><path
             id="path332"
             style="fill:none;stroke:#2540b4;stroke-width:25;stroke-linecap:butt;stroke-linejoin:round;stroke-miterlimit:10;stroke-dasharray:128, 48;stroke-dashoffset:0;stroke-opacity:1"
             d="m 4054.17,647.5 -10,4.168 -10,5 -10,4.164 -9.17,5 -10,5 -9.17,4.168 -9.16,5 -10,5 -9.17,5 -9.17,4.168 -9.16,5 -9.17,5 -9.17,5 -9.16,5 -9.17,4.164 -9.17,5 -8.33,5 -9.17,5 -9.16,5 -8.34,5 -9.16,-4.164 -9.17,5 -9.17,-3.336 -8.33,5 -9.17,5 -8.33,5 -8.33,5 -8.34,5 -9.16,5 -8.34,5 -8.33,5 -8.33,5 -8.34,5.836 -7.5,5 -8.33,5 -8.33,5 -8.34,5 -7.5,5.832 -8.33,5 -8.33,5 -7.5,5.832 -8.34,5 -7.5,5 -7.5,5.836 -8.33,5 -7.5,5.832" /><path
             id="path334"
             style="fill:none;stroke:#2540b4;stroke-width:25;stroke-linecap:butt;stroke-linejoin:round;stroke-miterlimit:10;stroke-dasharray:none;stroke-opacity:1"
             d="m 2146.67,2808.33 -5.84,-0.83 -5,-1.67 -5.83,-0.83 -5.83,-0.83 -5,-0.84 -5.84,-1.66 -5.83,-0.84 -5,-0.83 -5.83,-1.67 -5,-0.83 -5.84,-0.83 -5.83,-1.67 -5,-0.83 -5.83,-0.84 -5.84,-1.66 -5,-0.84 -5.83,-0.83 -5.83,-1.67 -5,-0.83 -5.84,-1.67 -5,-0.83 -5.83,-1.67 -2.5,19.17 -5,-1.67 -5.83,-0.83 -5.84,-0.83 -5,-1.67 -5.83,-0.83 -5.83,-1.67 -5,-0.83 -5.84,-1.67 -5,-0.83 -2.5,19.16 -2.5,19.17 -1.66,20 -5.84,-0.83 -5.83,-0.84 -5,-1.66 -5.83,-0.84 -5,-0.83 -5.84,-0.83 -5.83,-1.67 -5,-0.83 -2.5,20 -5,-0.84 -5.83,-0.83 -5,-0.83 -5.84,-1.67 -5.83,-0.83 -5,-0.84 -5.83,-0.83 -5,-1.67 -5.84,-0.83 -5,-0.83 -5.83,-0.84 -5.83,-1.66 -5,-0.84 -5.84,-0.83 -5,-1.67 -5.83,-0.83 -5.83,-1.67 -5,-0.83 -5.84,-0.83 -5,-1.67 -5.83,-0.83 -5,-1.67 -5.83,-0.83 -5.84,-1.67 -5,-0.83 -5.83,-0.84 -5,-1.66 -5.83,-1.67 -5.84,-0.83 -5,-1.67 -5.83,-0.83 -5,-1.67 -5.83,-0.83 -5,-1.67 -5.84,-0.83 -5.83,-1.67 -5,-1.67 -5.83,-0.83 -5,-1.67 -5.84,-1.66 -5,-0.84 -5.83,-1.66 -5.83,-1.67 -5,-1.67 -5.84,-0.83 -5,-1.67 -5.83,-1.66 -5.83,-1.67 -5,-1.67 -5.84,-0.83 -1.66,25 -5,-1.67 -1.67,25.84 -5.83,-1.67 -5,-1.67 -5.84,-0.83 -5.83,-1.67 -5,-1.66 -5.83,-0.84 -5,-1.66 -5.84,-1.67 -5,-0.83 -5.83,-1.67 -5,-1.67 -5.83,-1.66 -5.84,-1.67 -5,-0.83 -5.83,-1.67 -5,-1.67 -1.67,27.5 -5.83,-0.83 -5,-1.67 -5.83,-1.66 -5,-1.67 -1.67,29.17 -5.83,-1.67 -5,-0.83 -5.84,-1.67 -5,-1.67 -5.83,-0.83 -5,-1.67 -5.83,-1.66 -5,-1.67 -5.84,-0.83 -5,-1.67 -5.83,-1.67 -5.83,-1.66 -5,-1.67 -5.84,-0.83 -5,-1.67 -5.83,-1.67 -5,-1.66 -5.83,-1.67 -5,-1.67 -5.84,-1.66 -0.83,32.5 -5.83,-1.67 -5.84,-1.67 -5,-1.66 -5.83,-0.84 -5,-1.66 -5.83,-1.67 -5,-1.67 -5.84,-1.66 -5,-1.67 -5.83,-1.67 -0.83,35 -5.84,-1.66 -5,-1.67 -5.83,-1.67 -5,-1.66 -5.83,-0.84 -5,-1.66 -5.84,-1.67 -5,-1.67 -5.83,-1.66 -5,-1.67 -5.83,-1.67 -5,-1.66 -5.84,-2.5 -5,-1.67 -5.83,-1.67 -5.83,-1.66 -5,-1.67 -5.84,-2.5 -5,-1.67 -5.83,-1.66 -5,-2.5 -5.83,-1.67 -5,-2.5 -5.84,-1.67 -5,-2.5 -5.83,-1.66 -5,-2.5 -5.83,-1.67 -0.84,43.33 -5,-2.5 -5.83,-1.66 -5,-1.67 -5.83,-2.5 -5,-1.67 -5.84,-2.5 -5,-1.66 -5.83,-2.5 -5.83,-2.5 -5,-1.67 -5.84,-2.5 -5,-2.5 -5.83,-2.5 -5,-2.5 -5.83,-2.5 -5,-2.5 -0.84,50.83 -5.83,-1.66 -5,-2.5 -5.83,-1.67 -5,-2.5 -5.84,-2.5 -5,-2.5 -5.83,-1.67 -5,-2.5 -5.83,-2.5 -5,-2.5 -5.84,-2.5 -5,-2.5 -5.83,-3.33 -5,-2.5 -5.83,-2.5 -5,-3.33 -5.84,-2.5 -5,-3.34 -5.83,-3.33 -5,-2.5 -5.83,-3.33 -5.002,-3.34 -5.836,-3.33 -5,-3.33 -5.832,-4.17 -5,-3.33 -5.832,-4.17 -5,-3.33 -0.836,70 0,71.66 -0.832,74.17 -5.832,-0.83 0,76.66 -371.668,0" /><path
             id="path336"
             style="fill:none;stroke:#2540b4;stroke-width:25;stroke-linecap:butt;stroke-linejoin:round;stroke-miterlimit:10;stroke-dasharray:none;stroke-opacity:1"
             d="m 3733.33,1774.17 -7.5,-2.5 -5.83,7.5 -6.67,6.66 -5.83,6.67 -6.67,7.5 -5.83,6.67 -6.67,7.5 -5.83,6.66 -6.67,-1.66 -6.66,6.66 -5.84,7.5 -6.66,-2.5 -6.67,-2.5 -6.67,7.5 -5.83,7.5 -6.67,-2.5 -5.83,7.5 -5.83,6.67 -6.67,-1.67 -6.67,6.67 -6.66,-1.67 -5.84,7.5 -5.83,6.67 -5.83,7.5 -5.84,7.5 -6.66,-2.5 -5.84,7.5 -5.83,7.5 -6.67,-1.67 -6.66,-2.5 -5.84,7.5 -6.66,-1.66 -6.67,-2.5 -6.67,-2.5 -6.66,-1.67 -5,7.5 -6.67,-2.5 -5.83,7.5 -6.67,-1.67 -6.67,-2.5 -6.66,-1.66 -6.67,-2.5 -6.67,-2.5 -6.66,-1.67 -6.67,-2.5 -6.67,-2.5 -5.83,8.33 -5,7.5 -6.67,-2.5 -5.83,8.34 -5,7.5 -5.83,7.5 -5,8.33 -6.67,-2.5 -6.67,-1.67 -5,7.5 -5.83,8.34 -6.67,-2.5 -5,7.5 -6.66,-1.67 -5,7.5 -5,8.33 -6.67,-1.66 -5,7.5 -5,8.33 -5.83,8.33 -5.84,-2.5 -5.83,8.34 -5,8.33 -5,8.33 -5,8.34 -5,8.33 -5,8.33 -6.67,-2.5 -5,8.34 -5.83,-1.67 -5,8.33 -6.67,-2.5 -5,9.17 -5.83,-2.5 -5,8.33 -5,9.17 -5,8.33 -5,8.34 -5,9.16 -4.17,8.34 -5,9.16 -5,8.34 -5,9.16 -5.83,-2.5 -6.67,-1.66 -4.16,9.16 -6.67,-2.5 -4.17,9.17 -5,9.17 -5.83,-2.5 -6.67,-1.67 -5,9.17 -4.16,9.16 -5,9.17 -4.17,8.33 -5,9.17 -5.83,-1.67 -4.17,9.17 -5,9.17 -4.17,9.16 -5,10 -4.16,9.17 -4.17,9.17 -6.67,-1.67 -5.83,-1.67 -4.17,9.17 -5,9.17 -5.83,-1.67 -4.17,10 -4.16,9.17 -6.67,-1.67 -4.17,10 -5.83,-1.67 -6.67,-1.66 -5.83,-1.67 -4.17,9.17 -4.16,10 -5.84,-1.67 -4.16,10 -6.67,-1.67 -4.17,9.17 -5.83,-1.67 -5.83,-1.66 -5.84,-1.67 -6.66,-1.67 -4.17,10 -4.17,10 -5.83,-1.66 -4.17,10 -4.16,10.83 -5.84,-1.67 -5.83,-1.66 -5.83,-1.67 -4.17,10 -4.17,10 -4.16,10.83 -4.17,10 -4.17,10.84 -3.33,10 -5.83,-1.67 -4.17,10.83 -5.83,-1.66 -5.84,-1.67 -6.66,-1.67 -5.84,-1.66 -5.83,-1.67 -5.83,-0.83 -5.84,-1.67 -5.83,-1.67 -5.83,-1.66 -5.84,-1.67 -5.83,-1.67 -5.83,-1.66 -6.67,-1.67 -5.83,-1.67 -5.84,-1.66 -3.33,10.83 -4.17,10.83 -5.83,-1.66 -3.33,10.83 -4.17,11.67 -3.33,10.83 -4.17,11.67 -3.33,10.83 -5.84,-1.67 -4.16,11.67 -3.34,10.83 -5.83,-0.83 -4.17,10.83 -5.83,-0.83 -3.33,10.83 -5.84,-0.83 -5.83,-1.67 -5.83,-1.66 -3.34,11.66 -4.16,11.67 -3.34,11.67 -5.83,-1.67 -3.33,12.5 -5.84,-1.67 -3.33,11.67 -5.83,-0.83 -3.34,11.66 -5.83,-1.66 -5.83,-0.84 -5.84,-1.66 -5.83,-0.84 -5.83,-1.66 -5.84,-1.67 -5.83,-0.83 -5.83,-1.67 -5,-1.67 -4.17,12.5 -3.33,12.5 -5.84,-1.66 -5,-0.84 -5.83,-1.66 -5.83,-1.67 -5.84,-0.83 -5.83,-1.67 -5.83,-1.67 -3.34,13.34 -5.83,-1.67 -5,-1.67 -5.83,-0.83 -5.84,-1.67 -5.83,-1.66 -3.33,13.33 -3.34,12.5 -3.33,13.33 -5.83,-1.66 -5,-0.84 -5.84,-1.66 -5.83,-1.67 -5.83,-0.83 -5.84,-1.67 -5.83,-0.83 -5,-1.67 -3.33,13.33 -5.84,-1.66 -5.83,-0.84 -5.83,-1.66 -5.84,-1.67 -2.5,14.17 -3.33,13.33 -5.83,-1.67 -3.34,14.17 -2.5,13.33 -5.83,-0.83 -3.33,13.33 -2.5,14.17 -3.34,14.17 -5.83,-1.67 -5,-0.83 -5.83,-0.84 -5.84,-1.66 -3.33,14.16 -5,-0.83 -5.83,-0.83 -3.34,14.16 -5,-0.83 -5.83,-1.67 -5.83,-0.83 -5,-0.83 -5.84,-1.67 -5.83,-0.83 -5.83,-1.67 -5,-0.83 -5.84,-0.84 -5.83,-1.66 -5,-0.84 -5.83,-0.83 -5.84,-1.67 -5.83,-0.83 -5,-1.67 -5.83,-0.83 -5.84,-1.67 -5,-0.83 -5.83,-1.67 -5.83,-0.83 -2.5,15 -5.84,-0.83 -5.83,-1.67 -5,-0.83 -5.83,-1.67 -5.84,-0.83 -5.83,-0.84 -2.5,15 -5,-0.83 -5.83,-1.67 -2.5,15.84 -3.34,15.83 -2.5,16.67 -5,-1.67 -5.83,-0.83 -5.83,-0.84 -5,-1.66 -5.84,-0.84 -2.5,16.67 -5.83,-1.67 -5.83,-0.83 -5,-0.83 -5.84,-0.84 -2.5,16.67 -5.83,-1.67 -5,-0.83 -5.83,-0.83 -5.84,-0.84 -5,-1.66 -2.5,17.5 -5.83,-1.67 -5.83,-0.83 -5,-0.84" /><path
             id="path338"
             style="fill:none;stroke:#2540b4;stroke-width:25;stroke-linecap:butt;stroke-linejoin:round;stroke-miterlimit:10;stroke-dasharray:none;stroke-opacity:1"
             d="m 4054.17,1547.5 -8.34,5.83 -7.5,6.67 -6.66,5.83 -7.5,-2.5 -7.5,5.84 -7.5,6.66 -7.5,5.84 -7.5,5.83 -7.5,6.67 -7.5,-2.5 -6.67,6.66 -7.5,-2.5 -7.5,5.84 -7.5,-2.5 -6.67,6.66 -7.5,5.84 -6.66,6.66 -7.5,6.67 -6.67,5.83 -7.5,6.67 -6.67,6.67 -6.66,5.83 -7.5,6.67 -6.67,6.66 -6.67,6.67 -6.66,5.83 -6.67,6.67 -7.5,6.67 -6.67,6.66 -6.66,6.67 -6.67,6.67 -6.67,6.66 -6.66,6.67 -6.67,6.67 -6.67,-2.5 -6.66,6.66 -6.67,6.67 -6.67,-2.5 -7.5,-1.67 -6.66,6.67 -6.67,-2.5 -6.67,6.67 -5.83,6.66 -6.67,7.5 -6.66,6.67 -5.84,6.67" /></g></g><g
         id="g340"><g
           clip-path="url(#clipPath344)"
           id="g342"><g
             transform="scale(10,10)"
             id="g348"><text
               id="text350"
               style="font-variant:normal;font-weight:normal;font-size:10px;font-family:Helvetica;-inkscape-font-specification:Helvetica;writing-mode:lr-tb;fill:#000000;fill-opacity:1;fill-rule:nonzero;stroke:none"
               transform="matrix(1,0,0,-1,219.833,13.9168)"><tspan
                 id="tspan352"
                 y="0"
                 x="0 3.3299999 8.8900003 13.89 19.450001 21.67">recall</tspan></text>
<text
               id="text354"
               style="font-variant:normal;font-weight:normal;font-size:10px;font-family:Helvetica;-inkscape-font-specification:Helvetica;writing-mode:lr-tb;fill:#000000;fill-opacity:1;fill-rule:nonzero;stroke:none"
               transform="matrix(0,1,1,0,29.0832,154.833)"><tspan
                 id="tspan356"
                 y="0"
                 x="0 5.5599999 8.8900003 14.45 19.450001 21.67 26.67 28.889999 34.450001">precision</tspan></text>
</g></g></g></g><g
       id="g4648"
       transform="translate(7.6496176,-3.878316)"><text
         xml:space="preserve"
         style="font-style:normal;font-weight:normal;font-size:11px;line-height:125%;font-family:sans-serif;letter-spacing:0px;word-spacing:0px;fill:#000000;fill-opacity:1;stroke:none;stroke-width:1px;stroke-linecap:butt;stroke-linejoin:miter;stroke-opacity:1"
         x="101.91589"
         y="-134.18269"
         id="text4504"
         transform="scale(1,-1)"><tspan
           id="tspan4506"
           x="101.91589"
           y="-134.18269" /><tspan
           x="101.91589"
           y="-120.43269"
           id="tspan4508" /><tspan
           x="101.91589"
           y="-106.68269"
           id="tspan4510">Nordland</tspan></text>
<text
         xml:space="preserve"
         style="font-style:normal;font-weight:normal;font-size:11px;line-height:125%;font-family:sans-serif;letter-spacing:0px;word-spacing:0px;fill:#000000;fill-opacity:1;stroke:none;stroke-width:1px;stroke-linecap:butt;stroke-linejoin:miter;stroke-opacity:1"
         x="101.91589"
         y="-120.80377"
         id="text4512"
         transform="scale(1,-1)"><tspan
           id="tspan4514"
           x="101.91589"
           y="-120.80377">Garden Points </tspan></text>
<text
         xml:space="preserve"
         style="font-style:normal;font-weight:normal;font-size:11px;line-height:125%;font-family:sans-serif;letter-spacing:0px;word-spacing:0px;fill:#000000;fill-opacity:1;stroke:none;stroke-width:1px;stroke-linecap:butt;stroke-linejoin:miter;stroke-opacity:1"
         x="101.52239"
         y="-106.63786"
         id="text4516"
         transform="scale(1,-1)"><tspan
           id="tspan4518"
           x="101.52239"
           y="-106.63786" /><tspan
           x="101.52239"
           y="-92.887863"
           id="tspan4520">UofA day evening</tspan></text>
<path
         style="fill:none;fill-rule:evenodd;stroke:#00b050;stroke-width:1.60000002;stroke-linecap:butt;stroke-linejoin:miter;stroke-miterlimit:4;stroke-dasharray:none;stroke-opacity:1"
         d="m 69.649085,126.50949 29.118827,0"
         id="path4524" /><path
         style="fill:none;fill-rule:evenodd;stroke:#00b050;stroke-width:1.60000002;stroke-linecap:butt;stroke-linejoin:miter;stroke-miterlimit:4;stroke-dasharray:4.8, 1.6;stroke-dashoffset:0;stroke-opacity:1"
         d="m 69.649085,122.37777 29.118822,0"
         id="path4524-3" /><path
         style="fill:none;fill-rule:evenodd;stroke:#c82d2b;stroke-width:1.60000002;stroke-linecap:butt;stroke-linejoin:miter;stroke-miterlimit:4;stroke-dasharray:none;stroke-opacity:1"
         d="m 68.86209,112.2452 29.118826,0"
         id="path4524-6" /><path
         style="fill:none;fill-rule:evenodd;stroke:#c82d2b;stroke-width:1.60000002;stroke-linecap:butt;stroke-linejoin:miter;stroke-miterlimit:4;stroke-dasharray:4.8, 1.6;stroke-dashoffset:0;stroke-opacity:1"
         d="m 68.86209,108.11348 29.118826,0"
         id="path4524-3-7" /><path
         style="fill:none;fill-rule:evenodd;stroke:#2540b4;stroke-width:1.60000002;stroke-linecap:butt;stroke-linejoin:miter;stroke-miterlimit:4;stroke-dasharray:none;stroke-opacity:1"
         d="m 68.86209,98.472784 29.118826,0"
         id="path4524-6-5" /><path
         style="fill:none;fill-rule:evenodd;stroke:#2540b4;stroke-width:1.60000002;stroke-linecap:butt;stroke-linejoin:miter;stroke-miterlimit:4;stroke-dasharray:4.8, 1.6;stroke-dashoffset:0;stroke-opacity:1"
         d="m 68.86209,94.341064 29.118826,0"
         id="path4524-3-7-3" /><text
         xml:space="preserve"
         style="font-style:normal;font-weight:normal;font-size:11px;line-height:125%;font-family:sans-serif;letter-spacing:0px;word-spacing:0px;fill:#000000;fill-opacity:1;stroke:none;stroke-width:1px;stroke-linecap:butt;stroke-linejoin:miter;stroke-opacity:1"
         x="96.800423"
         y="-80.273521"
         id="text4577"
         transform="scale(1,-1)"><tspan
           id="tspan4579"
           x="96.800423"
           y="-80.273521"> SeqSLAM</tspan></text>
<text
         xml:space="preserve"
         style="font-style:normal;font-weight:normal;font-size:11px;line-height:125%;font-family:sans-serif;letter-spacing:0px;word-spacing:0px;fill:#000000;fill-opacity:1;stroke:none;stroke-width:1px;stroke-linecap:butt;stroke-linejoin:miter;stroke-opacity:1"
         x="100.60344"
         y="-68.188408"
         id="text4577-5"
         transform="scale(1,-1)"><tspan
           id="tspan4579-6"
           x="100.60344"
           y="-68.188408">Our Algorithm</tspan></text>
<path
         style="fill:none;fill-rule:evenodd;stroke:#02030a;stroke-width:1.60000002;stroke-linecap:butt;stroke-linejoin:miter;stroke-miterlimit:4;stroke-dasharray:none;stroke-opacity:1"
         d="m 67.681597,70.829578 29.118826,0"
         id="path4524-6-5-2" /><path
         style="fill:none;fill-rule:evenodd;stroke:#02030a;stroke-width:1.60000002;stroke-linecap:butt;stroke-linejoin:miter;stroke-miterlimit:4;stroke-dasharray:4.8, 1.6;stroke-dashoffset:0;stroke-opacity:1"
         d="m 68.075094,83.421503 29.118826,0"
         id="path4524-3-7-3-9" /></g></g></svg>